<ttFont>
<head>
        <!-- Most of this table will be recalculated by the compiler -->
        <tableVersion value="1.0"/>
        <fontRevision value="1.002"/>
        <checkSumAdjustment value="0xe404ed48"/>
        <magicNumber value="0x5f0f3cf5"/>
        <flags value="00000000 00000011"/>
        <unitsPerEm value="1000"/>
        <created value="Fri Jan 15 17:49:38 2016"/>
        <modified value="Fri Jan 15 22:49:39 2016"/>
        <xMin value="-1771"/>
        <yMin value="-411"/>
        <xMax value="805"/>
        <yMax value="1254"/>
        <macStyle value="00000000 00000010"/>
        <lowestRecPPEM value="3"/>
        <fontDirectionHint value="2"/>
        <indexToLocFormat value="0"/>
        <glyphDataFormat value="0"/>
    </head>
                    <CharString index="0">
                        rmoveto
-95 callsubr
-183 158 -100 296 151 vhcurveto
-147 422 -82 callgsubr
                    </CharString>
                    <CharString index="1">
                        rmoveto
54 -49 50 -154 26 vhcurveto
26 107 rlineto
200 hlineto
91 callsubr
-270 hlineto
-52 -212 rlineto
159 -22 51 -34 -37 vvcurveto
-42 -57 -43 -198 17 vhcurveto
-8 -66 rlineto
246 -18 88 81 78 vvcurveto
return
                    </CharString>
                    <CharString index="2">
                        -104 callsubr
-9 -65 rlineto
251 -24 82 78 70 vvcurveto
return
                    </CharString>
                    <CharString index="3">
                        rmoveto
49 -45 43 -122 29 vhcurveto
199 133 8 60 rlineto
-289 hlineto
-12 -61 rlineto
212 hlineto
-204 -134 -5 -31 rlineto
137 -26 49 -34 -34 vvcurveto
-37 -50 -37 -202 21 vhcurveto
return
                    </CharString>
                    <CharString index="4">
                        -69 callgsubr
10 callgsubr
vhcurveto
-53 callsubr
-13 callgsubr
-67 callsubr
return
                    </CharString>
                    <CharString index="5">
                        rmoveto
47 -45 41 -46 38 vhcurveto
39 20 49 23 59 27 -22 41 rcurveline
-66 -30 -54 -26 -44 -23 rrcurveto
-33 27 -26 26 24 vvcurveto
35 42 27 134 -31 vhcurveto
24 67 rlineto
-176 28 -92 -64 -68 vvcurveto
return
                    </CharString>
                    <CharString index="6">
                        rmoveto
hintmask 00111100
-64 callsubr
hintmask 01011100
-87 callsubr
hintmask 10011100
-12 callgsubr
hintmask 00111100
-92 callgsubr
                    </CharString>
                    <CharString index="7">
                        rmoveto
-40 -31 32 75 151 87 150 108 26 37 -6 -12 41 hvcurveto
-17 -85 -31 -152 -11 -56 rrcurveto
-53 -53 -70 -44 -46 hhcurveto
return
                    </CharString>
                    <CharString index="8">
                        -75 callgsubr
hintmask 10110110
-76 callsubr
hintmask 01101110
-13 -88 rlineto
hintmask 10101110
3 callsubr
                    </CharString>
                    <CharString index="9">
                        -322 hlineto
45 234 rlineto
271 hlineto
13 69 rlineto
-270 hlineto
44 228 rlineto
319 hlineto
15 78 rlineto
-411 -34 callgsubr
return
                    </CharString>
                    <CharString index="10">
                        rmoveto
-80 callgsubr
-44 callsubr
-17 -89 rlineto
66 hlineto
18 89 rlineto
return
                    </CharString>
                    <CharString index="11">
                        -105 callsubr
endchar
                    </CharString>
                    <CharString index="12">
                        -11 47 rlineto
-253 -82 -103 36 142 vvcurveto
254 18 143 78 127 vvcurveto
80 -59 50 -96 -187 -142 -192 -172 return
                    </CharString>
                    <CharString index="13">
                        rmoveto
36 -17 78 69 41 83 3 77 rlinecurve
-115 -2 11 -65 -5 -69 -49 -76 rlinecurve
endchar
                    </CharString>
                    <CharString index="14">
                        rmoveto
-10 48 -224 -55 -28 20 25 100 rlinecurve
100 381 -49 callsubr
-43 -160 94 -52 276 114 rlinecurve
endchar
                    </CharString>
                    <CharString index="15">
                        rmoveto
8 hlineto
10 -109 10 -111 8 -111 rrcurveto
-194 hlineto
52 111 53 110 53 110 rrcurveto
endchar
                    </CharString>
                    <CharString index="16">
                        -97 callsubr
endchar
                    </CharString>
                    <CharString index="17">
                        rmoveto
-96 callgsubr
return
                    </CharString>
                    <CharString index="18">
                        rmoveto
-63 48 -89 88 -57 65 -60 -71 rcurveline
66 -58 110 -74 71 -36 rrcurveto
return
                    </CharString>
                    <CharString index="19">
                        -35 callsubr
hintmask 10101110
-73 callsubr
hintmask 10011110
-83 callgsubr
hintmask 01011110
-38 callsubr
                    </CharString>
                    <CharString index="20">
                        -115 -229 -112 -232 -105 -229 rrcurveto
93 hlineto
31 69 32 70 32 70 rrcurveto
232 hlineto
return
                    </CharString>
                    <CharString index="21">
                        -34 -152 -32 -128 -40 -152 rrcurveto
-5 hlineto
-41 295 rlineto
-56 hlineto
-153 -294 rlineto
-4 hlineto
19 148 16 129 24 154 rrcurveto
-89 hlineto
-28 -203 -18 -211 -5 -129 rrcurveto
86 hlineto
156 292 rlineto
endchar
                    </CharString>
                    <CharString index="22">
                        -63 callsubr
hintmask 11100000
-72 callgsubr
                    </CharString>
                    <CharString index="23">
                        rmoveto
-78 callsubr
-54 callsubr
return
                    </CharString>
                    <CharString index="24">
                        -160 -63 rmoveto
-51 -40 23 37 23 16 25 85 49 hvcurveto
43 -35 40 -32 -31 vvcurveto
-33 -38 -26 -55 vhcurveto
endchar
                    </CharString>
                    <CharString index="25">
                        -100 callsubr
hintmask 01111100
-95 callgsubr
hintmask 10111100
-51 callsubr
hintmask 01111100
-42 callgsubr
                    </CharString>
                    <CharString index="26">
                        rmoveto
68 56 83 84 48 59 -86 47 rcurveline
-36 -63 -64 -92 -52 -60 rrcurveto
272 -31 rmoveto
69 55 81 83 48 61 -89 41 rcurveline
-36 -63 -60 -87 -52 -60 rrcurveto
return
                    </CharString>
                    <CharString index="27">
                        rmoveto
-60 callsubr
-18 -91 rlineto
346 -73 134 107 112 -35 callgsubr
return
                    </CharString>
                    <CharString index="28">
                        515 472 -94 callgsubr
return
                    </CharString>
                    <CharString index="29">
                        -48 -26 113 -74 hhcurveto
-56 -56 -54 -93 -55 hvcurveto
46 -27 rlineto
64 40 33 41 30 47 27 -113 74 hhcurveto
return
                    </CharString>
                    <CharString index="30">
                        -146 -1 rmoveto
44 147 -101 -1 -36 -147 rlineto
return
                    </CharString>
                    <CharString index="31">
                        -67 -33 72 363 130 hvcurveto
-87 -3 rlineto
-412 -154 63 -100 103 hhcurveto
77 82 54 67 62 hvcurveto
2 -121 12 -82 -26 -26 -23 -22 -87 -20 -208 18 rrcurveto
return
                    </CharString>
                    <CharString index="32">
                        rmoveto
92 390 -88 -3 -40 -181 rlineto
-163 -53 -86 60 165 vvcurveto
175 98 188 131 75 14 -61 -115 -3 vhcurveto
86 1 rlineto
174 9 -43 83 -122 hhcurveto
-184 -153 -221 -239 hvcurveto
return
                    </CharString>
                    <CharString index="33">
                        -4 callgsubr
-70 -31 -81 -22 -67 -9 rlinecurve
-64 callgsubr
21 callsubr
endchar
                    </CharString>
                    <CharString index="34">
                        -41 callgsubr
-52 callsubr
return
                    </CharString>
                    <CharString index="35">
                        -113 127 -62 -48 157 -166 rlineto
return
                    </CharString>
                    <CharString index="36">
                        -230 -85 -118 53 187 vvcurveto
172 101 186 135 78 12 -59 -118 -2 vhcurveto
87 2 rlineto
169 8 -38 88 -126 hhcurveto
return
                    </CharString>
                    <CharString index="37">
                        -88 -39 55 126 25 hvcurveto
86 442 73 callgsubr
-87 -443 return
                    </CharString>
                    <CharString index="38">
                        -85 callgsubr
hintmask 01111110
-9 -87 rlineto
hintmask 10111110
16 callsubr
                    </CharString>
                    <CharString index="39">
                        rmoveto
140 77 124 112 37 31 -13 -25 21 vhcurveto
-267 -302 rlineto
-7 22 -4 25 29 vvcurveto
126 -160 rmoveto
-36 -30 12 23 -21 hvcurveto
266 299 rlineto
6 -21 3 -23 -27 vvcurveto
-142 -77 -121 -111 vhcurveto
-15 -74 rmoveto
-29 callsubr
hvcurveto
hintmask 10011100
51 -10 44 -19 34 vhcurveto
70 78 rlineto
hintmask 01101100
-51 39 -59 -68 rlineto
29 -34 -45 15 -53 hhcurveto
-29 callgsubr
-53 11 -45 20 -34 hvcurveto
-71 -78 rlineto
hintmask 10101100
51 -38 61 67 rlineto
-27 33 44 -14 51 hhcurveto
endchar
                    </CharString>
                    <CharString index="40">
                        -58 624 rmoveto
31 21 -22 -44 -90 -76 -139 -204 -160 hvcurveto
242 9 127 213 92 hhcurveto
return
                    </CharString>
                    <CharString index="41">
                        rmoveto
46 147 -103 -2 -35 -147 rlineto
return
                    </CharString>
                    <CharString index="42">
                        rmoveto
481 hlineto
12 59 rlineto
-481 hlineto
return
                    </CharString>
                    <CharString index="43">
                        91 8 -39 callgsubr
rlinecurve
-129 hlineto
return
                    </CharString>
                    <CharString index="44">
                        98 hlineto
43 130 75 262 71 296 rrcurveto
-89 hlineto
-31 -134 -90 -368 -20 -66 rrcurveto
-4 hlineto
-24 364 rlineto
-56 hlineto
return
                    </CharString>
                    <CharString index="45">
                        87 hlineto
hintmask 10010100
-12 callsubr
hintmask 01001100
-11 callgsubr
hintmask 01100100
101 537 rlineto
6 hlineto
return
                    </CharString>
                    <CharString index="46">
                        rmoveto
73 129 89 133 105 123 13 59 rcurveline
-323 hlineto
-15 -62 rlineto
247 hlineto
1 -3 return
                    </CharString>
                    <CharString index="47">
                        123 -18 -58 68 -116 hhcurveto
-141 -100 -98 -105 hvcurveto
-161 282 -71 -112 vvcurveto
-67 -92 -52 -276 71 vhcurveto
return
                    </CharString>
                    <CharString index="48">
                        rmoveto
-8 47 -231 -77 -37 41 28 120 rlinecurve
63 284 rlineto
211 hlineto
14 70 rlineto
-209 hlineto
35 159 -68 -5 -85 -154 rlineto
-70 hlineto
-18 -70 rlineto
103 hlineto
-65 -289 -41 -178 96 -91 282 143 rlinecurve
return
                    </CharString>
                    <CharString index="49">
                        -102 callsubr
hintmask 11010110
5 callgsubr
hintmask 10111010
-42 callsubr
hintmask 10110110
25 callgsubr
hintmask 10111010
-83 callsubr
                    </CharString>
                    <CharString index="50">
                        -57 callgsubr
hintmask 11101000
-42 callsubr
hintmask 11011000
25 callgsubr
hintmask 11101000
-83 callsubr
                    </CharString>
                    <CharString index="51">
                        43 224 rlineto
hintmask 11010000
-7 callsubr
hintmask 10110000
-22 callgsubr
                    </CharString>
                    <CharString index="52">
                        521 72 -103 callsubr
return
                    </CharString>
                    <CharString index="53">
                        57 55 59 93 55 hvcurveto
-46 26 rlineto
-64 -40 -34 -45 -29 hhcurveto
return
                    </CharString>
                    <CharString index="54">
                        -5 0 -6 -5 vvcurveto
-25 -17 -36 -24 -10 -6 24 -40 rcurveline
7 5 24 15 21 13 return
                    </CharString>
                    <CharString index="55">
                        -79 -68 -55 -39 -49 hhcurveto
-47 -22 36 94 21 hvcurveto
return
                    </CharString>
                    <CharString index="56">
                        -115 50 -56 67 61 80 53 64 64 vhcurveto
return
                    </CharString>
                    <CharString index="57">
                        rmoveto
hintmask 10011000
278 67 91 82 80 69 -73 59 45 vvcurveto
hintmask 11001000
35 39 33 141 8 vhcurveto
13 64 rlineto
hintmask 10101000
-102 12 -46 27 38 59 133 39 97 vvcurveto
72 -79 57 -205 91 vhcurveto
-38 -68 rlineto
161 -70 71 -46 -52 -73 -129 -39 -82 vvcurveto
-37 26 -35 74 -22 vhcurveto
hintmask 11001000
-101 -25 -41 -52 -45 vvcurveto
hintmask 10011000
-55 73 -66 -49 vvcurveto
-55 -88 -44 -214 -42 vhcurveto
endchar
                    </CharString>
                    <CharString index="58">
                        -78 1 -229 -57 6 -47 195 25 -84 -318 return
                    </CharString>
                    <CharString index="59">
                        rmoveto
-48 -37 36 76 126 81 137 109 29 40 -9 -23 43 hvcurveto
-26 -65 -23 -86 -10 -78 rrcurveto
-73 -49 -57 -41 -52 hhcurveto
return
                    </CharString>
                    <CharString index="60">
                        rmoveto
9 hlineto
-66 -341 rlineto
-114 hlineto
56 113 57 115 58 113 rrcurveto
-109 -611 rmoveto
262 hlineto
21 77 rlineto
-187 hlineto
46 238 rlineto
152 hlineto
13 66 rlineto
-152 hlineto
45 230 rlineto
183 hlineto
15 77 rlineto
-328 hlineto
-122 -229 -121 -232 -118 -227 rrcurveto
93 hlineto
34 67 34 67 34 68 rrcurveto
135 hlineto
endchar
                    </CharString>
                    <CharString index="61">
                        rmoveto
46 147 -105 -1 -35 -147 rlineto
return
                    </CharString>
                    <CharString index="62">
                        15 81 -354 -2 454 531 13 78 rlineto
-449 hlineto
-15 -81 347 2 -457 -531 -14 -78 rlineto
endchar
                    </CharString>
                    <CharString index="63">
                        -40 -130 -39 -79 -58 -96 -5 -49 rcurveline
225 hlineto
return
                    </CharString>
                    <CharString index="64">
                        rmoveto
4 -83 -3 -77 -58 -100 39 -17 rcurveline
82 96 33 90 5 96 rrcurveto
return
                    </CharString>
                    <CharString index="65">
                        -107 -63 -24 -39 -42 vvcurveto
-60 58 -40 89 vhcurveto
return
                    </CharString>
                    <CharString index="66">
                        15 callsubr
hintmask 10111000
-86 callsubr
                    </CharString>
                    <CharString index="67">
                        72 callsubr
205 70 331 80 return
                    </CharString>
                    <CharString index="68">
                        -75 callsubr
hintmask 01111100
3 callgsubr
endchar
                    </CharString>
                    <CharString index="69">
                        -19 -124 48 -42 161 95 rrcurveto
endchar
                    </CharString>
                    <CharString index="70">
                        -288 -94 callsubr
                    </CharString>
                    <CharString index="71">
                        rmoveto
229 60 80 128 119 vvcurveto
104 -68 51 -89 -98 -76 -63 -94 return
                    </CharString>
                    <CharString index="72">
                        rmoveto
-32 callgsubr
return
                    </CharString>
                    <CharString index="73">
                        630 93 callgsubr
-30 -20 hstemhm
87 464 hintmask 10110000
402 699 rmoveto
hintmask 11010000
-78 callsubr
hintmask 10110000
-54 callsubr
endchar
                    </CharString>
                    <CharString index="74">
                        763 -97 callgsubr
return
                    </CharString>
                    <CharString index="75">
                        -18 callgsubr
-112 -163 -65 callsubr
return
                    </CharString>
                    <CharString index="76">
                        71 71 62 35 47 hhcurveto
37 17 -22 -40 hvcurveto
-89 -71 -181 -85 vvcurveto
return
                    </CharString>
                    <CharString index="77">
                        -115 135 -44 116 86 vhcurveto
-22 -67 -66 -69 -157 -36 rrcurveto
return
                    </CharString>
                    <CharString index="78">
                        165 128 156 193 return
                    </CharString>
                    <CharString index="79">
                        49 -82 84 -71 -60 vvcurveto
-51 -54 -34 -239 20 vhcurveto
-2 -82 rlineto
return
                    </CharString>
                    <CharString index="80">
                        19 callsubr
hintmask 01110000
-133 -686 rlineto
hintmask 10110000
20 callgsubr
-92 -9 rmoveto
20 callsubr
105 544 32 callgsubr
endchar
                    </CharString>
                    <CharString index="81">
                        131 6 -47 55 -103 hhcurveto
-176 -151 -172 -190 return
                    </CharString>
                    <CharString index="82">
                        886 -43 callsubr
return
                    </CharString>
                    <CharString index="83">
                        529 612 -106 callsubr
return
                    </CharString>
                    <CharString index="84">
                        73 35 34 42 37 hhcurveto
38 24 -41 -104 -7 hvcurveto
return
                    </CharString>
                    <CharString index="85">
                        84 hlineto
70 201 51 163 48 179 rrcurveto
-93 hlineto
return
                    </CharString>
                    <CharString index="86">
                        59 104 -51 callgsubr
return
                    </CharString>
                    <CharString index="87">
                        rmoveto
-12 46 rlineto
-79 -32 -14 7 31 vvcurveto
return
                    </CharString>
                    <CharString index="88">
                        0 79 234 69 228 78 return
                    </CharString>
                    <CharString index="89">
                        92 callgsubr
190 -21 hstem
164 82 vstem
424 38 rmoveto
-187 -64 -73 -69 -61 22 callsubr
8 callsubr
endchar
                    </CharString>
                    <CharString index="90">
                        5 -28 -27 2 -24 hhcurveto
-194 -132 -188 -200 -120 52 -61 69 61 77 50 62 62 hvcurveto
return
                    </CharString>
                    <CharString index="91">
                        rmoveto
-296 -201 -117 -170 -185 vvcurveto
-137 66 -148 164 -180 vhcurveto
69 51 rlineto
-152 161 -61 131 123 vvcurveto
162 93 149 282 182 vhcurveto
endchar
                    </CharString>
                    <CharString index="92">
                        rmoveto
297 201 117 170 185 vvcurveto
137 -67 148 -163 179 vhcurveto
-69 -50 rlineto
152 -162 60 -130 -123 vvcurveto
-162 -93 -149 -282 -183 vhcurveto
endchar
                    </CharString>
                    <CharString index="93">
                        62 73 189 109 vvcurveto
58 -25 46 -70 return
                    </CharString>
                    <CharString index="94">
                        -12 84 -83 79 412 75 return
                    </CharString>
                    <CharString index="95">
                        24 callsubr
-86 hlineto
-100 -527 rlineto
-5 hlineto
return
                    </CharString>
                    <CharString index="96">
                        -192 84 -81 81 139 80 435 -20 29 -20 return
                    </CharString>
                    <CharString index="97">
                        hintmask 10011000
443 -7 rmoveto
hintmask 00111000
98 13 -195 339 309 343 rlineto
-100 hlineto
-311 -342 rlineto
-49 342 rmoveto
hintmask 01011000
-134 -688 rlineto
92 hlineto
24 callsubr
return
                    </CharString>
                    <CharString index="98">
                        rmoveto
212 hlineto
15 79 rlineto
-516 hlineto
-15 -79 rlineto
211 hlineto
-118 -609 rlineto
93 hlineto
return
                    </CharString>
                    <CharString index="99">
                        0 8 -2 3 -4 -4 -2 -3 44 callsubr
0 -9 2 -3 4 4 2 3 44 callsubr
return
                    </CharString>
                    <CharString index="100">
                        317 464 rlineto
-99 hlineto
-244 -370 rlineto
return
                    </CharString>
                    <CharString index="101">
                        rlineto
hintmask 10101111
-17 callsubr
hintmask 01011111
45 callsubr
                    </CharString>
                    <CharString index="102">
                        -19 callgsubr
-1 callsubr
return
                    </CharString>
                    <CharString index="103">
                        58 callgsubr
58 callsubr
hintmask 11010000
return
                    </CharString>
                    <CharString index="104">
                        -244 56 209 -21 22 -21 153 61 return
                    </CharString>
                    <CharString index="105">
                        619 214 hstem
120 388 vstem
447 619 -97 callgsubr
endchar
                    </CharString>
                    <CharString index="106">
                        hstem
75 87 312 85 vstem
return
                    </CharString>
                    <CharString index="107">
                        hstem
66 90 313 90 vstem
return
                    </CharString>
                    <CharString index="108">
                        775 -20 hstem
185 303 vstem
185 659 -107 callgsubr
endchar
                    </CharString>
                    <CharString index="109">
                        -3 callsubr
94 59 return
                    </CharString>
                    <CharString index="110">
                        258 -14 114 44 35 69 rrcurveto
endchar
                    </CharString>
                    <CharString index="111">
                        -19 callsubr
hstem
71 return
                    </CharString>
                    <CharString index="112">
                        80 callgsubr
232 84 return
                    </CharString>
                    <CharString index="113">
                        -77 417 rmoveto
28 13 -19 -33 -66 -56 -83 -118 -21 hvcurveto
112 19 53 110 61 hhcurveto
-329 -408 rmoveto
-26 -13 29 58 hvcurveto
return
                    </CharString>
                    <CharString index="114">
                        634.5 44 callgsubr
hstem
249 140 vstem
343 635 -46 callsubr
endchar
                    </CharString>
                    <CharString index="115">
                        23 callsubr
37 vvcurveto
38 59 46 146 47 vhcurveto
return
                    </CharString>
                    <CharString index="116">
                        25 callsubr
0 callsubr
return
                    </CharString>
                    <CharString index="117">
                        -74 64 -24 134 83 vhcurveto
return
                    </CharString>
                    <CharString index="118">
                        101 14 -195 216 rlineto
159 88 63 83 71 vvcurveto
55 -37 37 -65 -71 -87 -44 -87 -85 vhcurveto
69 355 -90 -7 rlineto
return
                    </CharString>
                    <CharString index="119">
                        33 callsubr
52 callsubr
return
                    </CharString>
                    <CharString index="120">
                        92 callsubr
209 90 return
                    </CharString>
                    <CharString index="121">
                        96 callsubr
-114 -43 -46 19 36 vvcurveto
return
                    </CharString>
                    <CharString index="122">
                        rmoveto
-22 callsubr
return
                    </CharString>
                    <CharString index="123">
                        264 -15 121 44 35 70 rrcurveto
endchar
                    </CharString>
                    <CharString index="124">
                        90.5 147 return
                    </CharString>
                    <CharString index="125">
                        rmoveto
-345 hlineto
-15 -72 rlineto
257 hlineto
-159 -824 rlineto
-257 hlineto
-15 -72 rlineto
345 hlineto
endchar
                    </CharString>
                    <CharString index="126">
                        rmoveto
215 -140 88 -260 -43 vhcurveto
return
                    </CharString>
                    <CharString index="127">
                        -195 -109 -168 -226 19 vhcurveto
return
                    </CharString>
                    <CharString index="128">
                        -189 -440 78 -82 242 107 rrcurveto
return
                    </CharString>
                    <CharString index="129">
                        vvcurveto
-69 87 43 callgsubr
return
                    </CharString>
                    <CharString index="130">
                        -11 43 rlineto
-115 -43 -45 19 return
                    </CharString>
                    <CharString index="131">
                        133 688 rlineto
return
                    </CharString>
                    <CharString index="132">
                        -13 75 422 74 return
                    </CharString>
                    <CharString index="133">
                        673 75 hstem
124 382 vstem
506 748 -48 callgsubr
endchar
                    </CharString>
                    <CharString index="134">
                        25 -38 -40 13 -41 hhcurveto
-145 -112 -211 -205 -97 32 -46 53 56 52 42 56 47 hvcurveto
return
                    </CharString>
                    <CharString index="135">
                        -10 71 491 -20 hstem
148 154 32 91 vstem
return
                    </CharString>
                    <CharString index="136">
                        21 callgsubr
492 92 return
                    </CharString>
                    <CharString index="137">
                        -9 81 551 78 hstem
143 93 189 94 vstem
return
                    </CharString>
                    <CharString index="138">
                        rmoveto
40 callsubr
40 callgsubr
return
                    </CharString>
                    <CharString index="139">
                        -11 79 477 -20 return
                    </CharString>
                    <CharString index="140">
                        -16 47 callsubr
return
                    </CharString>
                    <CharString index="141">
                        rmoveto
65 61 -199 230 303 225 -51 70 -308 -242 -23 -92 rlineto
endchar
                    </CharString>
                    <CharString index="142">
                        92 -116 96 -35 85 vhcurveto
return
                    </CharString>
                    <CharString index="143">
                        rmoveto
38 callsubr
                    </CharString>
                    <CharString index="144">
                        147 65 173 84 21 28 -7 -23 30 vhcurveto
-52 -76 -33 -108 -108 vvcurveto
return
                    </CharString>
                    <CharString index="145">
                        -36 callgsubr
endchar
                    </CharString>
                    <CharString index="146">
                        hmoveto
29 134 rlineto
-107 hlineto
-29 -134 rlineto
return
                    </CharString>
                    <CharString index="147">
                        0 9 7 6 9 9 7 -6 44 callsubr
return
                    </CharString>
                    <CharString index="148">
                        88 hstem
145 90 280 84 return
                    </CharString>
                    <CharString index="149">
                        hstem
196 92 vstem
return
                    </CharString>
                    <CharString index="150">
                        62 316 66 hstem
return
                    </CharString>
                    <CharString index="151">
                        0 hflex1
return
                    </CharString>
                    <CharString index="152">
                        -11 -110 46 -42 163 94 rrcurveto
endchar
                    </CharString>
                    <CharString index="153">
                        51 callsubr
251 -20 hstemhm
62 88 233 86 return
                    </CharString>
                    <CharString index="154">
                        81 623 -20 return
                    </CharString>
                    <CharString index="155">
                        -13 74 -41 -21 486 73 -15 -20 hstemhm
66 89 314 90 hintmask 10101100
return
                    </CharString>
                    <CharString index="156">
                        hintmask 000000000000000100000010000000000000000000000000
return
                    </CharString>
                    <CharString index="157">
                        -12 79 -63 63 554 82 return
                    </CharString>
                    <CharString index="158">
                        -12 84 -82 77 416 74 -7 -20 return
                    </CharString>
                    <CharString index="159">
                        hstem
85 94 vstem
return
                    </CharString>
                    <CharString index="160">
                        241 231 -56 57 -235 -236 -22 -92 rlineto
endchar
                    </CharString>
                    <CharString index="161">
                        587 426 19 callsubr
return
                    </CharString>
                    <CharString index="162">
                        419 638 rmoveto
44 148 -102 -5 -35 -148 rlineto
return
                    </CharString>
                    <CharString index="163">
                        rmoveto
26 131 97 callsubr
return
                    </CharString>
                    <CharString index="164">
                        hstemhm
84 90 240 76 return
                    </CharString>
                    <CharString index="165">
                        hstemhm
80 88 -88 572 return
                    </CharString>
                    <CharString index="166">
                        61 337 61 hstem
return
                    </CharString>
                    <CharString index="167">
                        69 195 67 return
                    </CharString>
                    <CharString index="168">
                        147 hstemhm
return
                    </CharString>
                    <CharString index="169">
                        578 41 -20 callsubr
return
                    </CharString>
                    <CharString index="170">
                        36 callgsubr
468 82 85 callgsubr
return
                    </CharString>
                    <CharString index="171">
                        138 rlinecurve
return
                    </CharString>
                    <CharString index="172">
                        102 220 rlineto
3 hlineto
-55 -280 rlineto
59 hlineto
return
                    </CharString>
                    <CharString index="173">
                        0 77 125 68 45 66 230 77 hstem
-17 return
                    </CharString>
                    <CharString index="174">
                        -9 74 631 41 callsubr
return
                    </CharString>
                    <CharString index="175">
                        hintmask 100000000000000000000000000000001000000000000000
return
                    </CharString>
                    <CharString index="176">
                        hstem
84 89 300 82 vstem
return
                    </CharString>
                    <CharString index="177">
                        53 callgsubr
444 hlineto
return
                    </CharString>
                    <CharString index="178">
                        -20 24 -20 hstemhm
return
                    </CharString>
                    <CharString index="179">
                        -21 25 -21 return
                    </CharString>
                    <CharString index="180">
                        52 callgsubr
104 59 return
                    </CharString>
                    <CharString index="181">
                        -36 22 -118 -97 -55 -95 -4 -137 rlinecurve
return
                    </CharString>
                    <CharString index="182">
                        -174 -21 183 74 -46 -21 479 83 return
                    </CharString>
                    <CharString index="183">
                        -12 77 415 77 return
                    </CharString>
                    <CharString index="184">
                        hstemhm
123 544 return
                    </CharString>
                    <CharString index="185">
                        60 callsubr
vstem
return
                    </CharString>
                    <CharString index="186">
                        -21 28 -21 return
                    </CharString>
                    <CharString index="187">
                        -77 86 -116 -179 -135 -218 return
                    </CharString>
                    <CharString index="188">
                        14 -21 28 98 callgsubr
682 -20 hstemhm
return
                    </CharString>
                    <CharString index="189">
                        77 -86 116 178 136 219 return
                    </CharString>
                    <CharString index="190">
                        21 -21 609 79 hstem
return
                    </CharString>
                    <CharString index="191">
                        -20 109.5 return
                    </CharString>
                    <CharString index="192">
                        rmoveto
131 return
                    </CharString>
                    <CharString index="193">
                        83 -41 86 -55 83 15 90 hintmask 10101000
return
                    </CharString>
                    <CharString index="194">
                        rmoveto
21 105 rlineto
-101 hlineto
-22 -105 rlineto
return
                    </CharString>
                    <CharString index="195">
                        76 170 76 hstem
71 507 vstem
return
                    </CharString>
                    <CharString index="196">
                        -8 76 -75 80 407 72 -71 74 return
                    </CharString>
                    <CharString index="197">
                        -69 88 43 callgsubr
endchar
                    </CharString>
                    <CharString index="198">
                        18 61 rlineto
return
                    </CharString>
                    <CharString index="199">
                        hstemhm
90 90 return
                    </CharString>
                    <CharString index="200">
                        vhcurveto
hintmask 01110000
-11 -85 rlineto
hintmask 10110000
return
                    </CharString>
                    <CharString index="201">
                        hlineto
124 622 rlineto
51 1 return
                    </CharString>
                    <CharString index="202">
                        63 318 61 hstem
return
                    </CharString>
                    <CharString index="203">
                        rmoveto
-11 43 rlineto
return
                    </CharString>
                    <CharString index="204">
                        rlineto
-124 hlineto
return
                    </CharString>
                    <CharString index="205" fingerprint="c3284665">
                        rlineto
169 return
                    </CharString>
                <CharString name=".notdef">
                    -107 -200 50 900 50 hstem
0.5 54 432 54 vstem
8 -200 rmoveto
540 hlineto
-15 1000 rlineto
-540 hlineto
77 -50 rmoveto
387 hlineto
-188 -390 rlineto
212 316 rmoveto
11 -752 -191 376 rlineto
-241 -376 rmoveto
-11 752 191 -376 rlineto
31 -60 rmoveto
200 -390 rlineto
-387 hlineto
endchar
                </CharString>
                <CharString name="A">
                    -21 callgsubr
527 hintmask 10011100
439 -4 -101 callsubr
                </CharString>
                <CharString name="AE">
                    66 callsubr
689 vstem
383 611 -47 callsubr
                </CharString>
                <CharString name="AEacute">
                    66 callsubr
702 vstem
382 -66 callgsubr
1 -192 -47 callsubr
                </CharString>
                <CharString name="Aacute">
                    -21 callgsubr
582 hintmask 00111100
282 805 -107 callgsubr
hintmask 10011100
157 -809 -101 callsubr
                </CharString>
                <CharString name="Abreve">
                    -52 callgsubr
83 71 hstemhm
3 651 hintmask 00111110
602 965 -101 callgsubr
hintmask 10011110
-215 -937 -77 callgsubr
                </CharString>
                <CharString name="Acircumflex">
                    -21 callgsubr
615 hintmask 00111100
557 765 -97 callgsubr
hintmask 10011100
-5 -896 -101 callsubr
                </CharString>
                <CharString name="Adieresis">
                    -52 callgsubr
-38 callgsubr
3 617 hintmask 00111011
574 783 -66 callsubr
hintmask 10011101
-77 callsubr
196 -783 rmoveto
hintmask 00111101
-64 callsubr
hintmask 01011101
-87 callsubr
hintmask 10011101
-12 callgsubr
hintmask 00111101
-92 callgsubr
                </CharString>
                <CharString name="Agrave">
                    -21 callgsubr
549 hintmask 00111100
552 797 -89 callsubr
hintmask 10011100
-91 -763 -101 callsubr
                </CharString>
                <CharString name="Amacron">
                    -52 callgsubr
129 75 hstemhm
3 620 hintmask 00111110
623 894 -48 callgsubr
hintmask 10011110
-170 -823 -77 callgsubr
                </CharString>
                <CharString name="Aogonek">
                    92 callgsubr
189 -40 callsubr
hstemhm
242 83 hintmask 10111100
496 55 callgsubr
58 48 146 48 vhcurveto
1 hlineto
-39 callgsubr
rrcurveto
-129 hlineto
hintmask 11011100
-87 callsubr
5 -65 5 -64 5 -64 rrcurveto
-140 -57 -56 -62 -54 vvcurveto
hintmask 10111100
1 -68 87 -45 166 84 rrcurveto
-115 796 -92 callsubr
                </CharString>
                <CharString name="Aring">
                    -52 callgsubr
64 233 hstemhm
3 578 hintmask 00111110
443 987 -61 callgsubr
hintmask 10011110
-4 -991 -77 callgsubr
                </CharString>
                <CharString name="Aringacute">
                    -21 callgsubr
648 hintmask 00111100
348 1067 -107 callgsubr
95 -80 -61 callgsubr
hintmask 10011100
-4 -991 -101 callsubr
                </CharString>
                <CharString name="Atilde">
                    -52 callgsubr
86 93 callgsubr
hstemhm
3 663 hintmask 00111111
517 845 -84 callsubr
hintmask 10011111
-78 -849 rmoveto
hintmask 00111111
-64 callsubr
hintmask 01011111
-87 callsubr
hintmask 10011111
-12 callgsubr
hintmask 00111111
-92 callgsubr
                </CharString>
                <CharString name="B">
                    -8 78 -49 -21 315 56 251 74 hstemhm
459 90 -55 89 hintmask 10011000
549 209 rmoveto
72 -55 55 -85 20 vhcurveto
hintmask 01010100
109 35 65 70 84 vvcurveto
105 -114 76 -275 -41 vhcurveto
-132 -685 rlineto
hintmask 10011000
356 -42 131 126 125 vvcurveto
hintmask 10110100
-55 316 rmoveto
-77 -79 -68 -190 -9 vhcurveto
48 247 rlineto
149 17 72 -43 -67 vvcurveto
hintmask 10111000
-35 -323 rmoveto
-83 -90 -67 -201 23 vhcurveto
47 240 rlineto
172 12 72 -50 -75 vvcurveto
endchar
                </CharString>
                <CharString name="C">
                    35 callgsubr
426 703 -76 callgsubr
                </CharString>
                <CharString name="Cacute">
                    35 callgsubr
289 817 -107 callgsubr
137 -114 -76 callgsubr
                </CharString>
                <CharString name="Ccaron">
                    35 callgsubr
419 774 -89 callgsubr
11 -71 -76 callgsubr
                </CharString>
                <CharString name="Ccedilla">
                    -58 127 -83 83 -50 -21 623 82 hstemhm
79 92 149 79 96 87 hintmask 01011110
399 -201 rmoveto
6 96 -24 61 -39 30 50 3 56 13 62 22 9 84 rcurveline
-71 callsubr
22 callgsubr
hvcurveto
hintmask 00111110
-133 53 -86 97 -30 vhcurveto
-44 -21 -38 -51 -35 -83 2 callgsubr
                </CharString>
                <CharString name="Cdotaccent">
                    -15 84 552 82 89.5 147 hstem
79 92 324 87 vstem
463 793 -46 callsubr
57 -89 -76 callgsubr
                </CharString>
                <CharString name="D">
                    75 callgsubr
hintmask 10110000
587 426 -27 callsubr
                </CharString>
                <CharString name="Dcaron">
                    75 callgsubr
hintmask 01110000
420 768 -89 callgsubr
hintmask 10110000
171 -342 -27 callsubr
                </CharString>
                <CharString name="Dcroat">
                    -55 callgsubr
                </CharString>
                <CharString name="E">
                    29 callgsubr
500 79 -99 callgsubr
                </CharString>
                <CharString name="Eacute">
                    29 callgsubr
293 -66 callgsubr
207 -724 -99 callgsubr
                </CharString>
                <CharString name="Ebreve">
                    -19 callsubr
83 71 hstem
71 595 vstem
614 963 -101 callgsubr
-166 -852 -99 callgsubr
                </CharString>
                <CharString name="Ecaron">
                    4 callsubr
581 vstem
423 760 -89 callgsubr
81 -681 -99 callgsubr
                </CharString>
                <CharString name="Ecircumflex">
                    4 callsubr
558 vstem
568 -33 callsubr
45 -811 -99 callgsubr
                </CharString>
                <CharString name="Edieresis">
                    -19 callsubr
-38 callgsubr
71 561 hintmask 11101100
586 67 callgsubr
hintmask 11110100
-77 callsubr
245 -698 -99 callgsubr
                </CharString>
                <CharString name="Edotaccent">
                    -19 callsubr
42 callgsubr
71 544 vstem
467 779 -46 callsubr
127 -699 -99 callgsubr
                </CharString>
                <CharString name="Egrave">
                    29 callgsubr
563 -26 callgsubr
-41 -678 -99 callgsubr
                </CharString>
                <CharString name="Emacron">
                    -19 callsubr
129 75 hstem
71 563 vstem
634 892 -48 callgsubr
-120 -738 -99 callgsubr
                </CharString>
                <CharString name="Eogonek">
                    -233 64 169 79 234 69 228 78 hstem
192 82 vstem
445 -187 rmoveto
8 callsubr
21 79 rlineto
-98 callsubr
286 hlineto
-117 -53 -48 -55 -49 22 callsubr
endchar
                </CharString>
                <CharString name="Eth">
                    -55 callgsubr
                </CharString>
                <CharString name="Euro">
                    -14 77 148 69 -61 63 104 62 179 76 hstemhm
124 85 327 83 hintmask 10111110
532 38 rmoveto
-10 55 -203 -65 -96 38 -13 153 rlinecurve
234 hlineto
15 63 rlineto
-250 hlineto
2 35 5 35 10 34 rrcurveto
254 hlineto
15 62 rlineto
-249 hlineto
100 42 71 79 85 hhcurveto
69 18 -45 -80 5 hvcurveto
83 13 rlineto
126 -6 -45 62 -104 hhcurveto
-129 -113 -106 -143 -58 hvcurveto
-79 hlineto
-14 -68 rlineto
71 hlineto
hintmask 11011110
-9 -34 -6 -36 -3 -36 rrcurveto
-72 hlineto
-14 -69 rlineto
86 hlineto
hintmask 10111110
13 -195 136 -97 259 119 rrcurveto
endchar
                </CharString>
                <CharString name="F">
                    21 -21 297 71 241 79 hstem
73 556 vstem
503 297 rmoveto
14 71 rlineto
-281 hlineto
47 241 rlineto
332 hlineto
14 79 rlineto
-423 -34 callgsubr
92 hlineto
58 297 rlineto
endchar
                </CharString>
                <CharString name="G">
                    50 callsubr
hstemhm
78 92 315 86 hintmask 10111000
455 -120 -75 callsubr
hintmask 01111000
3 callgsubr
endchar
                </CharString>
                <CharString name="Gbreve">
                    50 callsubr
82 71 hstemhm
78 92 315 86 hintmask 10111100
602 977 -101 callgsubr
-199 -1065 -39 callsubr
                </CharString>
                <CharString name="Gcommaaccent">
                    50 callsubr
hstemhm
78 92 5 110 200 86 hintmask 10110100
455 -120 -75 callsubr
hintmask 01110100
3 callgsubr
hintmask 10101100
-245 -272 -94 callsubr
                </CharString>
                <CharString name="Gdotaccent">
                    50 callsubr
89.5 61 callsubr
78 92 315 86 hintmask 10111100
456 793 -46 callsubr
93 -912 -39 callsubr
                </CharString>
                <CharString name="H">
                    21 -21 312 73 303 -20 hstem
50 569 vstem
393 hmoveto
93 hlineto
24 callsubr
-93 hlineto
-59 -303 rlineto
-249 hlineto
59 303 rlineto
-94 -34 callgsubr
93 hlineto
61 312 rlineto
249 hlineto
endchar
                </CharString>
                <CharString name="Hbar">
                    21 -21 297 72 123 66 -63 60 -60 193 hstemhm
50 621 hintmask 11010100
464 369 rmoveto
-249 hlineto
24 126 rlineto
250 hlineto
-96 -495 rmoveto
93 hlineto
hintmask 11100100
95 492 rlineto
78 hlineto
12 66 rlineto
-77 hlineto
hintmask 11001100
25 130 rlineto
-93 hlineto
hintmask 11010100
-26 -133 rlineto
-249 hlineto
hintmask 11001100
26 133 rlineto
-94 hlineto
hintmask 11100100
-25 -130 rlineto
-78 hlineto
-13 -66 rlineto
78 hlineto
-95 -492 rlineto
93 hlineto
58 297 rlineto
249 hlineto
endchar
                </CharString>
                <CharString name="I">
                    47 callgsubr
315 74 -91 callgsubr
                </CharString>
                <CharString name="Iacute">
                    47 callgsubr
272 -66 callgsubr
43 -729 -91 callgsubr
                </CharString>
                <CharString name="Ibreve">
                    33 callgsubr
83 71 hstem
47 597 vstem
592 963 -101 callgsubr
-329 -857 -91 callgsubr
                </CharString>
                <CharString name="Icircumflex">
                    33 callgsubr
hstem
47 561 vstem
547 -33 callsubr
-119 -816 -91 callgsubr
                </CharString>
                <CharString name="Idieresis">
                    33 callgsubr
-38 callgsubr
47 563 hintmask 11011000
564 781 -17 callgsubr
82 -703 -91 callgsubr
                </CharString>
                <CharString name="Idotaccent">
                    33 callgsubr
42 callgsubr
47 548 vstem
445 779 -46 callsubr
-36 -704 -91 callgsubr
                </CharString>
                <CharString name="Igrave">
                    47 callgsubr
541 -26 callgsubr
-204 -683 -91 callgsubr
                </CharString>
                <CharString name="Imacron">
                    33 callgsubr
129 75 hstem
47 565 vstem
612 892 -48 callgsubr
-283 -743 -91 callgsubr
                </CharString>
                <CharString name="Iogonek">
                    92 callgsubr
168 74 541 73 hstem
98 83 vstem
352 55 callgsubr
38 45 92 47 vhcurveto
153 hlineto
18 74 rlineto
-167 hlineto
-86 callgsubr
169 hlineto
-83 -53 -35 -54 -49 vvcurveto
-69 87 -45 167 84 vhcurveto
endchar
                </CharString>
                <CharString name="J">
                    -12 84 543 73 hstem
51 503 vstem
400 56 rmoveto
29 29 16 38 37 191 72 374 rcurveline
-318 hlineto
-15 -73 rlineto
227 hlineto
-62 -312 -28 -143 -10 -35 -21 -20 rlinecurve
-30 -31 -59 -4 -173 2 -14 -84 rcurveline
209 -2 93 23 47 47 rrcurveto
endchar
                </CharString>
                <CharString name="K">
                    81 callsubr
61 594 -10 callsubr
endchar
                </CharString>
                <CharString name="Kcommaaccent">
                    81 callsubr
232 110 -10 callsubr
-102 -983 -94 callsubr
                </CharString>
                <CharString name="L">
                    59 callgsubr
hstem
75 444 -7 callgsubr
endchar
                </CharString>
                <CharString name="Lacute">
                    59 callgsubr
hstem
75 533 vstem
305 -66 callgsubr
197 -803 36 callsubr
                </CharString>
                <CharString name="Lcaron">
                    59 callgsubr
109 -20 hstem
533 102 vstem
533 772 -43 callsubr
-133 -777 36 callsubr
                </CharString>
                <CharString name="Lcommaaccent">
                    59 callgsubr
hstem
221 110 -7 callgsubr
98 -37 callsubr
                </CharString>
                <CharString name="Ldot">
                    0 79 216 121 272 -20 hstem
75 486 -7 callgsubr
457 295 rmoveto
29 121 rlineto
-103 hlineto
-29 -121 rlineto
endchar
                </CharString>
                <CharString name="Lslash">
                    59 callgsubr
hstem
67 467 vstem
517 hmoveto
17 79 rlineto
-336 hlineto
57 295 185 87 -3 63 -168 -79 47 243 rlineto
-93 hlineto
-56 -290 -100 -47 3 -64 83 39 -63 -326 rlineto
endchar
                </CharString>
                <CharString name="M">
                    21 -21 121 115 452 -20 23 -20 hstemhm
43 592 hintmask 11011000
279 691 rmoveto
-104 -5 -132 -686 rlineto
85 hlineto
99 536 rlineto
3 hlineto
31 -415 rlineto
59 hlineto
198 415 rlineto
4 hlineto
-108 -536 rlineto
88 hlineto
hintmask 11101000
24 callsubr
-109 hlineto
-211 -452 rlineto
-3 hlineto
endchar
                </CharString>
                <CharString name="N">
                    -20 callgsubr
hstemhm
51 570 hintmask 01001100
401 hmoveto
-62 callsubr
endchar
                </CharString>
                <CharString name="Nacute">
                    -20 callgsubr
hstemhm
51 570 hintmask 01001100
285 804 -107 callgsubr
116 -804 rmoveto
-62 callsubr
endchar
                </CharString>
                <CharString name="Ncaron">
                    -20 callgsubr
hstemhm
51 593 hintmask 01001100
415 761 -89 callgsubr
-10 -761 rmoveto
-62 callsubr
endchar
                </CharString>
                <CharString name="Ncommaaccent">
                    -20 callgsubr
hstemhm
202 110 hintmask 01001100
401 hmoveto
-62 callsubr
-90 -825 -94 callsubr
                </CharString>
                <CharString name="Ntilde">
                    -20 callgsubr
105 93 callgsubr
hstemhm
51 619 hintmask 01001111
521 844 -84 callsubr
-120 -844 rmoveto
87 hlineto
hintmask 10010111
-12 callsubr
hintmask 01001111
-11 callgsubr
hintmask 01100111
101 537 rlineto
6 hlineto
endchar
                </CharString>
                <CharString name="O">
                    -6 callgsubr
596 443 -106 callgsubr
                </CharString>
                <CharString name="OE">
                    0 77 238 66 230 77 hstem
65 92 vstem
157 234 rmoveto
109 48 264 184 4 vhcurveto
-104 -534 rlineto
-82 2 -46 45 110 vvcurveto
396 -157 rmoveto
-185 hlineto
46 238 rlineto
150 hlineto
13 66 rlineto
-150 hlineto
44 230 rlineto
183 hlineto
14 77 rlineto
-224 hlineto
-302 -77 -298 -160 -178 96 -52 140 hvcurveto
231 hlineto
endchar
                </CharString>
                <CharString name="Oacute">
                    -6 callgsubr
286 818 -107 callgsubr
310 -375 -106 callgsubr
                </CharString>
                <CharString name="Obreve">
                    26 callgsubr
84 71 0 callgsubr
607 978 -101 callgsubr
-63 -503 -106 callgsubr
                </CharString>
                <CharString name="Ocircumflex">
                    -6 callgsubr
562 778 -97 callgsubr
147 -462 -106 callgsubr
                </CharString>
                <CharString name="Odieresis">
                    26 callgsubr
90.5 -46 callgsubr
73 95 333 95 hintmask 11011100
579 796 -66 callsubr
hintmask 11101100
-77 callsubr
348 -349 -106 callgsubr
                </CharString>
                <CharString name="Ograve">
                    -6 callgsubr
556 810 -89 callsubr
62 -329 -106 callgsubr
                </CharString>
                <CharString name="Ohungarumlaut">
                    -6 callgsubr
289 780 -81 callsubr
113 -367 -106 callgsubr
                </CharString>
                <CharString name="Omacron">
                    26 callgsubr
130 75 0 callgsubr
627 907 -48 callgsubr
-17 -389 -106 callgsubr
                </CharString>
                <CharString name="Omega">
                    0 74 547 81 hstem
104 81 298 90 vstem
216 6 rmoveto
-19 91 -12 78 118 vvcurveto
193 62 135 115 77 44 -54 -98 -111 -53 -149 -114 -203 vhcurveto
1 -6 rlineto
201 hlineto
14 74 rlineto
-107 hlineto
100 160 48 138 113 vvcurveto
135 -71 82 -125 -180 -93 -159 -224 -82 13 -78 22 -85 vhcurveto
-113 31 callgsubr
201 hlineto
endchar
                </CharString>
                <CharString name="Oslash">
                    48 callgsubr
170 256 -68 callgsubr
                </CharString>
                <CharString name="Oslashacute">
                    48 callgsubr
286 818 -107 callgsubr
-116 -562 -68 callgsubr
                </CharString>
                <CharString name="Otilde">
                    26 callgsubr
87 93 callgsubr
0 callgsubr
522 858 -84 callsubr
74 -415 -106 callgsubr
                </CharString>
                <CharString name="P">
                    21 -21 617 77 hstem
518 90 vstem
156 hmoveto
43 220 rlineto
258 25 151 105 157 vvcurveto
128 -117 90 -294 -40 vhcurveto
-133 -685 rlineto
454 492 rmoveto
-113 -106 -77 -197 3 vhcurveto
60 308 rlineto
166 20 77 -54 -87 vvcurveto
endchar
                </CharString>
                <CharString name="Q">
                    7 -21 639 78 hstem
88 92 324 95 vstem
467 -154 rmoveto
39 76 -234 102 rlineto
184 92 143 169 186 vvcurveto
137 -71 95 -139 -231 -141 -275 -303 108 vhcurveto
80 29 rlineto
276 -74 99 195 143 hhcurveto
84 47 -57 -103 -165 -135 -169 -196 -79 hvcurveto
-23 -66 rlineto
endchar
                </CharString>
                <CharString name="R">
                    29 callsubr
hintmask 10011000
450 -7 -60 callgsubr
                </CharString>
                <CharString name="R_p">
                    -174 79 callsubr
180 75 -49 -21 24 98 callgsubr
475 76 -10 -20 30 -20 85 71 hstemhm
295 75 187 75 hintmask 0110000011110000
216 -6 rmoveto
hintmask 0100010011110000
76 12 -54 298 rlineto
83 84 49 79 93 vvcurveto
97 -62 52 -151 -21 vhcurveto
hintmask 0100100011110000
-134 -688 rlineto
73 94 callsubr
24 -26 -54 87 callgsubr
hintmask 0110001001110000
273 -240 rmoveto
-10 -12 3 7 -14 hvcurveto
30 157 32 168 9 52 rrcurveto
18 20 17 9 15 hhcurveto
20 10 -24 -45 -127 -59 -218 -58 hvcurveto
-87 -255 rmoveto
hintmask 0101000011110000
8 43 13 67 15 75 rrcurveto
hintmask 0110000011110000
-3 12 12 -2 10 hhcurveto
120 89 242 199 87 -23 37 -37 -29 -32 -21 -31 -29 hvcurveto
hintmask 1010000101110000
6 42 -71 -5 -19 -116 -77 -398 -43 -223 rlinecurve
endchar
                </CharString>
                <CharString name="Racute">
                    29 callsubr
hintmask 00111000
268 810 -107 callgsubr
hintmask 10011000
182 -817 -60 callgsubr
                </CharString>
                <CharString name="Rcaron">
                    29 callsubr
hintmask 00111000
398 767 -89 callgsubr
hintmask 10011000
56 -774 -60 callgsubr
                </CharString>
                <CharString name="Rcommaaccent">
                    21 callgsubr
213 110 169 92 hintmask 10011100
450 -7 rmoveto
hintmask 00111100
-31 callgsubr
hintmask 01011100
-44 callgsubr
-107 -603 -94 callsubr
                </CharString>
                <CharString name="S">
                    30 callsubr
576 510 -80 callsubr
endchar
                </CharString>
                <CharString name="Sacute">
                    30 callsubr
287 815 -107 callgsubr
289 -305 -80 callsubr
endchar
                </CharString>
                <CharString name="Scaron">
                    30 callsubr
416 772 -89 callgsubr
164 -262 -80 callsubr
endchar
                </CharString>
                <CharString name="Scedilla">
                    -59 131 -79 79 -58 -21 630 78 hstemhm
143 93 53 79 57 94 hintmask 10011110
289 -204 rmoveto
79 2 rlineto
hintmask 01011110
7 106 -30 64 -47 25 rrcurveto
156 15 65 75 78 -35 callgsubr
82 16 rlineto
-60 callsubr
hintmask 00111110
-18 -91 rlineto
hintmask 01011110
56 -12 50 -7 46 -3 -41 -22 -36 -50 -33 -79 2 callgsubr
                </CharString>
                <CharString name="Scommaaccent">
                    -9 81 551 78 hstemhm
143 93 -55 110 134 94 hintmask 11101000
576 510 -80 callsubr
hintmask 11011000
-361 -791 -94 callsubr
                </CharString>
                <CharString name="T">
                    83 callsubr
120 531 vstem
424 609 -9 callsubr
endchar
                </CharString>
                <CharString name="Tcaron">
                    83 callsubr
120 531 vstem
405 760 -89 callgsubr
23 -151 -9 callsubr
endchar
                </CharString>
                <CharString name="Tcommaaccent">
                    83 callsubr
192 110 vstem
424 609 -9 callsubr
-162 -37 callsubr
                </CharString>
                <CharString name="Thorn">
                    0 195 -174 -21 507 77 -77 181 hstemhm
496 91 hintmask 01011000
156 hmoveto
22 110 rlineto
257 25 152 105 157 vvcurveto
hintmask 01101000
113 -93 83 -223 -9 vhcurveto
hintmask 01011000
20 104 73 callgsubr
-135 -688 rlineto
432 382 rmoveto
hintmask 10011000
-113 -106 -77 -196 3 vhcurveto
61 308 rlineto
hintmask 01011000
166 19 75 -53 -87 vvcurveto
endchar
                </CharString>
                <CharString name="U">
                    12 callsubr
277 -16 -104 callgsubr
                </CharString>
                <CharString name="Uacute">
                    12 callsubr
283 -66 callgsubr
-6 -819 -104 callgsubr
                </CharString>
                <CharString name="Ubreve">
                    33 callsubr
103 71 52 callsubr
603 963 -101 callgsubr
-378 -947 -104 callgsubr
                </CharString>
                <CharString name="Ucircumflex">
                    12 callsubr
558 -33 callsubr
-168 -906 -104 callgsubr
                </CharString>
                <CharString name="Udieresis">
                    -16 81 623 12 callgsubr
85 94 hintmask 11011000
575 781 -17 callgsubr
33 -793 -104 callgsubr
                </CharString>
                <CharString name="Ugrave">
                    12 callsubr
553 -26 callgsubr
-254 -773 -104 callgsubr
                </CharString>
                <CharString name="Uhungarumlaut">
                    12 callsubr
285 765 -81 callsubr
-202 -811 -104 callgsubr
                </CharString>
                <CharString name="Umacron">
                    33 callsubr
149 75 52 callsubr
624 892 -48 callgsubr
-333 -833 -104 callgsubr
                </CharString>
                <CharString name="Uogonek">
                    92 callgsubr
152 47 callsubr
hstemhm
85 94 -50 82 hintmask 11101000
382 -186 14 callsubr
39 49 37 129 63 vhcurveto
71 36 49 69 22 111 90 464 rcurveline
-56 callgsubr
hintmask 11110000
-70 callsubr
-33 -169 69 -85 131 -7 rlinecurve
hintmask 11101000
-90 -48 -41 -48 -44 22 callsubr
endchar
                </CharString>
                <CharString name="Uring">
                    33 callsubr
84 233 52 callsubr
444 985 -61 callgsubr
-167 -1001 -104 callgsubr
                </CharString>
                <CharString name="V">
                    0 84 601 7 -4 71 callsubr
128 91 hintmask 10011000
324 hmoveto
hintmask 10101000
119 229 113 231 106 228 rrcurveto
-93 hlineto
-91 -201 -98 -201 -101 -202 rrcurveto
-9 hlineto
hintmask 10011000
-19 202 -19 205 -13 201 rrcurveto
hintmask 11001000
-91 -7 15 -229 23 -227 28 -229 rlinecurve
endchar
                </CharString>
                <CharString name="W">
                    -4 callsubr
365 hmoveto
-85 callsubr
                </CharString>
                <CharString name="Wacute">
                    -4 callsubr
286 -66 callgsubr
79 -803 rmoveto
-85 callsubr
                </CharString>
                <CharString name="Wcircumflex">
                    -4 callsubr
561 -33 callsubr
-83 -890 rmoveto
-85 callsubr
                </CharString>
                <CharString name="Wdieresis">
                    0 120 568 12 callgsubr
80 88 -88 572 hintmask 11010100
578 67 callgsubr
hintmask 11100100
-77 callsubr
118 -777 rmoveto
-63 callsubr
hintmask 11101000
-72 callgsubr
                </CharString>
                <CharString name="Wgrave">
                    -4 callsubr
556 -26 callgsubr
-169 -757 rmoveto
-85 callsubr
                </CharString>
                <CharString name="X">
                    18 -21 24 -21 24 -21 682 7 -4 71 callsubr
5 655 hintmask 10000110
430 -3 rmoveto
hintmask 00101010
96 6 -140 335 274 350 rlineto
-101 hlineto
-212 -282 rlineto
hintmask 00100110
-116 286 rlineto
hintmask 01010010
-94 -7 141 -335 -273 -350 rlineto
99 hlineto
212 282 rlineto
endchar
                </CharString>
                <CharString name="Y">
                    -3 callgsubr
307 hmoveto
-56 callsubr
                </CharString>
                <CharString name="Yacute">
                    -3 callgsubr
277 805 -107 callgsubr
30 -805 rmoveto
-56 callsubr
                </CharString>
                <CharString name="Ycircumflex">
                    -3 callgsubr
553 765 -97 callgsubr
-133 -892 rmoveto
-56 callsubr
                </CharString>
                <CharString name="Ydieresis">
                    21 -21 688 -20 22 12 callgsubr
123 544 hintmask 10101100
570 783 -66 callsubr
hintmask 11010100
-77 callsubr
68 -779 rmoveto
43 224 -7 callsubr
hintmask 10110100
-22 callgsubr
                </CharString>
                <CharString name="Ygrave">
                    -3 callgsubr
547 797 -89 callsubr
-218 -759 rmoveto
-56 callsubr
                </CharString>
                <CharString name="Z">
                    70 callgsubr
588 vstem
492 hmoveto
-45 callsubr
                </CharString>
                <CharString name="Zacute">
                    70 callgsubr
588 vstem
277 -66 callgsubr
215 -803 rmoveto
-45 callsubr
                </CharString>
                <CharString name="Zcaron">
                    70 callgsubr
604 vstem
407 760 -89 callgsubr
89 -760 rmoveto
-45 callsubr
                </CharString>
                <CharString name="Zdotaccent">
                    0 80 528 80 42 callgsubr
32 588 vstem
451 779 -46 callsubr
135 -778 rmoveto
-45 callsubr
                </CharString>
                <CharString name="a">
                    -10 callgsubr
hintmask 10111000
222 72 -102 callgsubr
                </CharString>
                <CharString name="aacute">
                    -5 callgsubr
273 670 -107 callgsubr
hintmask 10111000
-51 -598 -102 callgsubr
                </CharString>
                <CharString name="abreve">
                    -13 callsubr
83 71 5 callsubr
hintmask 01111100
593 830 -101 callgsubr
hintmask 10111100
-423 -726 -82 callsubr
                </CharString>
                <CharString name="acircumflex">
                    -5 callgsubr
548 630 -97 callgsubr
hintmask 10111000
-213 -685 -102 callgsubr
                </CharString>
                <CharString name="acute">
                    1 callsubr
                </CharString>
                <CharString name="acute.cap">
                    1 callsubr
                </CharString>
                <CharString name="adieresis">
                    -13 callsubr
-38 callgsubr
61 90 232 84 hintmask 01101110
565 648 -66 callsubr
hintmask 10110110
-77 callsubr
-12 -572 -100 callsubr
hintmask 01110110
-95 callgsubr
hintmask 10110110
-51 callsubr
hintmask 01110110
-42 callgsubr
                </CharString>
                <CharString name="ae">
                    89 callsubr
hstemhm
43 90 143 84 182 83 hintmask 10101110
578 64 18 callgsubr
hintmask 10011110
82 callgsubr
hintmask 01101110
27 callsubr
hintmask 10101110
89 callgsubr
hintmask 01011110
6 callsubr
hintmask 01101110
37 callsubr
hintmask 01011110
95 callgsubr
                </CharString>
                <CharString name="aeacute">
                    89 callsubr
85 callgsubr
43 90 143 84 182 83 hintmask 10101111
278 663 -107 callgsubr
300 -599 18 callgsubr
hintmask 10011111
82 callgsubr
hintmask 01101111
27 callsubr
hintmask 10101111
89 callgsubr
hintmask 01011111
6 callsubr
hintmask 01101111
37 callsubr
hintmask 01011111
95 callgsubr
                </CharString>
                <CharString name="agrave">
                    -5 callgsubr
543 662 -89 callsubr
hintmask 10111000
-299 -552 -102 callgsubr
                </CharString>
                <CharString name="amacron">
                    -13 callsubr
129 75 5 callsubr
hintmask 01111100
614 759 -48 callgsubr
hintmask 10111100
-378 -612 -82 callsubr
                </CharString>
                <CharString name="ampersand">
                    -11 81 640 -20 hstem
28 87 142 84 vstem
515 -21 rmoveto
71 58 -52 52 -43 50 -36 50 rlinecurve
45 55 45 67 44 78 -75 26 rcurveline
-33 -65 -33 -54 -33 -46 -40 69 -25 68 -9 70 rrcurveto
67 68 39 72 55 vvcurveto
37 -25 21 -36 -58 -71 -105 -120 vhcurveto
-3 0 -3 -3 vvcurveto
-142 -121 -87 -121 -110 vvcurveto
-83 45 -52 83 71 82 45 87 86 vhcurveto
34 -48 40 -47 46 -47 rrcurveto
-333 91 rmoveto
-42 -25 26 47 76 62 87 89 87 hvcurveto
15 -71 31 -73 44 -72 rrcurveto
-73 -66 -62 -34 -46 hhcurveto
endchar
                </CharString>
                <CharString name="aogonek">
                    -231 64 155 84 -63 -21 39 -21 36 26 412 75 80 callgsubr
128 82 22 84 hintmask 1001111110000000
531 -186 rmoveto
-9 44 rlineto
-115 -43 -46 18 37 vvcurveto
47 58 54 158 71 vhcurveto
hintmask 1001111010000000
-93 callgsubr
hintmask 1100011010000000
-51 callsubr
hintmask 1010111010000000
-6 -56 9 -33 32 -10 rrcurveto
hintmask 1001111110000000
-100 -58 -39 -54 -51 vvcurveto
-67 87 -45 165 83 vhcurveto
hintmask 1100011010000000
-309 258 -100 callsubr
endchar
                </CharString>
                <CharString name="approxequal">
                    110 77 43 76 42 76 42 77 hstem
44 553 vstem
427 348 rmoveto
63 43 51 111 64 hvcurveto
-50 27 rlineto
-65 -41 -34 -48 -32 -53 -31 119 -87 hhcurveto
-65 -50 -55 -113 -64 hvcurveto
50 -27 rlineto
68 42 36 50 33 55 33 -118 88 hhcurveto
-46 -238 rmoveto
63 43 52 111 64 hvcurveto
-50 28 rlineto
-66 -40 -34 -48 -32 -53 -32 119 -86 hhcurveto
-65 -51 -55 -112 -64 hvcurveto
50 -27 rlineto
68 43 35 50 33 55 33 -120 88 hhcurveto
endchar
                </CharString>
                <CharString name="aring">
                    -13 callsubr
64 233 5 callsubr
hintmask 01111100
434 852 -61 callgsubr
hintmask 10111100
-212 -780 -82 callsubr
                </CharString>
                <CharString name="aringacute">
                    -5 callgsubr
339 935 -107 callgsubr
95 -83 -61 callgsubr
hintmask 10111000
-212 -780 -102 callgsubr
                </CharString>
                <CharString name="asciicircum">
                    551 -20 hstem
60 502 vstem
488 175 rmoveto
74 46 -200 330 -19 -3 -283 -327 57 -48 221 258 rlineto
endchar
                </CharString>
                <CharString name="asciitilde">
                    219 82 75 83 hstem
49 557 vstem
423 219 rmoveto
67 57 72 135 59 hvcurveto
-57 25 rlineto
-87 -38 -42 -63 -36 -57 -48 158 -92 hhcurveto
-68 -61 -76 -132 -58 hvcurveto
57 -25 rlineto
87 38 41 63 36 58 51 -157 93 hhcurveto
endchar
                </CharString>
                <CharString name="asterisk">
                    686 -20 hstem
134 462 vstem
409 289 rmoveto
53 21 -38 168 172 29 -2 56 -173 17 26 172 -56 16 -71 -161 -153 79 -33 -48 132 -116 -121 -122 35 -45 149 88 rlineto
endchar
                </CharString>
                <CharString name="asterisk.alt">
                    284 488 hstem
110 487 vstem
398 605 rmoveto
60 145 -83 22 -20 -156 rlineto
-45 -10 rmoveto
-96 123 -61 -61 126 -96 rlineto
164 -45 rmoveto
154 23 -22 82 -146 -60 rlineto
-164 -43 rmoveto
-155 -23 23 -82 146 60 rlineto
120 -34 rmoveto
97 -122 59 61 -125 95 rlineto
-120 -34 rmoveto
-59 -144 84 -22 18 156 rlineto
endchar
                </CharString>
                <CharString name="at">
                    -173 71 166 76 324 68 157 69 hstemhm
60 76 121 77 128 73 10 78 hintmask 11111101
460 -158 rmoveto
10 72 rlineto
-246 -55 -88 89 197 vvcurveto
278 152 266 162 79 28 -57 -105 -16 vhcurveto
3 -20 -18 2 -16 hhcurveto
-141 -89 -170 -158 -95 34 -45 47 hvcurveto
hintmask 11111111
39 47 28 39 41 hvcurveto
-6 -58 76 -2 9 62 11 69 11 56 rlinecurve
45 221 rlineto
hintmask 11111101
181 38 -50 98 -133 hhcurveto
-228 -178 -307 -313 -233 113 -123 287 60 hvcurveto
-82 298 rmoveto
-24 -20 24 57 109 60 134 62 17 27 -5 -9 26 hvcurveto
-54 -265 rlineto
-27 -31 -38 -18 -25 hhcurveto
endchar
                </CharString>
                <CharString name="atilde">
                    -13 callsubr
86 93 callgsubr
5 callsubr
hintmask 01111110
509 710 -84 callsubr
hintmask 10111110
-287 -638 -100 callsubr
hintmask 01111110
-95 callgsubr
hintmask 10111110
-51 callsubr
hintmask 01111110
-42 callgsubr
                </CharString>
                <CharString name="b">
                    -12 76 412 82 223 -20 hstem
473 89 vstem
230 -12 rmoveto
198 134 188 199 122 -53 61 -70 -62 -77 -50 -62 -63 hvcurveto
65 335 -89 -7 -147 -758 rlineto
-16 53 62 -12 49 hhcurveto
47 76 rmoveto
-28 -40 7 12 -43 hvcurveto
57 290 rlineto
55 53 70 48 50 hhcurveto
42 35 -38 -84 -146 -88 -144 -108 hvcurveto
endchar
                </CharString>
                <CharString name="backslash">
                    -207 1004 hstem
125 380 vstem
199 797 rmoveto
-74 -24 306 -980 74 23 rlineto
endchar
                </CharString>
                <CharString name="bar">
                    782 -20 hstem
175 276 vstem
367 782 rmoveto
-192 -983 rlineto
84 hlineto
192 986 rlineto
endchar
                </CharString>
                <CharString name="braceleft">
                    -230 1033 hstemhm
128 86 callgsubr
412 -230 -53 callgsubr
                </CharString>
                <CharString name="braceleft.cap">
                    -176 1033 hstemhm
139 86 callgsubr
423 -176 -53 callgsubr
                </CharString>
                <CharString name="braceright">
                    -230 1034 hstemhm
233 86 callsubr
20 -230 -50 callsubr
                </CharString>
                <CharString name="braceright.cap">
                    -176 1034 hstemhm
244 86 callsubr
31 -176 -50 callsubr
                </CharString>
                <CharString name="bracketleft">
                    -198 77 callgsubr
75 534 vstem
75 -198 19 callgsubr
                </CharString>
                <CharString name="bracketleft.cap">
                    -144 77 callgsubr
86 534 vstem
86 -144 19 callgsubr
                </CharString>
                <CharString name="bracketright">
                    -197 77 callgsubr
13 534 vstem
547 771 18 callsubr
                </CharString>
                <CharString name="bracketright.cap">
                    -143 77 callgsubr
24 534 vstem
558 825 18 callsubr
                </CharString>
                <CharString name="breve">
                    -9 callgsubr
                </CharString>
                <CharString name="breve.cap">
                    -9 callgsubr
                </CharString>
                <CharString name="bullet">
                    190 282 hstem
187 267 vstem
454 347 rmoveto
73 -51 52 -72 -74 -70 -63 -93 -74 52 -52 68 76 71 63 94 vhcurveto
endchar
                </CharString>
                <CharString name="bullet.alt">
                    210 241 hstem
181 285 vstem
418 210 rmoveto
48 241 rlineto
-237 hlineto
-48 -241 rlineto
endchar
                </CharString>
                <CharString name="c">
                    76 callsubr
69 callsubr
555 371 -74 callgsubr
                </CharString>
                <CharString name="cacute">
                    76 callsubr
69 callsubr
268 672 -107 callgsubr
287 -301 -74 callgsubr
                </CharString>
                <CharString name="caron">
                    -16 callgsubr
                </CharString>
                <CharString name="caron.alt">
                    8 callgsubr
                </CharString>
                <CharString name="caron.alt.cap">
                    8 callgsubr
                </CharString>
                <CharString name="caron.cap">
                    -16 callgsubr
                </CharString>
                <CharString name="ccaron">
                    76 callsubr
159 -20 69 callsubr
397 629 -89 callgsubr
162 -258 -74 callgsubr
                </CharString>
                <CharString name="ccedilla">
                    -61 126 -74 74 -70 70 415 77 hstemhm
84 89 143 79 78 82 hintmask 01011110
395 -204 rmoveto
7 105 -30 64 -46 26 55 7 63 20 73 35 -11 47 rcurveline
-43 callgsubr
82 1 rlineto
-26 callsubr
hvcurveto
hintmask 00111110
-102 48 -77 93 -21 vhcurveto
-44 -21 -38 -50 -35 -84 2 callgsubr
                </CharString>
                <CharString name="cdotaccent">
                    76 callsubr
42 callgsubr
84 89 300 82 vstem
441 648 -46 callsubr
208 -276 -74 callgsubr
                </CharString>
                <CharString name="cedilla">
                    -15 callgsubr
                </CharString>
                <CharString name="cedilla.cap">
                    -15 callgsubr
                </CharString>
                <CharString name="cent">
                    34 80 335 87 152 -20 hstem
94 84 vstem
178 285 rmoveto
75 42 64 137 21 vhcurveto
-67 -296 rlineto
-82 30 -30 49 57 vvcurveto
298 -251 rmoveto
16 80 -54 3 -46 5 -39 8 rlinecurve
73 321 36 2 41 -1 46 -3 rlinecurve
17 87 -43 3 -39 0 -36 -2 rlinecurve
35 151 rlineto
-81 hlineto
-33 -159 rlineto
-201 -34 -74 -117 -109 vvcurveto
-88 53 -72 117 -40 vhcurveto
-39 -163 rlineto
81 hlineto
31 143 41 -8 46 -5 52 -2 rlinecurve
endchar
                </CharString>
                <CharString name="check.1">
                    -20.5 116.5 610 -20 hstem
90 561 vstem
651 706 rmoveto
-87 40 -126 -192 -109 -224 -87 -234 rlinecurve
-5 hlineto
-64 310 -83 -25 94 -401 78 -1 109 269 130 239 150 219 rlinecurve
endchar
                </CharString>
                <CharString name="check.2">
                    15 -21 23 -21 31 -21 701 -20 hstemhm
38 594 hintmask 10011000
337 -6 rmoveto
hintmask 00111000
88 12 -96 291 303 410 -82 42 -251 -372 -58 189 -86 -23 82 -240 rlineto
hintmask 01011000
-199 -280 56 -27 170 232 rlineto
endchar
                </CharString>
                <CharString name="circumflex">
                    -2 callsubr
                </CharString>
                <CharString name="circumflex.cap">
                    -2 callsubr
                </CharString>
                <CharString name="colon">
                    0 131 234 132 hstem
197 226 vstem
397 365 rmoveto
26 132 97 callsubr
-26 -132 rlineto
48 -365 56 callgsubr
                </CharString>
                <CharString name="colon.alt">
                    95 131 235 131 hstem
216 226 vstem
416 461 56 callsubr
-25 -131 rlineto
47 -366 56 callgsubr
                </CharString>
                <CharString name="colonmonetary">
                    582 82 hstem
84 82 vstem
358 128 rmoveto
-30 8 -26 9 -23 10 109 396 rcurveline
27 8 30 6 34 5 rrcurveto
-313 -255 rmoveto
88 41 78 118 49 vhcurveto
-94 -347 rlineto
-45 33 -20 43 56 vvcurveto
130 -397 rmoveto
66 hlineto
32 119 26 -5 28 -4 30 -3 rlinecurve
32 77 -36 4 -32 5 -30 6 rlinecurve
126 460 30 2 31 2 33 1 rlinecurve
8 82 -26 -1 -25 -2 -24 -2 rlinecurve
30 110 rlineto
-66 hlineto
-31 -118 -31 -4 -29 -6 -27 -7 rlinecurve
37 135 rlineto
-65 hlineto
-42 -155 rlineto
-190 -66 -67 -122 -125 vvcurveto
-87 37 -66 79 -47 vhcurveto
-52 -183 rlineto
66 hlineto
43 156 23 -10 25 -8 28 -7 rlinecurve
endchar
                </CharString>
                <CharString name="comma">
                    -173 -21 hstem
229 119 vstem
134 -173 rmoveto
37 -21 118 99 55 92 4 84 callgsubr
14 -128 -18 -79 -87 -97 rlinecurve
endchar
                </CharString>
                <CharString name="commaaccent">
                    1 callgsubr
                </CharString>
                <CharString name="commaaccent.cap">
                    1 callgsubr
                </CharString>
                <CharString name="commaaccent.rot">
                    624 230 hstem
246 111 vstem
404 836 37 callgsubr
endchar
                </CharString>
                <CharString name="copyright">
                    8 51 98 60 257 59 97 50 hstem
55 55 82 61 130 53 94 55 vstem
55 283 rmoveto
-174 99 -101 133 171 127 165 234 174 -95 99 -132 -166 -137 -162 -235 vhcurveto
55 10 rmoveto
193 108 144 132 102 78 -82 -151 -193 -98 -145 -137 -104 -81 83 151 vhcurveto
248 240 rmoveto
-93 -73 -116 -124 -114 69 -52 130 48 hvcurveto
9 57 rlineto
-100 -35 -47 23 84 vvcurveto
84 40 86 55 27 9 -26 -48 -1 vhcurveto
53 1 rlineto
86 4 -23 46 -59 hhcurveto
endchar
                </CharString>
                <CharString name="d">
                    46 callsubr
hintmask 10101110
226 72 -23 callgsubr
hintmask 01011110
30 callgsubr
125 637 -89 -7 -44 -224 rlineto
hintmask 10101110
-17 callsubr
hintmask 01011110
45 callsubr
                </CharString>
                <CharString name="dagger">
                    544 -20 249 -20 hstem
142 443 vstem
307 140 rmoveto
92 378 172 -17 14 72 -170 17 37 175 62 callgsubr
-81 -400 12 -10 rlineto
endchar
                </CharString>
                <CharString name="daggerdbl">
                    544 -20 249 -20 hstem
98 487 vstem
296 84 rmoveto
51 214 179 -18 14 71 -177 18 36 149 172 -17 14 72 -170 18 37 174 62 callgsubr
-30 -150 -174 18 -14 -72 173 -17 -47 -235 11 -10 rlineto
endchar
                </CharString>
                <CharString name="dcaron">
                    46 callsubr
234 102 hintmask 01101111
703 -25 callsubr
hintmask 10101111
-579 -819 -8 callgsubr
125 637 -89 -7 -44 -224 -6 callsubr
                </CharString>
                <CharString name="dcroat">
                    51 callsubr
112 59 80 -20 hstemhm
62 88 233 86 hintmask 10101111
226 72 -8 callgsubr
98 497 rlineto
76 hlineto
11 60 rlineto
-76 hlineto
16 80 -89 -7 -14 -73 rlineto
-150 hlineto
-12 -59 rlineto
150 hlineto
-18 -92 -6 callsubr
                </CharString>
                <CharString name="degree">
                    347 69 265 68 hstem
169 73 244 73 vstem
383 749 rmoveto
-111 -103 -87 -133 -111 73 -71 101 112 104 88 132 111 -74 71 -102 hvcurveto
-30 -333 rmoveto
-68 -43 51 69 87 59 58 73 69 43 -51 -69 -87 -59 -58 -74 hvcurveto
endchar
                </CharString>
                <CharString name="dieresis">
                    -24 callgsubr
                </CharString>
                <CharString name="dieresis.cap">
                    -24 callgsubr
                </CharString>
                <CharString name="divide">
                    73 105 109 76 110 105 hstem
74 498 vstem
401 473 87 callsubr
273 -110 rmoveto
-483 53 callgsubr
482 hlineto
-231 -214 87 callsubr
endchar
                </CharString>
                <CharString name="dollar">
                    28 74 -70 74 478 192 0 -20 hstemhm
149 84 196 83 hintmask 10101100
233 524 rmoveto
35 40 29 100 -4 vhcurveto
-53 -178 rlineto
-49 43 -38 40 35 vvcurveto
196 -357 rmoveto
-36 -45 -30 -100 1 vhcurveto
55 184 rlineto
50 -44 40 -39 -36 vvcurveto
-191 -257 rmoveto
32 118 rlineto
175 2 67 68 68 vvcurveto
70 -74 68 -72 62 vhcurveto
65 212 39 -5 46 -10 53 -14 rlinecurve
16 81 -44 10 -40 8 -37 4 rlinecurve
41 124 rlineto
-82 hlineto
-36 -118 rlineto
-171 3 -67 -69 -71 vvcurveto
-68 72 -66 71 -61 vhcurveto
hintmask 01011100
-67 -220 -45 4 -53 10 -61 16 rlinecurve
-19 -82 55 -11 49 -8 43 -3 rlinecurve
-36 -121 rlineto
endchar
                </CharString>
                <CharString name="dotaccent">
                    7 callsubr
                </CharString>
                <CharString name="dotaccent.cap">
                    7 callsubr
                </CharString>
                <CharString name="dotlessi">
                    32 callsubr
42 callsubr
533 50 -93 callsubr
                </CharString>
                <CharString name="e">
                    -5 callsubr
529 62 -107 callsubr
                </CharString>
                <CharString name="eacute">
                    -5 callsubr
265 673 -107 callgsubr
264 -611 -107 callsubr
                </CharString>
                <CharString name="ebreve">
                    -19 callgsubr
83 71 -1 callsubr
586 833 -101 callgsubr
-109 -739 -107 callsubr
                </CharString>
                <CharString name="ecaron">
                    -5 callsubr
395 630 -89 callgsubr
138 -568 -107 callsubr
                </CharString>
                <CharString name="ecircumflex">
                    -19 callgsubr
127 -20 -1 callsubr
541 633 -97 callgsubr
101 -698 -107 callsubr
                </CharString>
                <CharString name="edieresis">
                    -19 callgsubr
-38 callgsubr
75 87 312 85 hintmask 10101110
558 651 -66 callsubr
hintmask 11110110
-77 callsubr
302 -585 -107 callsubr
                </CharString>
                <CharString name="edotaccent">
                    -19 callgsubr
42 callgsubr
75 87 312 85 vstem
439 649 -46 callsubr
184 -586 -107 callsubr
                </CharString>
                <CharString name="egrave">
                    -5 callsubr
535 665 -89 callsubr
16 -565 -107 callsubr
                </CharString>
                <CharString name="eight">
                    -13 72 486 -20 96 77 -8 8 hstemhm
63 86 10 85 181 82 hintmask 11100110
507 165 rmoveto
73 -65 68 -66 62 vhcurveto
58 35 72 40 90 48 -29 54 rcurveline
-95 -51 -78 -44 -64 -38 rrcurveto
-47 46 -39 44 42 vvcurveto
57 63 47 193 -44 vhcurveto
hintmask 11010110
26 86 rlineto
hintmask 11100110
-237 36 -130 -92 -103 vvcurveto
-60 45 -54 53 -51 vhcurveto
hintmask 11101110
-159 -105 -35 -60 -65 vvcurveto
-89 80 -60 121 vhcurveto
hintmask 11100110
141 102 81 97 hvcurveto
-223 -106 rmoveto
hintmask 11101110
-75 -60 35 61 39 22 42 132 87 hvcurveto
63 -58 59 -54 -53 vvcurveto
hintmask 11100110
-55 -60 -44 -81 vhcurveto
endchar
                </CharString>
                <CharString name="eight.den">
                    -3 callsubr
hstemhm
73 69 -6 68 122 67 hintmask 10110110
393 -125 -58 callsubr
                </CharString>
                <CharString name="eight.inf">
                    -178 56 342 61 hstemhm
86 6 callgsubr
hintmask 11011000
406 -59 -57 callsubr
                </CharString>
                <CharString name="eight.num">
                    461 56 188 -20 21 -20 173 61 hstemhm
198 6 callgsubr
hintmask 10110110
518 580 -58 callsubr
                </CharString>
                <CharString name="eight.small">
                    -11 56 342 61 hstemhm
112 6 callgsubr
hintmask 11011000
432 108 -57 callsubr
                </CharString>
                <CharString name="eight.sup">
                    357 56 300 -20 62 61 hstemhm
177 6 callgsubr
hintmask 11101100
497 476 -57 callgsubr
hintmask 11110100
-42 callsubr
hintmask 11101100
25 callgsubr
hintmask 11110100
-83 callsubr
                </CharString>
                <CharString name="ellipsis">
                    0 134 hstem
27 136 67 136 67 136 cntrmask 01110000
134 39 callsubr
513 39 callsubr
-96 39 callsubr
endchar
                </CharString>
                <CharString name="emacron">
                    -19 callgsubr
129 75 -1 callsubr
606 762 -48 callgsubr
-63 -625 -107 callsubr
                </CharString>
                <CharString name="emdash">
                    290 71 hstem
82 506 vstem
588 361 rmoveto
-492 hlineto
-14 -71 rlineto
492 hlineto
endchar
                </CharString>
                <CharString name="endash">
                    290 71 hstem
91 461 vstem
552 361 rmoveto
-447 hlineto
-14 -71 rlineto
448 hlineto
endchar
                </CharString>
                <CharString name="eogonek">
                    92 callgsubr
159 75 139 52 227 74 hstem
75 87 38 82 192 85 vstem
453 -186 14 callsubr
55 97 71 150 67 vhcurveto
-95 callsubr
-133 83 -90 160 20 vhcurveto
-83 -50 -35 -50 -47 22 callsubr
-71 670 -82 callgsubr
                </CharString>
                <CharString name="equal">
                    168 88 callsubr
578 490 rmoveto
-445 70 callsubr
-32 -170 rmoveto
-444 70 callsubr
endchar
                </CharString>
                <CharString name="eth">
                    -13 73 377 72 hstem
67 90 318 88 vstem
275 -13 rmoveto
167 121 140 218 104 -33 96 -65 89 hvcurveto
105 30 -13 55 -130 -37 -32 37 -38 36 -43 35 rlinecurve
-68 -49 35 -28 31 -28 26 -28 rlinecurve
-140 -39 17 -54 164 46 28 -37 22 -37 15 -37 rlinecurve
7 -30 -29 3 -26 hhcurveto
-168 -124 -142 -165 -128 81 -87 127 hvcurveto
18 73 rmoveto
-82 -54 64 97 113 75 103 103 32 51 -8 -22 52 hvcurveto
3 -24 2 -25 -25 vvcurveto
-157 -70 -116 -112 vhcurveto
endchar
                </CharString>
                <CharString name="exclam">
                    0 124 hstem
188 274 vstem
335 260 rmoveto
21 95 83 296 23 100 rrcurveto
-116 hlineto
-17 -100 -35 -296 -18 -95 rrcurveto
34 -260 rmoveto
25 124 rlineto
-121 hlineto
-26 -124 rlineto
endchar
                </CharString>
                <CharString name="exclamdown">
                    564 124 hstem
179 274 vstem
331 688 rmoveto
-25 -124 rlineto
121 hlineto
26 124 rlineto
-147 -260 rmoveto
-21 -95 -83 -296 -23 -99 rrcurveto
116 hlineto
18 99 34 296 19 95 rrcurveto
endchar
                </CharString>
                <CharString name="f">
                    -198 72 410 70 335 93 hstem
90 86 216 63 98 79 vstem
455 3 rmoveto
85 -56 98 -130 100 vhcurveto
274 -4 14 72 rlineto
-328 hlineto
184 64 111 151 96 38 callgsubr
-148 -158 -197 -231 -82 hvcurveto
-51 hlineto
-13 -53 42 -18 rlineto
-21 -76 -12 -77 -74 vvcurveto
-175 74 -79 94 102 95 82 119 vhcurveto
-165 -129 rmoveto
-61 -53 48 139 64 9 68 16 66 hvcurveto
135 -95 56 -95 -82 vvcurveto
-70 -45 -43 -57 vhcurveto
endchar
                </CharString>
                <CharString name="f.lig">
                    -167 72 379 70 335 93 hstem
91 87 215 62 98 79 vstem
455 18 rmoveto
81 -56 93 -128 94 vhcurveto
272 -4 14 72 rlineto
-329 hlineto
181 63 111 154 98 38 callgsubr
-149 -160 -202 -226 -81 hvcurveto
-49 hlineto
-13 -53 40 -17 rlineto
-19 -71 -11 -70 -67 vvcurveto
-170 73 -73 94 102 95 76 109 vhcurveto
-165 -113 rmoveto
-61 -51 43 134 57 8 61 15 60 hvcurveto
135 -90 57 -89 -74 vvcurveto
-65 -46 -37 -57 vhcurveto
endchar
                </CharString>
                <CharString name="five">
                    -4 83 -58 -21 610 78 hstemhm
444 85 hintmask 10110000
529 219 rmoveto
82 -68 78 -216 44 vhcurveto
44 187 rlineto
283 hlineto
23 78 rlineto
-369 hlineto
-76 -323 rlineto
221 -37 73 -58 -66 vvcurveto
-73 -84 -75 -285 29 93 callsubr
341 -29 124 130 118 vvcurveto
endchar
                </CharString>
                <CharString name="five.den">
                    52 callgsubr
hstem
333 71 vstem
404 -93 -103 callgsubr
                </CharString>
                <CharString name="five.inf">
                    -168 96 callgsubr
346 71 vstem
417 -27 -103 callgsubr
                </CharString>
                <CharString name="five.num">
                    471 71 callgsubr
hstem
458 71 vstem
-24 callsubr
endchar
                </CharString>
                <CharString name="five.small">
                    -1 96 callgsubr
372 71 vstem
443 140 -103 callgsubr
                </CharString>
                <CharString name="five.sup">
                    367 96 callgsubr
437 71 vstem
508 508 -103 callgsubr
                </CharString>
                <CharString name="fiveeighths">
                    2 callsubr
103 62 165 -20 171 90 callgsubr
65 71 hintmask 1011111101110000
-37 callgsubr
306 -493 rmoveto
47 -45 41 -46 38 vhcurveto
39 20 49 23 59 27 -22 41 rcurveline
-66 -30 -54 -26 -44 -23 rrcurveto
-33 27 -26 26 24 vvcurveto
35 42 27 134 -31 vhcurveto
24 67 rlineto
-176 28 -92 -64 -68 vvcurveto
hintmask 1101111101110000
5 callgsubr
hintmask 1011111110110000
-42 callsubr
hintmask 1011111101110000
25 callgsubr
hintmask 1011111110110000
-83 callsubr
                </CharString>
                <CharString name="fivesixths">
                    -243 61 callgsubr
277 59 103 71 callgsubr
hstem
84 60 callsubr
43 71 vstem
-37 callgsubr
154 -611 -100 callgsubr
                </CharString>
                <CharString name="four">
                    21 -21 145 78 467 -20 26 -20 hstemhm
62 502 hintmask 11011000
541 145 rmoveto
23 78 rlineto
-81 hlineto
47 242 -84 -8 -46 -234 rlineto
-246 hlineto
hintmask 11101000
86 131 63 122 70 214 rrcurveto
hintmask 11011000
-95 6 -63 -211 -60 -129 -89 -152 rlinecurve
-4 -59 rlineto
323 hlineto
-28 -145 rlineto
82 hlineto
28 145 rlineto
endchar
                </CharString>
                <CharString name="four.den">
                    -144 61 hstem
70 363 vstem
415 -144 -91 callsubr
                </CharString>
                <CharString name="four.inf">
                    -78 61 hstem
83 363 vstem
428 -78 -91 callsubr
                </CharString>
                <CharString name="four.num">
                    561 61 hstem
195 363 vstem
540 561 -91 callsubr
                </CharString>
                <CharString name="four.small">
                    0 150 -61 61 hstemhm
109 363 hintmask 01100000
454 89 rmoveto
hintmask 10100000
-80 callgsubr
hintmask 01100000
-44 callsubr
hintmask 10100000
-17 -89 rlineto
66 hlineto
hintmask 01100000
18 89 rlineto
endchar
                </CharString>
                <CharString name="four.sup">
                    457 61 hstem
174 363 vstem
519 457 -91 callsubr
                </CharString>
                <CharString name="fourfifths">
                    73 callsubr
193 61 hstem
333 71 vstem
540 561 -97 callsubr
-412 -252 -65 callsubr
317 -461 -103 callgsubr
                </CharString>
                <CharString name="fraction">
                    -178 1015 hstem
-40 712 vstem
31 -178 rmoveto
641 976 -70 39 -642 -976 rlineto
endchar
                </CharString>
                <CharString name="fraction.afrc">
                    309 59 hstem
75 493 vstem
75 309 -65 callsubr
endchar
                </CharString>
                <CharString name="g">
                    14 callgsubr
hstemhm
69 88 251 68 hintmask 10111100
242 108 -85 callgsubr
hintmask 01111100
-9 -87 rlineto
hintmask 10111100
16 callsubr
                </CharString>
                <CharString name="gbreve">
                    14 callgsubr
85 71 hstemhm
69 88 251 68 hintmask 10111110
582 834 -101 callgsubr
-392 -694 -69 callsubr
                </CharString>
                <CharString name="gcommaaccent">
                    14 callgsubr
hstemhm
69 88 165 111 -25 68 hintmask 10111100
480 851 37 callgsubr
-238 -743 -48 callsubr
hintmask 10111010
-88 callgsubr
hintmask 01111010
-9 -87 rlineto
hintmask 10111010
16 callsubr
                </CharString>
                <CharString name="gdotaccent">
                    14 callgsubr
92.5 61 callsubr
69 88 251 68 hintmask 10111110
436 650 -46 callsubr
-100 -541 -69 callsubr
                </CharString>
                <CharString name="germandbls">
                    -8 78 -70 70 634 75 hstemhm
467 90 -77 91 hintmask 10110000
235 -8 rmoveto
238 -13 84 82 93 vvcurveto
70 -58 76 -92 78 vhcurveto
hintmask 01101000
106 99 58 84 82 vvcurveto
74 -46 62 -100 -133 -101 -102 -165 -32 vhcurveto
-100 -512 rlineto
89 hlineto
101 517 rlineto
123 24 54 64 73 hhcurveto
53 27 -35 -47 -69 -51 -69 -128 -125 hvcurveto
hintmask 10110000
117 -97 49 -68 -52 vvcurveto
-56 -59 -28 -162 17 vhcurveto
endchar
                </CharString>
                <CharString name="grave">
                    7 callgsubr
                </CharString>
                <CharString name="grave.cap">
                    7 callgsubr
                </CharString>
                <CharString name="greater">
                    -21 687 hstem
76 472 vstem
115 -21 rmoveto
419 291 14 77 -310 319 -61 -60 282 -285 -2 -10 -381 -262 rlineto
endchar
                </CharString>
                <CharString name="greaterequal">
                    16 76 hstem
42 513 vstem
456 399 rmoveto
-1 -9 -356 -168 19 -73 424 204 13 70 -330 237 -48 -66 rlineto
322 -502 68 callgsubr
                </CharString>
                <CharString name="guillemotleft">
                    8 -21 572 64 callgsubr
hstemhm
56 577 hintmask 10110000
201 -13 11 callgsubr
rlineto
hintmask 11010000
53 callsubr
                </CharString>
                <CharString name="guillemotleft.cap">
                    60 574 hstem
70 577 vstem
215 60 11 callgsubr
53 callsubr
                </CharString>
                <CharString name="guillemotright">
                    8 -21 22 -21 573 -20 hstemhm
14 577 hintmask 10110000
338 -13 34 callgsubr
hintmask 01110000
16 callgsubr
                </CharString>
                <CharString name="guillemotright.cap">
                    60 574 hstem
28 577 vstem
352 60 34 callgsubr
16 callgsubr
                </CharString>
                <CharString name="guilsinglleft">
                    -21 586 hstem
138 382 vstem
351 -21 34 callsubr
                </CharString>
                <CharString name="guilsinglleft.cap">
                    52 586 hstem
152 382 vstem
365 52 34 callsubr
                </CharString>
                <CharString name="guilsinglright">
                    -18 585 hstem
97 383 vstem
148 -18 28 callgsubr
                </CharString>
                <CharString name="guilsinglright.cap">
                    55 585 hstem
111 383 vstem
162 55 28 callgsubr
                </CharString>
                <CharString name="h">
                    -11 77 -45 -21 473 84 224 -20 83 callgsubr
hintmask 10111000
62 callsubr
hintmask 01110100
-14 callsubr
-67 -78 -42 -81 -76 vhcurveto
67 347 -89 -7 -150 -774 rlineto
87 hlineto
70 358 rlineto
77 71 64 38 47 hhcurveto
37 17 -22 -40 hvcurveto
hintmask 10110100
-88 -71 -182 -85 vvcurveto
hintmask 10111000
17 callgsubr
                </CharString>
                <CharString name="hbar">
                    -11 77 -45 -21 472 83 87 59 -59 139 83 callgsubr
hintmask 10110100
62 callsubr
hintmask 10110010
62 73 188 108 vvcurveto
58 -25 46 -70 -67 -78 -41 -82 -77 vhcurveto
41 210 rlineto
149 hlineto
11 59 rlineto
-149 hlineto
hintmask 10101100
16 80 -89 -7 rlineto
hintmask 01110010
-14 -73 rlineto
-78 hlineto
-11 -60 rlineto
77 hlineto
-124 -641 rlineto
87 hlineto
69 356 rlineto
78 71 64 38 48 hhcurveto
37 17 -23 -39 hvcurveto
hintmask 10110010
-88 -71 -181 -85 vvcurveto
hintmask 10110100
17 callgsubr
                </CharString>
                <CharString name="hcoslug">
                    -100 75 5 10 -6 10 -4 11 -10 10 -9 7 0 12 -11 11 -7 15 -15 26 -25 26 -15 8 -8 15 -12 12 0 14 -9 10 -10 19 -9 11 2 8 -7 32 71.5 22.5 514 -20 hstemhm
87 64 10 16 -3 8 5 40 -35 12 -1 12 14 10 -2 10 -10 42 -31 9 -1 7 3 12 -6 11 9 40 -29 13 -9 10 0 12 -4 11 -2 12 -5 16 18 11 10 8 hintmask 000000100000000000010110000010000010000010010000
537 700 rmoveto
-450 hlineto
hintmask 100000000000000000011010000000100000001000000000
-800 450 vlineto
-300 396 rmoveto
-17 11 -11 17 -16 vhcurveto
9 13 5 12 12 vvcurveto
18 -9 11 -13 -12 -8 -9 -13 vhcurveto
49 -64 rmoveto
12 -12 9 -12 9 -11 15 25 3 18 -17 17 -7 -7 -10 -9 -14 -9 rrcurveto
-39 -93 rmoveto
12 9 3 6 8 hvcurveto
98 callgsubr
22 -14 13 rrcurveto
-8 -8 -4 -11 -11 vvcurveto
-23 17 -18 22 vhcurveto
91 34 rmoveto
-22 19 13 -9 15 hhcurveto
15 9 9 13 8 hvcurveto
5 -1 rlineto
-44 -1 -27 -27 -32 hhcurveto
-22 -17 8 26 -25 hvcurveto
-23 -21 -25 -11 -32 hhcurveto
-45 -36 30 40 31 21 24 40 13 hvcurveto
-16 17 -7 13 22 vvcurveto
32 31 32 51 46 25 -30 -26 -10 -2 -8 -5 -7 vhcurveto
20 15 -8 -20 2 hvcurveto
18 12 14 10 19 hhcurveto
21 16 -15 -24 -23 -16 -17 -21 -14 -12 7 12 -6 hvcurveto
-12 -7 -12 -10 -11 -15 rrcurveto
hintmask 000000000000000000010000000000000100000000000000
-72 -105 rmoveto
-8 10 -5 -10 vlineto
hintmask 000000000000000010000000000000000100000000000000
-15 vlineto
-3 1 -1 2 2 1 1 4 1 vhcurveto
4 -1 rlineto
-2 -7 -3 -3 -6 -6 -3 4 44 callsubr
hintmask 000000000000000001000000000000010000000000000000
15 -5 5 5 7 vlineto
hintmask 000000000000000100000000100000000000000000000000
-75 -21 31 callsubr
49 callsubr
22 hmoveto
-8 callsubr
hintmask 000000000000001000000000000000000000000100000000
132 -1 rmoveto
0 6 -2 4 -3 -5 -1 -5 44 callsubr
0 -6 1 -4 5 3 2 4 44 callsubr
49 callsubr
-120 -9 rmoveto
4 hlineto
hintmask 000000000000000001000010000000000000000000000000
19 -4 5 vlineto
hintmask 000000000000000000010000000010000000000000000000
13 -6 hlineto
4 2 3 3 5 hhcurveto
7 2 -5 -6 hvcurveto
hintmask 000000000000000100000000000000010000000000000000
-14 5 -5 vlineto
hintmask 000000000010000000000000000010000000000000000000
-17 5 3 hlineto
hintmask 000000000000000001000000000010000000000000000000
13 vlineto
3 -1 3 -3 -3 -3 -3 -5 vhcurveto
-11 3 -5 vlineto
49 callsubr
-16 hlineto
-71 5 rmoveto
6 hlineto
hintmask 000000000000000000100010000000000000000000000000
31 -6 5 vlineto
hintmask 000000000000000000010000001000000000000000000000
38 hlineto
hintmask 000000000000000001000000001000000000000000000000
-15 -5 vlineto
8 -2 -1 2 -6 hhcurveto
-8 hlineto
hintmask 000000000000000000100001000000000000000000000000
-14 3 vlineto
4 0 1 5 1 hvcurveto
5 hlineto
hintmask 000000000000000100000000100000000000000000000000
-17 -5 vlineto
5 -1 0 1 -4 hhcurveto
-3 hlineto
hintmask 000000000000000100000001000000000000000000000000
-12 7 -5 vlineto
49 callsubr
-23 hlineto
hintmask 000000000000000010000000000000000100000000000000
133 10 rmoveto
5 hlineto
-4 3 3 -3 3 hhcurveto
3 1 2 1 hvcurveto
hintmask 000000000000000000100000000000000100000000000000
7 -18 -4 12 vvcurveto
4 4 5 7 3 3 -1 -3 2 vhcurveto
1 4 rlineto
5 -10 -5 hlineto
4 -3 -2 1 -3 hhcurveto
-2 -2 -1 -2 hvcurveto
hintmask 000000000010000000000000000000000000100000000000
-5 18 2 -11 vvcurveto
-5 -3 -4 -7 -5 -3 2 2 -2 vhcurveto
-1 -3 rlineto
-5 hlineto
hintmask 000000000000000000100000000000000000100000000000
38 38 rmoveto
-5 5 hlineto
hintmask 000000000000000000010000000000000000000100000000
14 hlineto
hintmask 000000000000000000100000000000000000000100000000
-20 vlineto
4 1 4 3 4 hhcurveto
hintmask 000000000100000000000000000000000000000010000000
7 0 5 -6 0 -9 0 -7 -3 -9 0 flex1
-6 -3 2 4 -2 hvcurveto
-3 -6 rlineto
-4 hlineto
hintmask 100000000000000000010000000000000000000010000000
39 -6 rmoveto
3 3 2 4 hvcurveto
-3 7 -9 18 0 vvcurveto
-3 5 18 -5 -4 hlineto
7 -15 6 15 rlineto
-4 5 13 -5 -4 hlineto
hintmask 000000001000000000000000000000000000000010000000
-10 -24 rlineto
-7 -3 -4 -5 -6 hhcurveto
-6 -3 3 4 3 2 2 3 hvcurveto
hintmask 100000000000000000010000000000000000000010000000
5 1 -5 -2 -2 hvcurveto
hintmask 000000010000000000000000000000000000000000000000
45 -24 rmoveto
-6 -4 vlineto
-2 -4 -2 -3 -3 -3 rrcurveto
2 -2 2 -2 1 1 1 1 1 hflex1
3 -1 rlineto
-5 -1 -2 -4 -6 hhcurveto
hintmask 100000000000000000000000000000000000000001000000
-4 0 -2 2 -3 3 -3 -3 -4 -2 -6 flex1
-7 -5 4 6 6 4 3 6 2 hvcurveto
-3 3 -2 3 4 vvcurveto
hintmask 000000000001000000000000000000000000000000100000
5 4 6 9 6 4 -4 -5 -5 -3 -2 -5 -3 vhcurveto
2 -2 4 -5 3 -3 2 2 2 3 1 2 rrcurveto
-5 6 hlineto
hintmask 000000000100000000000000000000000010000000000000
-114 4 rmoveto
11 4 hlineto
-3 -2 2 2 2 1 1 0 hvcurveto
0 -1 1 -2 -2 -2 -2 -6 vhcurveto
hintmask 100000000000000000000000000000000000000000010000
132 -13 rmoveto
hintmask 000100000000000000000000000000000000000000010000
15 9 8 11 vhcurveto
hintmask 000100000000000000000000000000000000000000000000
5 4 -2 -3 3 hvcurveto
4 6 vlineto
-16 -6 vlineto
hintmask 000000100000000000000000000000000000000000000000
9 -3 -2 3 -6 hhcurveto
-6 -4 -5 -12 hvcurveto
69 callgsubr
-11 4 -6 8 vhcurveto
hintmask 000010000000000000000000000000000000000000000000
6 3 6 6 1 hvcurveto
6 hlineto
hintmask 100000000000000000000000000000000000000000000000
-10 -1 -6 -7 -11 hhcurveto
hintmask 100000000000000000000000000000000000000000010000
-13 -8 7 14 hvcurveto
hintmask 000000100000000000000000000000000000000000100000
-29 4 rmoveto
2 1 2 3 3 vvcurveto
3 -2 2 -3 -2 -2 -1 -3 -2 2 -3 3 -3 vhcurveto
hintmask 010000000000000000000000000000000000010000000000
-68 -11 rmoveto
66 callgsubr
hintmask 100000000000000000000000000000000000010000000000
-6 -1 -4 -5 -8 hhcurveto
-10 -6 6 9 hvcurveto
hintmask 000000000010000000000000000000000000010000000000
10 7 6 8 11 4 -7 -10 -1 vhcurveto
hintmask 010000000000000000000000000001000000000000000000
-89 hmoveto
66 callgsubr
68 callsubr
-6 -1 -4 -5 -8 hhcurveto
hintmask 100000000000000000000000010000000000000000000000
-10 -6 6 9 hvcurveto
hintmask 000000000010000000000000010000000000000000000000
10 7 6 8 vhcurveto
hintmask 000000000010000000000000000000001000000000000000
11 4 -7 -10 -1 hvcurveto
hintmask 010000000000000000000010000001000000000000000000
-63 2 31 callsubr
252 hmoveto
69 callgsubr
40 callsubr
hintmask 010000000000000000000010000001000000000000000000
40 callgsubr
hintmask 000001000000000000000000000001000000010000000000
-138 2 rmoveto
63 callgsubr
-70 hmoveto
63 callgsubr
hintmask 010000000000000000000000000100000000000000000000
-22 -2 rmoveto
-8 callsubr
69 callgsubr
252 hmoveto
-8 callsubr
68 callsubr
-208 -10 rmoveto
4 hlineto
hintmask 000001000000000000000000000000001000000000000000
19 -5 5 5 1 vlineto
hintmask 000000000000010000000000000000001000000000000000
10 7 4 6 4 2 -1 -1 2 vhcurveto
8 2 rlineto
hintmask 010000000000000000000000000000000000100000000000
-39 4 -5 vlineto
hintmask 100000000000000000000000000000000010000000000000
-17 5 4 hlineto
hintmask 000001000000000000000000000000000010000000000000
19 -11 vlineto
hintmask 010000000000000000000000000000000010000000000000
-19 4 -5 vlineto
68 callsubr
-17 hlineto
hintmask 100000000000000000000000000000000001000000000000
69 5 rmoveto
4 hlineto
hintmask 000001000000000000000000000000000001000000000000
19 -4 5 vlineto
hintmask 000000000010000000000000000000000000000001000000
13 -6 hlineto
5 2 3 2 4 hhcurveto
4 2 -2 -4 -3 -2 -2 -3 -2 -3 1 3 hvcurveto
1 vlineto
-1 -3 -3 -4 -1 hvcurveto
hintmask 010000000000000000000000000000000000000001000000
-12 6 -5 vlineto
hintmask 100000000000000000000000000000000001000000000000
-19 hlineto
hintmask 100000000000000000000010000000000000000000000000
-183 5 rmoveto
6 hlineto
hintmask 000000100000000000000010000000000000000000000000
31 -6 5 vlineto
hintmask 000000000000100000000001000000000000000000000000
21 -5 -5 hlineto
hintmask 000000100000000000000001000000000000000000000000
-12 16 12 -5 5 vlineto
hintmask 000000000000100000000000000100000000000000000000
21 -5 -6 hlineto
hintmask 010000000000000000000000000100000000000000000000
-31 6 -5 vlineto
hintmask 100000000000000000000001000000000000000000000000
-21 5 5 hlineto
hintmask 001000000000000000000001000000000000000000000000
14 -16 vlineto
hintmask 010000000000000000000001000000000000000000000000
-14 5 -5 vlineto
hintmask 100000000000000000000010000000000000000000000000
-21 hlineto
hintmask 100000000000000000000000000000000000000000100000
234 7 rmoveto
-2 2 -4 5 -4 4 rrcurveto
-2 -2 -1 -2 -3 vvcurveto
-4 3 -3 4 2 2 1 2 2 vhcurveto
111 -2 rmoveto
0 -3 -2 -3 -4 -4 -2 3 44 callsubr
0 3 2 3 4 4 2 -3 44 callsubr
endchar
                </CharString>
                <CharString name="hungarumlaut">
                    -25 callgsubr
                </CharString>
                <CharString name="hungarumlaut.cap">
                    -25 callgsubr
                </CharString>
                <CharString name="hyphen">
                    286 78 hstem
143 346 vstem
489 364 rmoveto
-331 hlineto
-15 -78 rlineto
331 hlineto
endchar
                </CharString>
                <CharString name="i">
                    32 callsubr
110.5 145.5 42 callsubr
55 callsubr
207 -583 -93 callsubr
                </CharString>
                <CharString name="iacute">
                    32 callsubr
251 -20 42 callsubr
238 660 -107 callgsubr
295 -610 -93 callsubr
                </CharString>
                <CharString name="ibreve">
                    32 callsubr
103 71 42 callsubr
558 820 -101 callgsubr
-77 -738 -93 callsubr
                </CharString>
                <CharString name="icircumflex">
                    32 callsubr
42 callsubr
513 620 -97 callgsubr
133 -697 -93 callsubr
                </CharString>
                <CharString name="idieresis">
                    -11 79 477 84 callsubr
44 callgsubr
-145 146 hstemhm
196 92 hintmask 11011000
530 638 -17 callgsubr
334 -584 -93 callsubr
                </CharString>
                <CharString name="igrave">
                    32 callsubr
257 -20 42 callsubr
508 652 -89 callsubr
47 -564 -93 callsubr
                </CharString>
                <CharString name="imacron">
                    32 callsubr
149 75 42 callsubr
579 749 -48 callgsubr
-32 -624 -93 callsubr
                </CharString>
                <CharString name="iogonek">
                    92 callgsubr
157 79 477 -20 110.5 145.5 hstemhm
185 83 -72 92 hintmask 11110100
55 callsubr
hintmask 11111000
113 -819 14 callsubr
46 52 51 213 84 vhcurveto
-10 48 rlineto
hintmask 11110100
-224 -55 -28 20 25 100 100 381 rcurveline
-49 callsubr
-27 -104 26 -59 102 4 rlinecurve
hintmask 11111000
-89 -50 -33 -49 -46 vvcurveto
90 callsubr
                </CharString>
                <CharString name="j">
                    -192 86 651 -20 110.5 148.5 hstem
356 45.82 vstem
486 638 rmoveto
46 150 -102 -4 -38 -151 rlineto
-384 -825 rmoveto
218 1 66 13 41 41 75 75 -71 177 126 429 -82 1 rcurveline
-242 -49 7 -47 210 20 -91 -358 47 -155 -41 -41 rlinecurve
-22 -22 -26 -3 -208 4 rrcurveto
endchar
                </CharString>
                <CharString name="k">
                    63 callsubr
485 96 hintmask 10011100
453 -7 rmoveto
hintmask 00111100
11 callsubr
hintmask 01011100
15 callgsubr
endchar
                </CharString>
                <CharString name="kcommaaccent">
                    63 callsubr
227 110 148 96 hintmask 10011110
453 -7 rmoveto
hintmask 00111110
11 callsubr
hintmask 01011110
15 callgsubr
-76 -515 -94 callsubr
                </CharString>
                <CharString name="l">
                    67 callsubr
vstem
-55 callsubr
endchar
                </CharString>
                <CharString name="l.ultra">
                    -7 74 629 88 hstem
136 90 279 84 vstem
512 72 rmoveto
-17 46 -160 -77 -87 5 -18 119 rlinecurve
251 192 108 178 132 vvcurveto
74 -39 43 -66 -156 -192 -284 -301 -222 143 -44 233 139 vhcurveto
-58 624 rmoveto
30 21 -22 -44 -92 -75 -145 -204 -169 hvcurveto
245 132 227 96 vhcurveto
endchar
                </CharString>
                <CharString name="lacute">
                    67 callsubr
vstem
420 894 -107 callgsubr
101 -822 -103 callsubr
endchar
                </CharString>
                <CharString name="lcaron">
                    67 callsubr
101 102 vstem
700 -25 callsubr
-281 -819 -103 callsubr
endchar
                </CharString>
                <CharString name="lcommaaccent">
                    -9 74 631 88 hstemhm
145 90 6 110 164 84 hintmask 11101000
-55 callsubr
hintmask 11011000
-270 -993 -94 callsubr
                </CharString>
                <CharString name="ldot">
                    -9 74 226 122 283 41 callsubr
vstem
-55 callsubr
195 -405 rmoveto
27 122 rlineto
-99 hlineto
-26 -122 rlineto
endchar
                </CharString>
                <CharString name="less">
                    -21 687 hstem
104 472 vstem
537 666 rmoveto
-419 -291 -14 -76 310 -320 62 60 -283 285 2 10 381 262 rlineto
endchar
                </CharString>
                <CharString name="lessequal">
                    16 76 hstem
42 533 vstem
219 396 rmoveto
356 193 -25 70 -419 -231 -15 -73 346 -203 43 67 -288 169 rlineto
282 -296 68 callgsubr
                </CharString>
                <CharString name="lslash">
                    -9 74 631 88 87 66 hstemhm
145 90 -72 61 291 84 hintmask 11101100
163 798 rmoveto
-42 29 -35 44 -32 vhcurveto
47 58 rlineto
-39 29 -20 18 19 vvcurveto
55 209 38 283 -82 vhcurveto
29 71 rlineto
-325 89 -257 -64 -122 vvcurveto
358 -726 -69 callgsubr
vhcurveto
hintmask 11110100
10 callgsubr
hvcurveto
-53 callsubr
rrcurveto
hintmask 11101100
-13 callgsubr
hintmask 11110100
-67 callsubr
endchar
                </CharString>
                <CharString name="m">
                    -10 69 -38 -21 472 84 -9 -20 hstemhm
317 76 43 86 -12 91 hintmask 10011100
591 23 rmoveto
-12 46 rlineto
-45 -16 -12 3 20 vvcurveto
hintmask 10101010
59 79 241 103 vvcurveto
51 -23 26 -41 -42 -50 -29 -58 -52 vhcurveto
58 2 -23 29 -41 hhcurveto
-38 -44 -26 -53 -48 hvcurveto
hintmask 01011010
3 24 5 33 1 13 -81 -6 rcurveline
-26 -160 -23 -123 -51 -258 rrcurveto
84 hlineto
hintmask 01101010
18 88 38 200 23 123 rrcurveto
41 39 35 20 23 hhcurveto
31 2 -33 -55 -11 hvcurveto
-75 -384 rlineto
69 hlineto
80 411 rlineto
41 39 35 20 24 hhcurveto
20 7 -15 -24 hvcurveto
hintmask 10011100
-78 -74 -240 -74 vvcurveto
-59 46 -11 109 52 vhcurveto
endchar
                </CharString>
                <CharString name="macron">
                    26 callsubr
                </CharString>
                <CharString name="macron.cap">
                    26 callsubr
                </CharString>
                <CharString name="minus">
                    287 76 hstem
93 460 vstem
553 363 rmoveto
-445 70 callsubr
endchar
                </CharString>
                <CharString name="mu">
                    -174 -21 184 83 -82 77 -40 -21 538 71 callsubr
389 90 hintmask 10100110
113 -188 rmoveto
hintmask 10010110
33 194 rlineto
hintmask 11000110
-11 15 20 -6 24 hhcurveto
61 60 43 84 68 hvcurveto
hintmask 10101010
-21 -126 48 -44 162 96 -10 45 rcurveline
-97 -40 -6 19 15 75 79 403 rcurveline
-86 hlineto
-70 -354 rlineto
hintmask 11000110
-79 -68 -55 -39 -49 hhcurveto
-47 -19 36 85 17 hvcurveto
69 355 -89 -7 -142 -736 rlineto
endchar
                </CharString>
                <CharString name="multiply">
                    541 -20 28 -20 hstemhm
75 495 hintmask 01100000
449 101 rmoveto
65 54 -134 166 rlineto
hintmask 10100000
190 157 -49 63 -191 -159 rlineto
hintmask 01100000
-134 167 -65 -54 134 -167 -190 -158 50 -61 190 158 rlineto
endchar
                </CharString>
                <CharString name="n">
                    49 callgsubr
578 41 -49 callgsubr
                </CharString>
                <CharString name="nacute">
                    49 callgsubr
245 672 -107 callgsubr
333 -631 -49 callgsubr
                </CharString>
                <CharString name="naira">
                    0 138 -117 -21 190.5 72 -69 72.5 -71.5 61.5 157.5 72.5 -69 72 -62 61.5 57.5 144 -2 64 callgsubr
hstemhm
16 619 hintmask 1000100110010000
232 546 rmoveto
7 hlineto
75 -289 -137 -2 rlineto
238 -117 rmoveto
-73 288 135 2 -55 -290 rlineto
-42 -138 rmoveto
82 hlineto
hintmask 0101001001010000
38 193 78 1 14 72 rlineto
-78 hlineto
29 151 rlineto
78 hlineto
14 73 -78 -2 39 200 rlineto
-69 hlineto
hintmask 0100100100110000
-38 -199 -162 -1 -51 202 -86 -4 rlineto
hintmask 0110010000110000
-39 -200 rlineto
-78 hlineto
-15 -73 79 1 -29 -151 -79 -1 -13 -72 78 1 -37 -191 rlineto
71 hlineto
hintmask 0100100100110000
37 194 165 1 rlineto
endchar
                </CharString>
                <CharString name="ncaron">
                    13 callgsubr
189 -20 83 callgsubr
hintmask 10011100
375 629 -89 callgsubr
207 -588 -47 callgsubr
endchar
                </CharString>
                <CharString name="ncommaaccent">
                    13 callgsubr
hstemhm
199 110 71 93 -22 95 hintmask 10011100
578 41 -47 callgsubr
-427 -340 -94 callsubr
                </CharString>
                <CharString name="nine">
                    271 66 292 73 hstem
114 82 289 85 vstem
129 -20 rmoveto
327 103 114 206 182 vvcurveto
156 -88 75 -119 -137 -112 -101 -148 -182 189 -65 166 142 vhcurveto
-34 -108 -98 -115 -228 -65 rrcurveto
87 407 rmoveto
90 58 72 92 75 64 -47 -132 -14 -1 -14 -2 -14 vhcurveto
-144 -124 -142 51 132 vvcurveto
endchar
                </CharString>
                <CharString name="nine.den">
                    -59 48 18 -21 174 56 hstemhm
104 67 195 69 hintmask 10111000
126 -246 -36 callsubr
vhcurveto
hintmask 01111000
-30 callsubr
hintmask 10111000
-54 callgsubr
                </CharString>
                <CharString name="nine.inf">
                    7 78 callgsubr
117 79 callgsubr
139 -180 -81 callgsubr
                </CharString>
                <CharString name="nine.num">
                    646 78 callgsubr
229 79 callgsubr
251 459 -81 callgsubr
                </CharString>
                <CharString name="nine.small">
                    8 -21 187 78 callgsubr
143 79 callgsubr
165 -13 -81 callgsubr
                </CharString>
                <CharString name="nine.sup">
                    542 78 callgsubr
208 79 callgsubr
230 355 -81 callgsubr
                </CharString>
                <CharString name="notequal">
                    28 -21 161 88 callsubr
515 168 rmoveto
15 76 rlineto
-215 hlineto
96 170 rlineto
151 hlineto
16 76 rlineto
-125 hlineto
78 138 -65 22 -90 -160 rlineto
-243 53 callgsubr
215 hlineto
-95 -170 rlineto
-152 53 callgsubr
124 hlineto
-78 -139 65 -22 90 161 rlineto
endchar
                </CharString>
                <CharString name="ntilde">
                    13 callgsubr
116 93 callgsubr
83 callgsubr
hintmask 10011110
481 712 -84 callsubr
97 -671 -20 callsubr
hintmask 10101101
-30 callgsubr
hintmask 01011110
-59 callgsubr
hintmask 10101101
-31 callsubr
hintmask 10011110
17 callgsubr
                </CharString>
                <CharString name="numbersign">
                    9 -21 40 -21 540 -20 162 -20 40 -20 hstemhm
42 566 hintmask 01101100
237 259 rmoveto
38 158 137 22 -37 -157 rlineto
hintmask 10101100
-202 -294 rmoveto
46 193 137 23 rlineto
hintmask 01101100
-46 -197 65 8 47 199 114 19 17 78 -112 -18 37 157 114 19 16 78 -111 -18 44 188 -66 -8 -45 -191 -137 -22 rlineto
hintmask 10110100
46 193 -65 -7 -47 -197 -113 -18 -16 -79 110 18 -37 -158 -113 -18 -16 -78 110 18 -45 -190 rlineto
endchar
                </CharString>
                <CharString name="numero">
                    20 -21 22 -21 122 67 54 70 310 70 -5 -20 hstemhm
405 68 123 68 hintmask 01111011
578 693 rmoveto
-94 -79 -150 -162 -94 32 -44 54 94 79 151 161 95 -33 43 -53 hvcurveto
hintmask 10110111
-359 -693 rmoveto
67 -1 133 689 rlineto
-74 hlineto
-83 -453 rlineto
-2 hlineto
-33 453 rlineto
-71 hlineto
hintmask 01111011
-135 -688 rlineto
75 hlineto
89 487 rlineto
3 hlineto
285 -101 rmoveto
101 47 136 43 20 13 -26 -46 -101 -48 -137 -43 -19 -13 26 47 vhcurveto
106 -264 rmoveto
13 67 rlineto
-224 hlineto
-13 -67 rlineto
endchar
                </CharString>
                <CharString name="o">
                    9 callsubr
559 336 -105 callgsubr
                </CharString>
                <CharString name="oacute">
                    9 callsubr
250 673 -107 callgsubr
309 -337 -105 callgsubr
                </CharString>
                <CharString name="obreve">
                    25 callsubr
83 71 0 callsubr
571 833 -101 callgsubr
-64 -465 -105 callgsubr
                </CharString>
                <CharString name="ocircumflex">
                    25 callsubr
127 -20 0 callsubr
525 633 -97 callgsubr
147 -424 -105 callgsubr
                </CharString>
                <CharString name="odieresis">
                    25 callsubr
-38 callgsubr
66 90 313 90 hintmask 11011100
543 651 -66 callsubr
hintmask 11101100
-77 callsubr
347 -311 -105 callgsubr
                </CharString>
                <CharString name="oe">
                    -10 79 411 75 -72 72 hstemhm
45 85 419 83 hintmask 10111000
317 385 rmoveto
-125 -58 -198 -73 -34 -22 35 69 121 64 196 72 34 17 -36 -62 vhcurveto
hintmask 11011000
192 95 rmoveto
25 15 -20 -35 -74 -59 -72 -108 -19 hvcurveto
110 19 49 110 59 hhcurveto
75 -415 rmoveto
-14 43 rlineto
-144 -72 -51 32 106 vvcurveto
11 0 10 1 11 vhcurveto
168 24 88 95 115 vvcurveto
hintmask 10111000
73 -37 42 -59 -58 -52 -43 -64 -40 vhcurveto
67 -14 -36 40 -56 hhcurveto
-132 -103 -202 -185 -119 45 -59 73 56 52 41 61 40 hvcurveto
hintmask 11011000
23 -108 85 -41 165 122 rrcurveto
endchar
                </CharString>
                <CharString name="ogonek">
                    -18 callsubr
                </CharString>
                <CharString name="ogonek.cap">
                    -18 callsubr
                </CharString>
                <CharString name="ograve">
                    9 callsubr
520 665 -89 callsubr
61 -291 -105 callgsubr
                </CharString>
                <CharString name="ohungarumlaut">
                    9 callsubr
253 635 -81 callsubr
112 -329 -105 callgsubr
                </CharString>
                <CharString name="omacron">
                    25 callsubr
129 75 0 callsubr
591 762 -48 callgsubr
-18 -351 -105 callgsubr
                </CharString>
                <CharString name="one">
                    0 76 466.5 173.5 0 -20 hstemhm
65 453 hintmask 10110000
497 hmoveto
21 77 rlineto
-167 hlineto
124 639 -89 -7 rlineto
hintmask 11010000
-16 -84 -178 -21 -11 -65 174 7 -91 -470 rlineto
-184 hlineto
91 callgsubr
                </CharString>
                <CharString name="one.den">
                    -233 -51 callgsubr
62 343 vstem
390 -233 -94 callgsubr
endchar
                </CharString>
                <CharString name="one.inf">
                    -167 -51 callgsubr
75 343 vstem
403 -167 -94 callgsubr
endchar
                </CharString>
                <CharString name="one.num">
                    472 -51 callgsubr
187 343 vstem
-79 callsubr
endchar
                </CharString>
                <CharString name="one.small">
                    0 -51 callgsubr
101 343 vstem
429 hmoveto
-98 callgsubr
endchar
                </CharString>
                <CharString name="one.sup">
                    368 -51 callgsubr
166 343 vstem
494 368 -94 callgsubr
endchar
                </CharString>
                <CharString name="oneeighth">
                    2 callsubr
104 -50 callgsubr
24 callgsubr
hintmask 1011111011000000
515 472 rmoveto
15 61 rlineto
-125 hlineto
79 396 -72 -6 -13 -67 -138 -17 -9 -54 134 7 -51 -259 rlineto
-136 hlineto
-12 -61 rlineto
-112 -163 -63 callgsubr
hintmask 1101111011000000
5 callgsubr
hintmask 1011111101000000
-42 callsubr
hintmask 1011111011000000
25 callgsubr
hintmask 1011111101000000
-83 callsubr
                </CharString>
                <CharString name="onefifth">
                    -234 62 186 -21 151 61 104 -21 callsubr
333 71 vstem
-90 callgsubr
317 -461 -103 callgsubr
                </CharString>
                <CharString name="onehalf">
                    -233 62 316 66 98 -21 callsubr
346 78 vstem
-90 callgsubr
291 -601 -90 callsubr
endchar
                </CharString>
                <CharString name="onequarter">
                    -144 61 392 -21 callsubr
70 498 vstem
-90 callgsubr
328 -512 -91 callsubr
                </CharString>
                <CharString name="onesixth">
                    -243 61 callgsubr
277 -21 callsubr
84 78 callsubr
-90 callgsubr
154 -611 -100 callgsubr
                </CharString>
                <CharString name="onethird">
                    -237 63 318 61 104 -21 callsubr
330 72 vstem
-90 callgsubr
315 -477 -96 callsubr
                </CharString>
                <CharString name="ordfeminine">
                    130 62 80 67 -65 57 304 60 hstemhm
134 76 182 74 hintmask 11011100
270 339 rmoveto
-32 -28 29 57 107 69 103 89 20 27 -4 -8 29 hvcurveto
-12 -62 -21 -105 -9 -44 rrcurveto
-39 -40 -54 -34 -38 hhcurveto
hintmask 10111100
279 -31 rmoveto
-8 34 -77 -25 -4 16 11 57 rlinecurve
58 288 rlineto
12 -50 -44 5 -38 hhcurveto
-155 -108 -141 -149 hvcurveto
hintmask 11011100
-86 43 -47 57 48 60 36 45 50 vhcurveto
hintmask 10111100
-8 -78 43 -31 122 64 rrcurveto
-443 -116 rmoveto
-12 -62 rlineto
403 hlineto
12 62 rlineto
endchar
                </CharString>
                <CharString name="ordmasculine">
                    130 62 80 61 304 59 hstem
155 75 246 75 vstem
551 526 rmoveto
106 -63 64 -98 -132 -103 -118 -135 -106 63 -65 98 133 102 119 135 vhcurveto
-321 -74 rmoveto
99 60 86 87 61 38 -46 -74 -100 -60 -84 -87 -62 -37 45 74 vhcurveto
-121 -260 rmoveto
-12 -62 rlineto
373 hlineto
11 62 rlineto
endchar
                </CharString>
                <CharString name="oslash">
                    48 callsubr
155 221 -68 callsubr
                </CharString>
                <CharString name="oslashacute">
                    48 callsubr
250 673 -107 callgsubr
-95 -452 -68 callsubr
                </CharString>
                <CharString name="otilde">
                    25 callsubr
86 93 callgsubr
0 callsubr
486 713 -84 callsubr
73 -377 -105 callgsubr
                </CharString>
                <CharString name="p">
                    75 callsubr
-10 -20 hstemhm
472 89 hintmask 11001100
81 callgsubr
23 119 23 120 9 51 rrcurveto
hintmask 11010100
55 53 73 47 49 hhcurveto
42 34 -39 -82 hvcurveto
hintmask 11001100
-146 -86 -145 -110 vhcurveto
-163 -250 rmoveto
hintmask 10101100
8 42 14 67 14 74 rrcurveto
hintmask 11010100
45 callgsubr
-62 -80 -53 -64 -65 hvcurveto
hintmask 11001100
7 40 7 52 3 15 -86 -5 rcurveline
-27 -179 -39 -196 -70 -362 rrcurveto
endchar
                </CharString>
                <CharString name="paragraph">
                    107 76 508 -20 hstem
90 86 vstem
441 183 rmoveto
-34 3 -31 5 -28 8 80 409 rcurveline
29 2 32 -1 35 -3 rrcurveto
-348 -219 rmoveto
97 59 86 129 29 vhcurveto
-74 -378 rlineto
-74 36 -40 59 71 vvcurveto
111 -506 rmoveto
46 239 29 -7 31 -4 33 -2 rlinecurve
-40 -207 78 9 153 782 rlineto
-332 23 -195 -147 -196 vvcurveto
-105 61 -81 111 -44 vhcurveto
-52 -270 rlineto
endchar
                </CharString>
                <CharString name="parenleft">
                    -226 1021 hstem
137 86 vstem
550 795 -16 callsubr
                </CharString>
                <CharString name="parenleft.cap">
                    -172 1021 hstem
148 86 vstem
561 849 -16 callsubr
                </CharString>
                <CharString name="parenright">
                    -235 1020 hstem
393 87 vstem
66 -235 -15 callsubr
                </CharString>
                <CharString name="parenright.cap">
                    -181 1020 hstem
404 87 vstem
77 -181 -15 callsubr
                </CharString>
                <CharString name="percent">
                    6 79 callsubr
704 -20 26 -20 hstemhm
135 193 28 194 hintmask 01011000
254 702 rmoveto
-60 -59 -81 -96 -69 32 -39 43 59 59 80 97 68 -32 40 -42 hvcurveto
hintmask 01101000
365 -49 rmoveto
-51 43 -503 -661 50 -43 rlineto
hintmask 10011100
316 -7 rmoveto
60 59 85 94 68 -33 39 -43 -59 -59 -85 -95 -67 33 -39 42 hvcurveto
endchar
                </CharString>
                <CharString name="period">
                    0 131 hstem
201 149 vstem
325 hmoveto
25 131 97 callsubr
-25 -131 rlineto
endchar
                </CharString>
                <CharString name="periodcentered">
                    274 130 hstem
239 156 vstem
370 274 rmoveto
25 130 rlineto
-131 hlineto
-25 -130 rlineto
endchar
                </CharString>
                <CharString name="peso">
                    21 -21 411 74 -67 64 136 75 hstemhm
493 83 hintmask 10111000
493 482 rmoveto
-256 hlineto
27 136 152 15 72 -63 5 -88 rlinecurve
-294 -195 rmoveto
26 131 rlineto
259 hlineto
-28 -83 -97 -53 -152 5 rrcurveto
hintmask 11011000
425 124 rmoveto
14 74 rlineto
-70 hlineto
133 -112 105 -273 -37 vhcurveto
-39 -201 rlineto
-83 31 callgsubr
83 hlineto
-79 -411 rlineto
84 hlineto
39 201 204 22 138 74 40 114 rlinecurve
endchar
                </CharString>
                <CharString name="plus">
                    287 76 hstem
74 498 vstem
556 287 rmoveto
16 76 rlineto
-201 hlineto
40 207 rlineto
-81 hlineto
-40 -207 rlineto
-201 53 callgsubr
201 hlineto
-40 -208 rlineto
81 hlineto
40 208 rlineto
endchar
                </CharString>
                <CharString name="plusminus">
                    68 74 189 75 hstem
43 529 vstem
504 68 rmoveto
15 74 rlineto
-191 hlineto
37 189 rlineto
191 hlineto
16 75 rlineto
-193 hlineto
39 200 rlineto
-81 hlineto
-39 -200 rlineto
-192 hlineto
-15 -75 rlineto
193 hlineto
-37 -189 rlineto
-190 31 callgsubr
endchar
                </CharString>
                <CharString name="published">
                    8 51 571 46 callgsubr
167 139 164 241 168 -96 99 27 callgsubr
-82 -144 -199 -110 -146 -133 -102 -77 82 148 vhcurveto
141 -125 rmoveto
22 115 rlineto
115 14 73 54 78 vvcurveto
69 -55 48 -145 -21 vhcurveto
-68 -357 rlineto
endchar
                </CharString>
                <CharString name="q">
                    -200 81 107 83 412 74 hstem
64 88 199 91 vstem
565 -146 rmoveto
-11 46 -113 -34 -8 9 13 66 rlinecurve
115 587 rlineto
17 -51 -62 12 -49 hhcurveto
-201 -134 -187 -200 -121 56 -61 71 61 75 46 59 62 hvcurveto
-33 -176 -24 -126 54 -30 179 93 rlinecurve
-333 217 rmoveto
-44 -36 39 82 145 85 146 111 28 42 -6 -12 42 hvcurveto
-57 -302 rlineto
-51 -54 -67 -41 -50 hhcurveto
endchar
                </CharString>
                <CharString name="question">
                    0 123 hstem
478 102 vstem
162 664 rmoveto
209 -25 107 -32 -80 vvcurveto
-63 -63 -60 -195 -100 vhcurveto
29 -49 rlineto
238 120 93 90 93 vvcurveto
106 -129 61 -270 28 vhcurveto
77 -753 rmoveto
25 123 rlineto
-121 hlineto
-25 -123 rlineto
endchar
                </CharString>
                <CharString name="questiondown">
                    566 122 hstem
73 100 vstem
394 688 rmoveto
-26 -122 rlineto
121 hlineto
26 122 rlineto
-25 -664 rmoveto
-209 25 -108 32 81 vvcurveto
62 65 60 194 100 vhcurveto
-28 49 rlineto
-239 -120 -92 -90 -93 vvcurveto
-106 128 -61 270 -28 vhcurveto
endchar
                </CharString>
                <CharString name="quotedbl">
                    425 318 hstem
180 400 vstem
481 425 rmoveto
94 277 5 41 72 callgsubr
hlineto
-54 -318 rlineto
-173 hmoveto
95 277 4 41 rlineto
-108 hlineto
-55 -318 rlineto
endchar
                </CharString>
                <CharString name="quotedblbase">
                    -173 -21 hstem
115 117 124 117 vstem
260 -172 rmoveto
35 -22 119 97 55 94 4 64 callsubr
-121 -4 14 -128 94 callgsubr
35 -22 116 97 55 94 4 137 rlinecurve
-121 -3 14 -129 -19 -78 -84 -96 rlinecurve
endchar
                </CharString>
                <CharString name="quotedblleft">
                    435 329 hstem
158 117 123 118 vstem
609 742 rmoveto
-36 22 -115 -97 -55 -94 -5 -137 rlinecurve
122 4 -14 128 18 78 85 96 rlinecurve
-238 hmoveto
74 callsubr
121 4 -14 128 19 79 87 96 rlinecurve
endchar
                </CharString>
                <CharString name="quotedblright">
                    411 330 hstem
228 118 122 119 vstem
373 433 rmoveto
35 -22 119 98 55 94 5 84 callgsubr
15 -129 94 callgsubr
36 -22 115 98 55 93 5 64 callsubr
-122 -4 14 -129 -18 -78 -85 -96 rlinecurve
endchar
                </CharString>
                <CharString name="quoteleft">
                    435 329 hstem
273 119 vstem
486 742 rmoveto
74 callsubr
123 4 -15 128 18 79 87 96 rlinecurve
endchar
                </CharString>
                <CharString name="quoteright">
                    411 330 hstem
347 119 vstem
252 433 rmoveto
36 -22 119 98 54 94 5 84 callgsubr
14 -129 76 callgsubr
                </CharString>
                <CharString name="quotesinglbase">
                    -173 -21 hstem
236 119 vstem
141 -172 rmoveto
36 -22 118 97 55 94 5 64 callsubr
-124 -4 15 -128 76 callgsubr
                </CharString>
                <CharString name="quotesingle">
                    425 318 hstem
299 166 vstem
363 425 rmoveto
98 277 4 41 rlineto
-112 hlineto
-54 -318 rlineto
endchar
                </CharString>
                <CharString name="r">
                    28 callsubr
570 32 -74 callsubr
                </CharString>
                <CharString name="racute">
                    28 callsubr
296 680 -107 callgsubr
274 -648 -74 callsubr
                </CharString>
                <CharString name="rcaron">
                    28 callsubr
411 637 -89 callgsubr
163 -605 -74 callsubr
                </CharString>
                <CharString name="rcommaaccent">
                    -10 71 491 -20 hstemhm
148 154 -124 110 46 91 hintmask 11011000
570 32 -4 callgsubr
rlineto
hintmask 11101000
-70 -31 -81 -22 -67 -9 rrcurveto
-64 callgsubr
rrcurveto
hintmask 11011000
21 callsubr
-440 -308 -94 callsubr
                </CharString>
                <CharString name="registered">
                    216 46 188.5 162.5 89 47 hstem
101 50 404 50 vstem
370 749 rmoveto
-157 -112 -122 -174 -147 91 -90 143 158 112 122 173 147 -91 91 -144 hvcurveto
-1 -47 rmoveto
110 76 -71 -126 -149 -94 -94 -124 -110 -76 72 125 150 94 93 124 hvcurveto
27 -346 rmoveto
57 7 -70 101 rlineto
57 25 22 28 31 vvcurveto
44 -43 35 -130 -18 vhcurveto
-48 -250 rlineto
52 hlineto
17 90 21 3 rlineto
endchar
                </CharString>
                <CharString name="registered.alt">
                    8 51 252.5 216.5 102 46 callgsubr
172 134 157 246 167 -96 102 27 callgsubr
-85 -145 -203 -105 -138 -138 -102 -77 82 148 vhcurveto
253 -123 rmoveto
66 7 -78 152 rlineto
63 31 38 40 44 vvcurveto
57 -53 46 -141 -20 vhcurveto
-69 -354 rlineto
58 hlineto
28 141 21 3 rlineto
endchar
                </CharString>
                <CharString name="ring">
                    4 callgsubr
                </CharString>
                <CharString name="ring.cap">
                    4 callgsubr
                </CharString>
                <CharString name="ruble">
                    21 -21 133 66 98 70 252 74 hstem
527 87 vstem
527 506 rmoveto
-94 -88 -43 -180 -2 vhcurveto
49 252 rlineto
153 13 66 -45 -81 vvcurveto
-79 -373 rmoveto
19 66 rlineto
-240 hlineto
19 101 rlineto
250 15 118 80 124 vvcurveto
122 -110 77 -271 -32 vhcurveto
-62 -319 rlineto
-93 hlineto
-14 -70 rlineto
-1 32 31 1 31 hhcurveto
-19 -95 rlineto
-95 hlineto
-12 -69 rlineto
94 hlineto
-26 -133 rlineto
88 hlineto
26 133 rlineto
endchar
                </CharString>
                <CharString name="rupee">
                    -8 73 -44 98 callgsubr
616 71 hstemhm
314 75 50 148 -82 81 hintmask 10011010
238 -6 rmoveto
hintmask 00111010
76 12 -57 299 rlineto
84 83 48 79 93 vvcurveto
97 -63 52 -151 -21 vhcurveto
hintmask 01011010
-133 -688 rlineto
72 94 callsubr
25 -25 -55 87 callgsubr
hintmask 10011010
400 -163 rmoveto
84 -44 86 -19 77 vhcurveto
hintmask 10011100
117 87 -10 80 -58 hhcurveto
-54 -49 -78 -87 -17 2 -17 3 -16 hvcurveto
-22 -29 -28 -32 -38 -38 23 -31 rcurveline
hintmask 10011010
30 25 26 24 23 23 rrcurveto
19 -65 28 -60 -53 vvcurveto
-55 -16 -31 -136 20 vhcurveto
-1 -79 rlineto
195 -15 39 86 81 vvcurveto
endchar
                </CharString>
                <CharString name="rupeeindia">
                    404 66 140 78 hstem
76 550 vstem
495 33 rmoveto
-132 116 -73 58 -87 28 143 22 96 64 25 83 rrcurveto
97 hlineto
12 66 rlineto
-104 hlineto
-8 57 -38 53 -73 30 rrcurveto
253 hlineto
20 78 rlineto
-451 hlineto
-19 -76 155 -15 64 -60 11 -67 rlinecurve
-255 hlineto
-12 -66 rlineto
261 hlineto
-24 -66 -82 -54 -171 -11 -27 -68 rcurveline
139 -40 56 -48 150 -134 rrcurveto
endchar
                </CharString>
                <CharString name="s">
                    39 callgsubr
522 146 -71 callgsubr
                </CharString>
                <CharString name="sacute">
                    39 callgsubr
263 704 -107 callgsubr
259 -558 -71 callgsubr
                </CharString>
                <CharString name="scaron">
                    39 callgsubr
392 661 -89 callgsubr
134 -515 -71 callgsubr
                </CharString>
                <CharString name="scedilla">
                    -59 128 -79 79 -52 -21 hstemhm
267 169 -120 79 39 88 hintmask 10001100
316 -204 rmoveto
79 2 rlineto
hintmask 00101100
7 110 -33 65 -50 23 rrcurveto
156 20 47 63 67 vvcurveto
35 callsubr
hintmask 01010000
-67 callgsubr
hintmask 01001100
-28 callsubr
-1 26 25 -1 23 hhcurveto
-39 -23 -34 -49 -32 -76 47 -16 rcurveline
hintmask 10001100
-23 callsubr
endchar
                </CharString>
                <CharString name="schwa">
                    -13 74 227 52 139 77 hstem
65 86 311 87 vstem
220 -13 rmoveto
187 142 191 173 183 -158 100 -296 -151 hvcurveto
11 -47 rlineto
253 82 103 -36 -142 vvcurveto
-254 -18 -143 -78 -127 vvcurveto
-80 59 -50 96 vhcurveto
22 74 rmoveto
-57 -34 30 44 89 119 49 188 15 hvcurveto
-115 -20 -80 -112 -116 hhcurveto
endchar
                </CharString>
                <CharString name="scommaaccent">
                    -8 77 hstemhm
188 110 -31 169 -2 88 hintmask 11010000
522 146 rmoveto
35 callsubr
hintmask 10100000
-67 callgsubr
hintmask 11010000
-33 callgsubr
-382 -444 -94 callsubr
                </CharString>
                <CharString name="section">
                    -120 73 674 74 hstemhm
83 84 19 91 99 92 -3 84 hintmask 11100100
167 280 rmoveto
49 69 34 77 14 vhcurveto
73 -42 79 -31 -46 vvcurveto
-36 -47 -29 -110 -26 vhcurveto
-72 35 -69 32 46 vvcurveto
hintmask 11101000
301 -263 rmoveto
51 -43 36 -54 31 vhcurveto
hintmask 11110100
115 32 63 41 63 125 -272 34 110 vvcurveto
47 46 40 65 63 34 -34 -78 12 vhcurveto
79 16 rlineto
111 -14 -49 59 -105 hhcurveto
-129 -1 -93 -84 -89 vvcurveto
-49 31 -37 42 -30 vhcurveto
hintmask 11101000
-99 -22 -77 -47 -77 -135 293 -32 -87 vvcurveto
-51 -81 -37 -248 65 vhcurveto
-20 -85 rlineto
315 -67 126 90 91 vvcurveto
endchar
                </CharString>
                <CharString name="semicolon">
                    -173 -21 559 132 hstem
229 120 vstem
397 365 rmoveto
26 132 rlineto
-125 hlineto
-25 -132 rlineto
-140 -538 rmoveto
36 -21 121 100 53 92 6 135 rlinecurve
-123 -3 12 -128 76 callgsubr
                </CharString>
                <CharString name="servicemark">
                    320 53 230 86 -44 52 -9 -20 21 -20 hstemhm
120 59 40 60 157 42 hintmask 10100111
445 383 rmoveto
32 hlineto
hintmask 11000111
65 callsubr
hintmask 10010111
65 callgsubr
hintmask 10001111
74 callgsubr
hintmask 11000111
54 280 rlineto
3 hlineto
hintmask 10100111
-109 -4 rmoveto
64 -7 -28 34 -52 hhcurveto
-65 -46 -49 -59 hvcurveto
-83 99 -40 -57 vvcurveto
-37 -37 -13 -107 34 vhcurveto
-11 -60 rlineto
156 -39 59 56 63 79 -100 40 65 vvcurveto
30 19 18 24 22 15 -18 -38 5 vhcurveto
endchar
                </CharString>
                <CharString name="seven">
                    16 -21 30 -21 604 80 hstemhm
120 507 hintmask 10110000
211 -5 rmoveto
110 208 134 212 157 200 15 73 rcurveline
-447 hlineto
-17 -80 rlineto
351 -5 hlineto
hintmask 01110000
-155 -195 -130 -201 -109 -203 rrcurveto
endchar
                </CharString>
                <CharString name="seven.den">
                    144 62 hstem
109 358 vstem
187 -238 -70 callgsubr
endchar
                </CharString>
                <CharString name="seven.inf">
                    210 62 hstem
122 358 vstem
200 -172 -70 callgsubr
endchar
                </CharString>
                <CharString name="seven.num">
                    849 62 hstem
234 358 vstem
312 467 -70 callgsubr
endchar
                </CharString>
                <CharString name="seven.small">
                    16 -21 30 -21 373 62 hstemhm
148 358 hintmask 10110000
226 -5 -61 callsubr
rlineto
hintmask 01110000
-1 callgsubr
rrcurveto
endchar
                </CharString>
                <CharString name="seven.sup">
                    745 62 hstem
213 358 vstem
291 363 -70 callgsubr
endchar
                </CharString>
                <CharString name="seveneighths">
                    2 callsubr
481 62 24 callgsubr
hintmask 1011110110000000
312 467 -70 callgsubr
-159 -167 -63 callgsubr
hintmask 1101110110000000
5 callgsubr
hintmask 1011111010000000
-42 callsubr
hintmask 1011110110000000
25 callgsubr
hintmask 1011111010000000
-83 callsubr
                </CharString>
                <CharString name="six">
                    -12 73 292 66 292 -20 hstem
83 85 289 83 vstem
290 -12 rmoveto
137 113 101 148 182 -190 65 -166 -142 hvcurveto
34 108 98 115 228 66 -20 80 rcurveline
-327 -104 -114 -207 -181 vvcurveto
-156 88 -75 119 vhcurveto
17 73 rmoveto
-74 -65 47 132 14 1 14 2 14 hvcurveto
145 124 141 -51 -131 vvcurveto
-92 -59 -71 -91 vhcurveto
endchar
                </CharString>
                <CharString name="six.den">
                    -243 61 callgsubr
hstem
84 78 callsubr
241 -243 -100 callgsubr
                </CharString>
                <CharString name="six.inf">
                    -177 61 callgsubr
hstem
97 78 callsubr
254 -177 -100 callgsubr
                </CharString>
                <CharString name="six.num">
                    462 61 callgsubr
-44 -20 hstemhm
209 60 callsubr
hintmask 11011000
366 462 rmoveto
98 76 63 94 hvcurveto
hintmask 10111000
-2 callgsubr
vhcurveto
-58 callgsubr
hintmask 11011000
-78 callgsubr
                </CharString>
                <CharString name="six.small">
                    -10 61 callgsubr
hstem
123 78 callsubr
280 -10 -100 callgsubr
                </CharString>
                <CharString name="six.sup">
                    358 61 callgsubr
hstem
188 78 callsubr
345 358 -100 callgsubr
                </CharString>
                <CharString name="slash">
                    -202 999 hstem
-64 752 vstem
616 797 rmoveto
-680 -977 80 -22 672 967 rlineto
endchar
                </CharString>
                <CharString name="space">
                    endchar
                </CharString>
                <CharString name="sterling">
                    -8 83 -68 -21 51 38 211 68 267 83 hstemhm
174 93 245 86 hintmask 10011110
554 147 rmoveto
-40 21 -65 -131 -64 34 -164 36 rlinecurve
21 53 9 63 8 63 rrcurveto
205 hlineto
12 68 rlineto
-209 hlineto
8 63 10 60 23 46 rrcurveto
56 28 45 42 54 hhcurveto
47 30 -30 -102 hvcurveto
86 4 rlineto
137 3 -43 74 -103 hhcurveto
-101 -82 -78 -82 -40 hvcurveto
-31 -61 -11 -63 -8 -66 rrcurveto
-83 hlineto
-14 -68 rlineto
89 hlineto
-7 -54 -9 -56 -20 -59 rrcurveto
hintmask 01111110
6 -156 -34 -137 115 hhcurveto
42 40 18 33 32 hvcurveto
hintmask 10011110
218 -54 83 -45 76 209 rrcurveto
endchar
                </CharString>
                <CharString name="t">
                    57 callgsubr
hstem
170 90 vstem
516 57 -59 callsubr
endchar
                </CharString>
                <CharString name="tcaron">
                    57 callgsubr
hstem
170 90 240 102 vstem
500 920 -43 callsubr
-86 -868 -59 callsubr
endchar
                </CharString>
                <CharString name="tcommaaccent">
                    57 callgsubr
hstemhm
170 90 -53 110 hintmask 11110000
516 57 -59 callsubr
hintmask 11101000
-357 -358 -94 callsubr
                </CharString>
                <CharString name="thorn">
                    75 callsubr
85 callgsubr
472 89 hintmask 11011100
81 callgsubr
57 292 rlineto
54 53 71 46 49 hhcurveto
42 34 -39 -82 -146 -86 -145 -110 hvcurveto
-163 -250 rmoveto
hintmask 10111100
36 183 rlineto
hintmask 11011100
45 callgsubr
-60 -77 -50 -61 -64 hvcurveto
66 335 -89 -7 -188 -969 rlineto
endchar
                </CharString>
                <CharString name="three">
                    -6 82 -55 -21 610 78 hstemhm
445 85 hintmask 10110000
530 191 rmoveto
76 -62 71 -180 49 vhcurveto
297 226 9 75 rlineto
-400 hlineto
-15 -78 rlineto
308 hlineto
-302 -227 -5 -42 rlineto
197 -48 68 -56 -59 vvcurveto
-63 -71 -64 -297 34 93 callsubr
351 -33 113 119 105 vvcurveto
endchar
                </CharString>
                <CharString name="three.den">
                    -237 95 callsubr
330 72 vstem
402 -109 -96 callsubr
                </CharString>
                <CharString name="three.inf">
                    -171 95 callsubr
343 72 vstem
415 -43 -96 callsubr
                </CharString>
                <CharString name="three.num">
                    468 50 callgsubr
hstem
455 72 vstem
-62 callgsubr
endchar
                </CharString>
                <CharString name="three.small">
                    -4 63 -38 -21 377 61 hstemhm
369 72 hintmask 10110000
441 124 -104 callsubr
hintmask 01110000
-9 -65 rlineto
hintmask 10110000
251 -24 82 78 70 vvcurveto
endchar
                </CharString>
                <CharString name="three.sup">
                    364 95 callsubr
434 72 vstem
506 492 -96 callsubr
                </CharString>
                <CharString name="threeeighths">
                    2 callsubr
100 63 184 -20 154 90 callgsubr
62 72 hintmask 1011111101110000
-73 callgsubr
306 -493 rmoveto
47 -45 41 -46 38 vhcurveto
39 20 49 23 59 27 -22 41 rcurveline
-66 -30 -54 -26 -44 -23 rrcurveto
-33 27 -26 26 24 vvcurveto
35 42 27 134 -31 vhcurveto
24 67 rlineto
-176 28 -92 -64 -68 vvcurveto
hintmask 1101111101110000
5 callgsubr
hintmask 1011111110110000
-42 callsubr
hintmask 1011111101110000
25 callgsubr
hintmask 1011111110110000
-83 callsubr
                </CharString>
                <CharString name="threefifths">
                    73 callsubr
100 50 callgsubr
hstem
333 71 51 72 vstem
-73 callgsubr
317 -461 -103 callgsubr
                </CharString>
                <CharString name="threequarters">
                    -144 61 392 59 100 50 callgsubr
hstem
455 72 vstem
-73 callgsubr
328 -512 -91 callsubr
                </CharString>
                <CharString name="tilde">
                    -34 callsubr
                </CharString>
                <CharString name="tilde.cap">
                    -34 callsubr
                </CharString>
                <CharString name="trademark">
                    636 52 -52 53 hstemhm
436 42 hintmask 10100000
194 636 rmoveto
-61 -312 rlineto
58 hlineto
60 312 rlineto
77 hlineto
11 52 rlineto
-217 hlineto
-11 -52 rlineto
334 -253 rmoveto
32 hlineto
65 callsubr
65 callgsubr
hintmask 01100000
74 callgsubr
54 280 rlineto
3 hlineto
endchar
                </CharString>
                <CharString name="two">
                    0 78 531 86 hstem
471 90 vstem
493 hmoveto
15 78 rlineto
-331 hlineto
245 167 139 117 151 vvcurveto
143 -128 67 -248 -39 vhcurveto
-14 -85 rlineto
223 34 77 -51 -91 vvcurveto
-126 -152 -114 -265 -180 vhcurveto
-71 vlineto
endchar
                </CharString>
                <CharString name="two.den">
                    -233 43 callsubr
346 78 vstem
378 -233 -90 callsubr
endchar
                </CharString>
                <CharString name="two.inf">
                    -167 43 callsubr
359 78 vstem
391 -167 -90 callsubr
endchar
                </CharString>
                <CharString name="two.num">
                    472 43 callsubr
471 -18 callgsubr
endchar
                </CharString>
                <CharString name="two.small">
                    0 43 callsubr
385 78 vstem
417 hmoveto
-96 callgsubr
endchar
                </CharString>
                <CharString name="two.sup">
                    368 43 callsubr
450 78 vstem
482 368 -90 callsubr
endchar
                </CharString>
                <CharString name="twofifths">
                    73 callsubr
104 43 callsubr
333 71 67 -32 callsubr
317 -461 -103 callgsubr
                </CharString>
                <CharString name="twothirds">
                    -237 63 318 61 104 59 104 43 callsubr
330 72 69 -32 callsubr
315 -477 -96 callsubr
                </CharString>
                <CharString name="u">
                    -14 callgsubr
583 42 -87 callgsubr
                </CharString>
                <CharString name="uacute">
                    -27 callgsubr
251 -20 41 callgsubr
263 663 -107 callgsubr
320 -621 -88 callsubr
                </CharString>
                <CharString name="ubreve">
                    -27 callgsubr
103 71 41 callgsubr
584 823 -101 callgsubr
-53 -749 -88 callsubr
                </CharString>
                <CharString name="ucircumflex">
                    -14 callgsubr
538 623 -97 callgsubr
158 -708 -87 callgsubr
                </CharString>
                <CharString name="udieresis">
                    -27 callgsubr
109.5 146.5 -144 147 13 callsubr
hintmask 01010111
556 641 -66 callsubr
hintmask 01101011
-77 callsubr
358 -595 -35 callsubr
-41 callgsubr
hintmask 10011011
-52 callsubr
-83 callgsubr
hintmask 01101011
-38 callsubr
                </CharString>
                <CharString name="ugrave">
                    -14 callgsubr
533 655 -89 callsubr
72 -575 -87 callgsubr
                </CharString>
                <CharString name="uhungarumlaut">
                    -14 callgsubr
265 625 -81 callsubr
124 -613 -87 callgsubr
                </CharString>
                <CharString name="umacron">
                    -27 callgsubr
149 75 41 callgsubr
604 752 -48 callgsubr
-7 -635 -88 callsubr
                </CharString>
                <CharString name="underscore">
                    -126 70 hstem
-30 553 vstem
523 -56 rmoveto
-540 hlineto
-13 -70 rlineto
540 hlineto
endchar
                </CharString>
                <CharString name="underscore.alt">
                    -126 70 hstem
-72 646 vstem
574 -56 rmoveto
-632 hlineto
-14 -70 rlineto
633 hlineto
endchar
                </CharString>
                <CharString name="uni00A0">
                    endchar
                </CharString>
                <CharString name="uogonek">
                    92 callgsubr
155 85 -48 -21 39 25 477 71 callsubr
90 90 114 83 14 88 hintmask 1001011110000000
548 -186 14 callsubr
44 47 56 159 73 vhcurveto
hintmask 1001101010000000
-32 callgsubr
-41 callgsubr
hintmask 1100011010000000
-52 callsubr
-79 callgsubr
62 67 44 83 74 hvcurveto
hintmask 1010011010000000
-9 -62 10 -37 32 -12 rrcurveto
hintmask 1100011110000000
-93 -54 -40 -55 -50 vvcurveto
hintmask 1001011110000000
90 callsubr
                </CharString>
                <CharString name="uring">
                    -27 callgsubr
84 233 41 callgsubr
424 845 -61 callgsubr
159 -803 -88 callsubr
                </CharString>
                <CharString name="v">
                    -4 91 457 -20 23 -20 hstemhm
109 512 hintmask 10110000
280 87 rmoveto
-8 hlineto
-29 154 -24 155 -21 151 -89 -5 rcurveline
24 -181 32 -183 36 -182 rrcurveto
113 hlineto
hintmask 11010000
105 178 106 192 96 178 rrcurveto
-93 hlineto
hintmask 10110000
-79 -150 -81 -154 -88 -153 rrcurveto
endchar
                </CharString>
                <CharString name="w">
                    54 callgsubr
366 hmoveto
-40 callgsubr
                </CharString>
                <CharString name="wacute">
                    23 callgsubr
251 -20 97 callgsubr
hintmask 01111000
257 658 -107 callgsubr
109 -658 -41 callsubr
                </CharString>
                <CharString name="wcircumflex">
                    54 callgsubr
532 618 -97 callgsubr
-53 -745 rmoveto
-40 callgsubr
                </CharString>
                <CharString name="wdieresis">
                    23 callgsubr
109.5 44 callgsubr
-145 148 97 callgsubr
hintmask 01101100
549 636 -66 callsubr
hintmask 01110100
-77 callsubr
148 -632 15 callsubr
hintmask 10110100
-86 callsubr
                </CharString>
                <CharString name="wgrave">
                    23 callgsubr
257 -20 97 callgsubr
hintmask 01111000
527 650 -89 callsubr
-139 -612 -41 callsubr
                </CharString>
                <CharString name="x">
                    19 -21 23 -21 24 -21 541 -20 23 -20 hstemhm
3 614 hintmask 10001100
412 -2 rmoveto
hintmask 00110100
98 5 -143 269 250 272 rlineto
-97 hlineto
-196 -220 rlineto
hintmask 01001100
-117 223 -97 -5 143 -270 -250 -272 rlineto
97 hlineto
196 221 rlineto
endchar
                </CharString>
                <CharString name="y">
                    -28 callgsubr
473 -90 -99 callsubr
                </CharString>
                <CharString name="yacute">
                    -28 callgsubr
259 669 -107 callgsubr
214 -759 -99 callsubr
                </CharString>
                <CharString name="ycircumflex">
                    -28 callgsubr
534 629 -97 callgsubr
52 -846 -99 callsubr
                </CharString>
                <CharString name="ydieresis">
                    -11 callsubr
108.5 -46 callgsubr
84 90 240 76 hintmask 1010101110000000
551 647 -66 callsubr
hintmask 1010110110000000
-77 callsubr
253 -733 -75 callgsubr
hintmask 1011010110000000
-76 callsubr
hintmask 0110110110000000
-13 -88 rlineto
hintmask 1010110110000000
3 callsubr
                </CharString>
                <CharString name="yen">
                    0 202 -68 68 103 68 315 64 callgsubr
hstemhm
50 609 hintmask 01101100
518 134 rmoveto
15 68 rlineto
-191 hlineto
11 61 30 42 rlineto
169 hlineto
13 68 rlineto
-133 hlineto
hintmask 01110100
227 315 rlineto
-94 hlineto
-235 -343 rlineto
hintmask 01101100
-111 345 -91 -4 105 -313 rlineto
-137 hlineto
-13 -68 rlineto
173 hlineto
13 -38 -13 -65 rlineto
-193 hlineto
-13 -68 rlineto
193 hlineto
hintmask 10101100
-27 -134 rlineto
88 hlineto
hintmask 01101100
25 134 rlineto
endchar
                </CharString>
                <CharString name="ygrave">
                    -28 callgsubr
529 661 -89 callsubr
-34 -713 -99 callsubr
                </CharString>
                <CharString name="z">
                    9 callgsubr
hstem
41 543 vstem
481 hmoveto
-45 callgsubr
                </CharString>
                <CharString name="zacute">
                    9 callgsubr
231 -20 hstem
41 543 vstem
252 659 -107 callgsubr
229 -659 rmoveto
-45 callgsubr
                </CharString>
                <CharString name="zcaron">
                    9 callgsubr
159 -20 95 71 callsubr
41 569 hintmask 11101100
381 616 rmoveto
hintmask 11110100
-65 callgsubr
rlineto
hintmask 11101100
-72 callsubr
104 -616 rmoveto
-45 callgsubr
                </CharString>
                <CharString name="zdotaccent">
                    9 callgsubr
90.5 44 callgsubr
hstem
41 543 vstem
426 635 -46 callsubr
149 -634 rmoveto
-45 callgsubr
                </CharString>
                <CharString name="zero">
                    -13 75 564 75 hstem
73 90 327 90 vstem
73 242 rmoveto
-169 82 callsubr
241 168 80 callsubr
-241 vhcurveto
298 384 rmoveto
68 44 -52 -105 8 hvcurveto
-328 -172 rlineto
168 13 83 161 112 hhcurveto
-89 -564 rmoveto
-69 -45 54 108 -6 hvcurveto
328 170 rlineto
-169 -12 -82 -163 -114 hhcurveto
endchar
                </CharString>
                <CharString name="zero.alt">
                    -13 77 560 77 hstem
73 88 331 88 vstem
73 244 rmoveto
-171 82 callsubr
239 170 80 callsubr
-239 vhcurveto
88 8 rmoveto
183 88 189 123 74 46 -61 -127 -183 -87 -189 -124 -74 -46 61 127 vhcurveto
endchar
                </CharString>
                <CharString name="zero.den">
                    -244 59 callsubr
77 60 callgsubr
77 -70 -84 callgsubr
                </CharString>
                <CharString name="zero.inf">
                    -178 59 callsubr
90 60 callgsubr
90 -4 -84 callgsubr
                </CharString>
                <CharString name="zero.num">
                    461 59 callsubr
202 60 callgsubr
202 635 -84 callgsubr
                </CharString>
                <CharString name="zero.small">
                    -11 59 callsubr
116 60 callgsubr
116 163 -84 callgsubr
                </CharString>
                <CharString name="zero.sup">
                    357 59 callsubr
181 60 callgsubr
181 531 -84 callgsubr
                </CharString>
                <CharString name="less_exclam_hyphen_hyphen.liga">
                    -21 687 -666 124 162 78 hstemhm
-1771 472 -418 616 29 274 20 1267 hintmask 01001110
-925 260 rmoveto
21 95 83 296 23 100 rrcurveto
-116 hlineto
-17 -100 -35 -296 -18 -95 rrcurveto
hintmask 10001110
-354 406 rmoveto
-419 -291 rlineto
hintmask 10010110
-14 -76 310 -320 62 60 rlineto
hintmask 01110110
-245 247 rlineto
528 hlineto
15 78 rlineto
-535 hlineto
337 232 rlineto
521 -310 rmoveto
1252 hlineto
15 78 rlineto
-1252 hlineto
-187 -364 rmoveto
25 124 rlineto
-121 hlineto
-26 -124 rlineto
endchar
                </CharString>
                <CharString name="equal_equal_equal.liga">
                    168 76 170 76 hstem
-1205 1809 vstem
604 613 rmoveto
-1695 hlineto
-15 -76 rlineto
1694 hlineto
-36 -170 rmoveto
-1695 hlineto
-15 -76 rlineto
1694 hlineto
-32 -170 rmoveto
-1694 hlineto
-15 -76 rlineto
1694 hlineto
endchar
                </CharString>
                <CharString name="equal_equal_greater.liga">
                    -21 687 -498 76 170 76 hstemhm
-1179 1727 hintmask 00110000
177 606 rmoveto
115 -116 rlineto
-1409 hlineto
-15 -76 rlineto
1499 hlineto
92 -93 -2 -10 rlineto
hintmask 01110000
-97 -67 rlineto
-1524 hlineto
-15 -76 rlineto
1428 hlineto
-173 -119 rlineto
hintmask 10010000
39 -70 419 291 14 77 -310 319 rlineto
endchar
                </CharString>
                <CharString name="equal_less_less.liga">
                    -21 687 -498 76 170 76 hstemhm
-1179 1137 -204 472 -122 472 hintmask 00101000
226 596 rmoveto
hintmask 10001000
-39 70 rlineto
hintmask 00101000
-253 -176 rlineto
-1051 hlineto
-15 -76 rlineto
956 hlineto
-56 -39 -14 -76 rlineto
hintmask 01101000
53 -55 rlineto
-971 hlineto
-15 -76 rlineto
1060 hlineto
hintmask 10001000
183 -189 62 60 -283 285 2 10 rlineto
hintmask 10010100
731 262 rmoveto
-39 70 -419 -291 -14 -76 310 -320 62 60 -283 285 2 10 rlineto
endchar
                </CharString>
                <CharString name="exclam_equal_equal.liga">
                    -202 999 hstemhm
-1205 1809 -1328 752 hintmask 11000000
604 613 rmoveto
-682 hlineto
hintmask 10100000
106 152 -72 32 -128 -184 rlineto
-919 hlineto
-15 -76 rlineto
881 hlineto
-118 -170 rlineto
-800 hlineto
-15 -76 rlineto
762 hlineto
-119 -170 rlineto
-675 hlineto
hintmask 11000000
-15 -76 rlineto
638 hlineto
hintmask 10100000
-157 -225 80 -22 172 247 rlineto
961 hlineto
15 76 rlineto
-924 hlineto
119 170 rlineto
837 hlineto
16 76 rlineto
-801 hlineto
119 170 rlineto
718 hlineto
endchar
                </CharString>
                <CharString name="greater_equal_greater.liga">
                    -21 687 -498 76 170 76 hstemhm
-1174 1722 hintmask 00110000
177 606 rmoveto
115 -116 rlineto
-1133 hlineto
hintmask 10010000
-171 176 -61 -60 282 -285 -2 -10 -381 -262 39 -70 rlineto
hintmask 01110000
272 189 rlineto
1112 hlineto
-173 -119 rlineto
hintmask 10010000
39 -70 419 291 14 77 -310 319 rlineto
hintmask 01110000
122 -422 rmoveto
-1113 hlineto
37 26 14 77 -65 67 rlineto
1134 hlineto
92 -93 -2 -10 rlineto
endchar
                </CharString>
                <CharString name="greater_greater_equal.liga">
                    -21 687 -498 76 170 76 hstemhm
-1174 472 -122 472 hintmask 10001000
-1012 666 rmoveto
-61 -60 282 -285 -2 -10 rlineto
hintmask 10010000
-381 -262 39 -70 419 291 14 77 rlineto
hintmask 00110000
211 143 rmoveto
hintmask 10010000
-171 176 -61 -60 282 -285 -2 -10 rlineto
hintmask 10001000
-381 -262 39 -70 rlineto
hintmask 01101000
272 189 rlineto
1028 hlineto
15 76 rlineto
-933 hlineto
37 26 14 77 -65 67 rlineto
979 hlineto
16 76 rlineto
endchar
                </CharString>
                <CharString name="hyphen_hyphen_greater.liga">
                    -21 687 -380 78 hstemhm
-1107 1655 hintmask 10100000
177 606 rmoveto
hintmask 01100000
239 -242 rlineto
-1508 hlineto
-15 -78 rlineto
1528 hlineto
-345 -237 rlineto
hintmask 10100000
39 -70 419 291 14 77 -310 319 rlineto
endchar
                </CharString>
                <CharString name="less_equal_equal.liga">
                    -21 687 -498 76 170 76 hstemhm
-1146 1724 hintmask 00110000
562 414 rmoveto
16 76 rlineto
-1406 hlineto
154 106 rlineto
hintmask 10010000
-39 70 -419 -291 -14 -76 310 -320 62 60 rlineto
hintmask 01110000
-128 129 rlineto
1417 hlineto
15 76 rlineto
-1508 hlineto
-79 80 2 10 116 80 rlineto
endchar
                </CharString>
                <CharString name="less_equal_greater.liga">
                    -21 687 -498 76 170 76 hstemhm
-1146 1694 hintmask 00110000
177 606 rmoveto
115 -116 rlineto
-1120 hlineto
154 106 rlineto
hintmask 10010000
-39 70 -419 -291 -14 -76 310 -320 62 60 rlineto
hintmask 01110000
-128 129 rlineto
1151 hlineto
-173 -119 rlineto
hintmask 10010000
39 -70 419 291 14 77 -310 319 rlineto
hintmask 01110000
122 -422 rmoveto
-1338 hlineto
-79 80 2 10 116 80 rlineto
1306 hlineto
92 -93 -2 -10 rlineto
endchar
                </CharString>
                <CharString name="less_equal_less.liga">
                    -21 687 -498 76 170 76 hstemhm
-1146 1722 hintmask 00110000
576 596 rmoveto
hintmask 10010000
-39 70 rlineto
hintmask 00110000
-253 -176 rlineto
-1112 hlineto
154 106 rlineto
hintmask 10010000
-39 70 -419 -291 -14 -76 310 -320 62 60 rlineto
hintmask 01110000
-128 129 rlineto
1133 hlineto
hintmask 10010000
183 -189 62 60 -283 285 2 10 rlineto
-1252 -10 rmoveto
2 10 rlineto
hintmask 00110000
116 80 rlineto
1113 hlineto
-56 -39 -14 -76 rlineto
hintmask 01110000
53 -55 rlineto
-1135 hlineto
endchar
                </CharString>
                <CharString name="less_hyphen_greater.liga">
                    -21 687 -380 78 hstemhm
-1146 472 750 472 hintmask 10110000
238 666 rmoveto
-61 -60 rlineto
hintmask 01110000
239 -242 rlineto
-1427 hlineto
337 232 rlineto
hintmask 10110000
-39 70 -419 -291 -14 -76 310 -320 62 60 rlineto
hintmask 01110000
-245 247 rlineto
1440 hlineto
-345 -237 rlineto
hintmask 10110000
39 -70 419 291 14 77 rlineto
endchar
                </CharString>
                <CharString name="less_hyphen_hyphen.liga">
                    -21 687 -380 78 hstemhm
-1146 1635 hintmask 01100000
-1011 364 rmoveto
337 232 rlineto
hintmask 10100000
-39 70 -419 -291 -14 -76 310 -320 62 60 rlineto
hintmask 01100000
-245 247 rlineto
1493 hlineto
15 78 rlineto
endchar
                </CharString>
                <CharString name="w_w_w.liga">
                    0 111 -111 112 431 -20 hstemhm
-940 1559 hintmask 01110000
-854 hmoveto
157 312 43 -312 rlineto
55 hlineto
158 308 42 -308 rlineto
55 hlineto
164 302 36 -302 rlineto
55 hlineto
161 308 39 -308 rlineto
55 hlineto
158 312 42 -312 rlineto
84 hlineto
70 201 51 163 48 179 rrcurveto
-93 hlineto
hintmask 10110000
-34 -152 -32 -128 -40 -152 rrcurveto
-5 hlineto
-39 315 rlineto
-56 hlineto
hintmask 01110000
-155 -314 rlineto
-5 hlineto
-36 310 rlineto
-56 hlineto
-158 -310 rlineto
-5 hlineto
-33 304 rlineto
-56 hlineto
-161 -304 rlineto
-5 hlineto
-39 310 rlineto
-56 hlineto
-155 -310 rlineto
-4 hlineto
-41 314 rlineto
-56 hlineto
-154 -314 rlineto
-4 hlineto
19 148 16 129 24 154 rrcurveto
-89 hlineto
-28 -203 -18 -211 -5 -129 rrcurveto
endchar
                </CharString>
                <CharString name="ampersand_ampersand.liga">
                    -11 81 hstem
-462 87 142 84 177 87 142 84 vstem
-462 124 rmoveto
-83 45 -52 83 71 82 45 87 86 vhcurveto
128 -181 194 11 168 170 34 -48 40 -47 46 -47 71 58 rcurveline
-52 52 -43 50 -36 50 45 55 45 67 44 78 -75 26 rcurveline
-33 -65 -33 -54 -33 -46 -40 69 -25 68 -9 70 rrcurveto
67 68 39 72 55 vvcurveto
37 -25 21 -36 -58 -71 -105 -120 vhcurveto
-9 vlineto
-142 -121 -87 -121 -110 vvcurveto
1 -15 -24 27 -21 26 -19 27 rlinecurve
45 55 45 67 44 78 -75 26 rcurveline
-33 -65 -33 -54 -33 -46 -40 69 -25 68 -9 70 rrcurveto
67 68 39 72 55 vvcurveto
37 -25 21 -36 -58 -71 -105 -120 vhcurveto
-9 vlineto
-142 -121 -87 -121 -110 vvcurveto
87 19 rmoveto
76 62 87 89 87 vhcurveto
15 -71 31 -73 44 -72 rrcurveto
-73 -66 -62 -34 -46 hhcurveto
-42 -25 26 47 hvcurveto
490 hmoveto
76 62 87 89 87 vhcurveto
15 -71 31 -73 44 -72 rrcurveto
-73 -66 -62 -34 -46 hhcurveto
-42 -25 26 47 hvcurveto
endchar
                </CharString>
                <CharString name="bar_bar.liga">
                    -372 276 179 276 vstem
-180 782 rmoveto
-192 -983 rlineto
84 hlineto
192 986 rlineto
371 -3 rmoveto
-192 -983 rlineto
84 hlineto
192 986 rlineto
endchar
                </CharString>
                <CharString name="bar_greater.liga">
                    -201 986 hstem
-353 701 vstem
-161 782 rmoveto
-192 -983 rlineto
84 hlineto
603 471 14 77 -425 438 rlineto
-169 -867 rmoveto
149 765 356 -362 -2 -10 rlineto
endchar
                </CharString>
                <CharString name="colon_equal.liga">
                    140 131 115 132 hstem
-408 851 vstem
-237 386 rmoveto
26 132 rlineto
-124 hlineto
-26 -132 rlineto
804 104 rmoveto
-545 hlineto
-15 -76 rlineto
544 hlineto
-711 -274 rmoveto
26 131 rlineto
-124 hlineto
-26 -131 rlineto
803 104 rmoveto
-544 hlineto
-15 -76 rlineto
544 hlineto
endchar
                </CharString>
                <CharString name="equal_equal.liga">
                    168 76 170 76 hstem
-554 1132 vstem
578 490 rmoveto
-1070 hlineto
-15 -76 rlineto
1069 hlineto
-32 -170 rmoveto
-1069 hlineto
-15 -76 rlineto
1069 hlineto
endchar
                </CharString>
                <CharString name="equal_greater.liga">
                    -21 687 -498 76 170 76 hstemhm
-554 1102 hintmask 00110000
177 606 rmoveto
115 -116 rlineto
-784 hlineto
-15 -76 rlineto
874 hlineto
92 -93 -2 -10 rlineto
hintmask 01110000
-97 -67 rlineto
-899 hlineto
-15 -76 rlineto
803 hlineto
-173 -119 rlineto
hintmask 10010000
39 -70 419 291 14 77 -310 319 rlineto
endchar
                </CharString>
                <CharString name="exclam_equal.liga">
                    -202 999 -629 76 170 76 hstemhm
-554 1132 -972 752 hintmask 00110000
578 490 rmoveto
-411 hlineto
hintmask 00101000
191 275 rlineto
hintmask 10001000
-72 32 rlineto
hintmask 00101000
-214 -307 rlineto
-564 hlineto
-15 -76 rlineto
526 hlineto
hintmask 01001000
-118 -170 rlineto
-440 hlineto
-15 -76 rlineto
402 hlineto
-242 -348 rlineto
hintmask 10001000
80 -22 rlineto
hintmask 01001000
257 370 rlineto
572 hlineto
15 76 rlineto
-534 hlineto
hintmask 00101000
118 170 rlineto
448 hlineto
endchar
                </CharString>
                <CharString name="greater_equal.liga">
                    -225 894 hstem
-449 901 vstem
-394 -25 rmoveto
831 311 15 77 -705 306 -53 -70 650 -266 -3 -14 -752 -272 rlineto
826 126 rmoveto
-17 -87 -830 -311 -17 72 rlineto
endchar
                </CharString>
                <CharString name="hyphen_greater.liga">
                    -21 687 -380 78 hstemhm
-482 1030 hintmask 10100000
177 606 rmoveto
hintmask 01100000
239 -242 rlineto
-883 hlineto
-15 -78 rlineto
903 hlineto
-345 -237 rlineto
hintmask 10100000
39 -70 419 291 14 77 -310 319 rlineto
endchar
                </CharString>
                <CharString name="hyphen_hyphen.liga">
                    286 78 hstem
-416 346 161 346 vstem
-70 364 rmoveto
-331 hlineto
-15 -78 rlineto
331 hlineto
522 78 rmoveto
-331 hlineto
-15 -78 rlineto
331 hlineto
endchar
                </CharString>
                <CharString name="less_bar.liga">
                    -201 986 hstem
-323 684 vstem
-309 375 rmoveto
-14 -76 408 -500 rlineto
84 hlineto
192 986 -84 -3 rlineto
-511 -458 rmoveto
2 10 487 336 -149 -761 rlineto
endchar
                </CharString>
                <CharString name="less_equal.liga">
                    -225 894 hstem
-416 904 vstem
-269 319 rmoveto
3 14 754 266 -27 70 -823 -306 -15 -77 709 -311 45 72 rlineto
-83 -272 rmoveto
-710 311 17 87 738 -326 rlineto
endchar
                </CharString>
                <CharString name="less_hyphen.liga">
                    -21 687 -380 78 hstemhm
-521 1010 hintmask 01100000
-386 364 rmoveto
337 232 rlineto
hintmask 10100000
-39 70 -419 -291 -14 -76 310 -320 62 60 rlineto
hintmask 01100000
-245 247 rlineto
868 hlineto
15 78 rlineto
endchar
                </CharString>
                <CharString name="less_slash.liga">
                    -202 999 -818 687 hstemhm
-521 472 -273 752 hintmask 10100000
-161 51 rmoveto
-271 273 2 10 381 262 rlineto
hintmask 01100000
-39 70 -419 -291 -14 -76 310 -320 rlineto
hintmask 01010000
-111 -159 rlineto
hintmask 10010000
80 -22 672 967 -72 32 rlineto
endchar
                </CharString>
                <CharString name="plus_plus.liga">
                    287 76 hstem
3 498 vstem
340 570 rmoveto
-81 hlineto
-40 -207 rlineto
-401 hlineto
40 207 rlineto
-81 hlineto
-40 -207 rlineto
-201 hlineto
-15 -76 rlineto
201 hlineto
-40 -208 rlineto
81 hlineto
40 208 rlineto
401 hlineto
-40 -208 rlineto
81 hlineto
40 208 rlineto
200 hlineto
16 76 rlineto
-201 hlineto
endchar
                </CharString>
                <CharString name="question_question.liga">
                    0 123 hstem
-38 102 318 102 vstem
-354 664 rmoveto
209 -25 107 -32 -80 vvcurveto
-63 -63 -60 -195 -100 vhcurveto
29 -49 rlineto
238 120 93 90 93 vvcurveto
106 -129 61 -270 28 vhcurveto
401 -89 rmoveto
209 -25 107 -32 -80 vvcurveto
-63 -63 -60 -195 -100 vhcurveto
29 -49 rlineto
238 120 93 90 93 vvcurveto
106 -129 61 -270 28 vhcurveto
-343 -753 rmoveto
25 123 rlineto
-121 hlineto
-25 -123 rlineto
541 hmoveto
25 123 rlineto
-121 hlineto
-25 -123 rlineto
endchar
                </CharString>
                <CharString name="slash_greater.liga">
                    -202 999 -818 687 hstemhm
-445 752 -231 472 hintmask 10100000
307 765 rmoveto
-72 32 -680 -977 80 -22 553 796 271 -273 -2 -10 rlineto
hintmask 10010000
-381 -262 rlineto
hintmask 01010000
39 -70 419 291 14 77 -310 319 rlineto
endchar
                </CharString>
                <CharString name="underscore_underscore.liga">
                    -126 70 hstem
-697 1271 vstem
574 -56 rmoveto
-1257 hlineto
-14 -70 rlineto
1258 hlineto
endchar
                </CharString>
                <CharString name="ampersand.spacer">
                    endchar
                </CharString>
                <CharString name="bar.spacer">
                    endchar
                </CharString>
                <CharString name="colon.spacer">
                    endchar
                </CharString>
                <CharString name="equal.spacer">
                    endchar
                </CharString>
                <CharString name="exclam.spacer">
                    endchar
                </CharString>
                <CharString name="greater.spacer">
                    endchar
                </CharString>
                <CharString name="hyphen.spacer">
                    endchar
                </CharString>
                <CharString name="less.spacer">
                    endchar
                </CharString>
                <CharString name="LIG">
                    endchar
                </CharString>
                <CharString name="percent.alt">
                    -61 72 200 72 138 72 200 72 hstemhm
32 73 190 74 -57 73 115 74 hintmask 11111011
208 421 rmoveto
87 70 72 106 20 hvcurveto
102 19 -34 64 -85 hhcurveto
-87 -71 -73 -104 -21 hvcurveto
-103 -21 38 -64 85 hhcurveto
438 292 rmoveto
-71 37 -553 -771 74 -32 98 callsubr
746 rmoveto
44 15 -38 -65 -12 hvcurveto
-60 -11 -29 -37 -44 hhcurveto
-44 -16 38 65 13 hvcurveto
61 12 28 36 44 hhcurveto
131 -754 rmoveto
87 70 72 106 21 hvcurveto
102 20 -36 64 -85 hhcurveto
hintmask 11111101
-87 -71 -73 -104 -20 hvcurveto
-103 -20 36 -64 85 hhcurveto
57 272 rmoveto
44 16 -38 -65 -13 hvcurveto
-60 -12 -28 -37 -44 hhcurveto
-44 -15 38 65 12 hvcurveto
61 11 29 36 44 hhcurveto
endchar
                </CharString>
                <CharString name="plus.spacer">
                    endchar
                </CharString>
                <CharString name="question.spacer">
                    endchar
                </CharString>
                <CharString name="slash.spacer">
                    endchar
                </CharString>
                <CharString name="underscore.spacer">
                    endchar
                </CharString>
                <CharString name="uniE0A0">
                    -136 63 193 127 320 64 64 64 hstemhm
0 64 0 128 0 64 128 64 0 128 0 64 hintmask 1111010101000000
512 631 rmoveto
-71 -57 -57 -71 hvcurveto
hintmask 1111010010000000
-47 26 -41 38 -22 vhcurveto
-18 vlineto
-64 -64 -64 -64 -53 -42 -11 -18 -33 vhcurveto
303 vlineto
hintmask 1111101101000000
38 22 26 41 47 vvcurveto
71 -57 57 -71 -71 -57 -57 -71 vhcurveto
hintmask 1111010101000000
-47 26 -41 38 -22 vhcurveto
-419 vlineto
hintmask 1111101010000000
-38 -22 -26 -41 -47 vvcurveto
-71 57 -57 71 71 57 57 71 34 -13 30 -21 23 vhcurveto
23 19 30 18 49 hhcurveto
128 128 128 128 hvcurveto
18 vlineto
hintmask 1111010101000000
38 22 26 41 47 vvcurveto
71 -57 57 -71 vhcurveto
hintmask 1111101101000000
-384 63 rmoveto
35 29 -29 -35 -35 -29 -29 -35 -35 -29 29 35 35 29 29 35 hvcurveto
384 -256 rmoveto
-35 -29 29 35 35 29 29 35 35 29 -29 -35 -35 -29 -29 -35 hvcurveto
-384 -512 rmoveto
-35 -29 29 35 35 29 29 35 35 29 -29 -35 -35 -29 -29 -35 hvcurveto
endchar
                </CharString>
                <CharString name="uniE0B0">
                    -205 1209 hstem
-20 692 vstem
-18 1004 rmoveto
-2 -1209 692 570 rlineto
endchar
                </CharString>
                <CharString name="uniE0B2">
                    -205 1209 hstem
-20 692 vstem
672 -205 rmoveto
-2 1209 -690 -639 rlineto
endchar
                </CharString>
                <CharString name="w.spacer">
                    endchar
                </CharString>
            <CharString index="0">
                rmoveto
18 -40 83 35 127 64 75 57 rlinecurve
-62 71 -64 -61 -106 -82 -71 -44 rlinecurve
return
            </CharString>
            <CharString index="1">
                rmoveto
175 -82 84 -119 -187 -135 -226 -231 -175 82 -84 118 188 135 226 231 vhcurveto
-428 -194 rmoveto
184 89 189 126 71 47 -59 -125 -183 -89 -189 -126 -71 -47 59 124 vhcurveto
endchar
            </CharString>
            <CharString index="2">
                rmoveto
142 -79 80 -122 -29 callgsubr
-143 78 -79 122 -29 callsubr
vhcurveto
-403 -115 rmoveto
139 77 124 111 79 46 -60 -101 -140 -78 -121 -110 -79 -46 58 101 vhcurveto
endchar
            </CharString>
            <CharString index="3">
                85 callsubr
91 77 163 32 hvcurveto
90 464 rlineto
-56 callgsubr
-70 callsubr
rlineto
-176 -34 76 -85 142 hhcurveto
endchar
            </CharString>
            <CharString index="4">
                -106 callsubr
endchar
            </CharString>
            <CharString index="5">
                -100 callsubr
hintmask 01111000
-95 callgsubr
hintmask 10111000
-51 callsubr
hintmask 01111000
-42 callgsubr
            </CharString>
            <CharString index="6">
                rmoveto
-76 -61 -48 -45 -57 hhcurveto
-55 -35 36 90 -37 hvcurveto
-69 -35 rlineto
-110 42 60 -52 76 hhcurveto
79 80 59 101 77 hvcurveto
return
            </CharString>
            <CharString index="7">
                rmoveto
98 76 63 94 -2 callgsubr
hvcurveto
-58 callgsubr
-78 callgsubr
            </CharString>
            <CharString index="8">
                rmoveto
-98 callsubr
408 hlineto
endchar
            </CharString>
            <CharString index="9">
                15 61 rlineto
-125 hlineto
79 396 -72 -6 -13 -67 -138 -17 -9 -54 134 7 -51 -259 rlineto
-136 hlineto
-12 -61 rlineto
return
            </CharString>
            <CharString index="10">
                rmoveto
61 48 -156 166 rlineto
-4 hlineto
-228 -162 40 -48 174 123 rlineto
return
            </CharString>
            <CharString index="11">
                13 62 rlineto
-224 hlineto
164 101 93 72 91 vvcurveto
91 -93 46 -185 -27 vhcurveto
-10 -65 rlineto
157 22 53 -31 -53 vvcurveto
-74 -107 -70 -178 -108 vhcurveto
1 -57 rlineto
return
            </CharString>
            <CharString index="12">
                355 -30 rmoveto
-93 callgsubr
return
            </CharString>
            <CharString index="13">
                rmoveto
-98 callgsubr
return
            </CharString>
            <CharString index="14">
                -10 45 -103 -38 -6 17 15 76 rlinecurve
76 390 rlineto
16 -56 -53 7 -47 hhcurveto
-197 -135 -193 -203 hvcurveto
return
            </CharString>
            <CharString index="15">
                -58 614 -92 callsubr
            </CharString>
            <CharString index="16">
                rmoveto
-86 callgsubr
417 hlineto
18 74 rlineto
endchar
            </CharString>
            <CharString index="17">
                -79 callsubr
-112 -163 -65 callsubr
return
            </CharString>
            <CharString index="18">
                rmoveto
-65 callgsubr
-72 callsubr
return
            </CharString>
            <CharString index="19">
                234 -198 rmoveto
28 56 -28 78 143 vvcurveto
15 1 18 1 18 vhcurveto
58 113 50 136 39 vvcurveto
17 -36 16 -23 -8 -11 -10 -18 -11 vhcurveto
17 -37 -38 9 -39 hhcurveto
-183 -131 -176 -184 -113 56 -57 76 72 69 50 66 54 hvcurveto
3 -111 23 -81 -27 -27 -22 -23 -94 -21 -214 18 rrcurveto
return
            </CharString>
            <CharString index="20">
                -35 callsubr
hintmask 10101100
-73 callsubr
hintmask 10011100
-83 callgsubr
hintmask 01011100
-38 callsubr
            </CharString>
            <CharString index="21">
                105 541 rlineto
161 hlineto
14 73 rlineto
-418 hlineto
-14 -73 rlineto
165 hlineto
-105 -541 rlineto
-162 31 callgsubr
return
            </CharString>
            <CharString index="22">
                -48 callsubr
-88 callgsubr
return
            </CharString>
            <CharString index="23">
                rmoveto
-111 58 -63 87 124 97 134 150 112 -57 63 -87 -124 -98 -134 -151 vhcurveto
295 105 rmoveto
-110 -57 -108 -82 -52 -32 41 78 109 56 109 83 52 32 -41 -78 vhcurveto
endchar
            </CharString>
            <CharString index="24">
                -79 callgsubr
64 66 43 83 72 hvcurveto
return
            </CharString>
            <CharString index="25">
                rmoveto
57 35 -30 -44 -89 -120 -49 -188 -15 hvcurveto
115 20 80 112 116 hhcurveto
endchar
            </CharString>
            <CharString index="26">
                -36 callsubr
-30 callsubr
-54 callgsubr
            </CharString>
            <CharString index="27">
                91 callsubr
-59 hlineto
29 147 -68 -5 -28 -142 rlineto
-160 hlineto
56 80 42 78 44 132 -77 3 rcurveline
return
            </CharString>
            <CharString index="28">
                78 346 -89 -5 -84 -137 48 -30 -41 -185 rlineto
-138 -31 40 -66 82 hhcurveto
return
            </CharString>
            <CharString index="29">
                -104 69 -51 88 vhcurveto
11 56 rmoveto
-51 -48 30 80 7 0 7 1 8 hvcurveto
98 71 96 -34 -77 vvcurveto
-51 -35 -41 -61 vhcurveto
endchar
            </CharString>
            <CharString index="30">
                rmoveto
hintmask 00111110
-64 callsubr
hintmask 01011110
-87 callsubr
hintmask 10011110
-12 callgsubr
hintmask 00111110
-92 callgsubr
            </CharString>
            <CharString index="31">
                rmoveto
22 callgsubr
-231 159 -89 272 97 hvcurveto
9 84 rlineto
-71 callsubr
endchar
            </CharString>
            <CharString index="32">
                rmoveto
30 59 -18 102 126 vvcurveto
10 0 10 1 10 vhcurveto
56 109 42 147 42 vvcurveto
18 -37 12 -25 -34 -69 -182 -152 -9 vhcurveto
-69 -61 -69 -41 -47 hhcurveto
return
            </CharString>
            <CharString index="33">
                rmoveto
-26 callsubr
-181 150 -99 283 138 hvcurveto
-11 47 rlineto
-43 callgsubr
endchar
            </CharString>
            <CharString index="34">
                -62 callgsubr
-452 -287 -65 callsubr
return
            </CharString>
            <CharString index="35">
                -165 -364 rlineto
-5 hlineto
6 66 52 368 21 134 rrcurveto
-91 hlineto
-43 -295 -27 -262 -6 -131 rrcurveto
96 hlineto
165 361 rlineto
endchar
            </CharString>
            <CharString index="36">
                rmoveto
35 callsubr
hintmask 11000000
-67 callgsubr
hintmask 10100000
-33 callgsubr
endchar
            </CharString>
            <CharString index="37">
                -61 callsubr
-1 callgsubr
rlinecurve
return
            </CharString>
            <CharString index="38">
                rmoveto
-16 46 -168 -82 -88 6 -13 64 callsubr
255 183 108 172 132 vvcurveto
74 -39 43 -66 return
            </CharString>
            <CharString index="39">
                rmoveto
184 85 184 124 38 31 -17 -34 21 vhcurveto
-292 -395 rlineto
-5 23 -2 26 29 vvcurveto
120 -192 rmoveto
-40 -31 18 35 -21 hvcurveto
294 396 rlineto
4 -23 3 -27 -30 vvcurveto
-185 -85 -184 -124 vhcurveto
-13 -79 rmoveto
186 131 221 229 hvcurveto
hintmask 10011100
67 -11 54 -21 42 vhcurveto
73 96 rlineto
hintmask 01101100
-54 36 -58 -77 rlineto
33 -34 -45 17 -52 hhcurveto
-184 -133 -220 -230 -66 11 -54 20 -41 hvcurveto
-72 -97 rlineto
hintmask 10101100
54 -37 57 77 rlineto
-33 34 45 -17 53 hhcurveto
endchar
            </CharString>
            <CharString index="40">
                103 92 -16 67 -63 hhcurveto
-56 -61 -63 -67 -17 3 -16 5 -16 hvcurveto
-39 -41 -57 -45 -92 -63 23 -41 rcurveline
80 47 63 44 48 41 rrcurveto
return
            </CharString>
            <CharString index="41">
                803 -107 callgsubr
return
            </CharString>
            <CharString index="42">
                229 162 -42 48 -173 -123 return
            </CharString>
            <CharString index="43">
                4 15 2 14 13 vvcurveto
32 -18 18 -26 -54 -56 -61 -46 -27 21 -17 33 -8 vhcurveto
-31 -69 -48 -67 -67 -80 35 -34 rcurveline
72 77 65 90 39 77 51 1 62 11 59 18 return
            </CharString>
            <CharString index="44">
                -65 callsubr
306 -493 -102 callsubr
return
            </CharString>
            <CharString index="45">
                527 596 -105 callsubr
return
            </CharString>
            <CharString index="46">
                rmoveto
-90 -65 -56 -67 -62 55 -48 83 90 65 57 67 60 -56 49 -82 hvcurveto
return
            </CharString>
            <CharString index="47">
                rmoveto
hintmask 00111000
-31 callgsubr
hintmask 01011000
-44 callgsubr
endchar
            </CharString>
            <CharString index="48">
                6 41 7 53 3 17 -86 -5 rcurveline
-25 -161 -24 -122 -50 -259 rrcurveto
87 hlineto
15 73 44 224 13 70 rrcurveto
return
            </CharString>
            <CharString index="49">
                23 66 66 68 156 37 -16 60 rcurveline
-229 -60 -80 -128 -119 vvcurveto
return
            </CharString>
            <CharString index="50">
                -102 callsubr
5 callgsubr
return
            </CharString>
            <CharString index="51">
                -92 hlineto
-90 -465 72 callgsubr
-21 -51 -49 -79 hhcurveto
return
            </CharString>
            <CharString index="52">
                15 98 callgsubr
316 66 314 -20 hstemhm
495 92 hintmask 10111000
54 callsubr
-59 -304 rlineto
-77 hlineto
-13 -66 rlineto
77 hlineto
hintmask 01111000
-61 -316 rlineto
hintmask 10111000
20 callgsubr
-239 -110 rmoveto
17 66 rlineto
-145 hlineto
45 235 32 callgsubr
20 callsubr
47 243 rlineto
endchar
            </CharString>
            <CharString index="53">
                61 254 rmoveto
51 35 41 61 52 47 -30 -80 -7 0 -8 -1 -7 vhcurveto
-98 -71 -96 33 78 vvcurveto
endchar
            </CharString>
            <CharString index="54">
                rmoveto
38 68 rlineto
-161 69 -71 47 52 72 129 40 81 vvcurveto
37 -26 36 -74 22 vhcurveto
hintmask 11001000
101 25 41 52 45 vvcurveto
hintmask 11100000
54 -73 67 48 vvcurveto
56 88 44 214 42 vhcurveto
-16 76 rlineto
-278 -66 -92 -83 -79 -69 74 -60 -45 vvcurveto
hintmask 11001000
-35 -39 -33 -141 -7 vhcurveto
-13 -65 rlineto
hintmask 11010000
102 -12 46 -27 -37 -60 -133 -39 -97 vvcurveto
-72 79 -57 205 -90 vhcurveto
endchar
            </CharString>
            <CharString index="55">
                17 -21 25 -40 callsubr
return
            </CharString>
            <CharString index="56">
                -50 callgsubr
hstem
return
            </CharString>
            <CharString index="57">
                61 255.5 137.5 return
            </CharString>
            <CharString index="58">
                -20 callsubr
hintmask 10100100
-30 callgsubr
hintmask 01011000
-59 callgsubr
hintmask 10100100
-31 callsubr
hintmask 10011000
17 callgsubr
            </CharString>
            <CharString index="59">
                rmoveto
-367 hlineto
-15 -75 rlineto
368 hlineto
return
            </CharString>
            <CharString index="60">
                -20 callsubr
hintmask 10101010
-30 callgsubr
hintmask 01011100
-59 callgsubr
hintmask 10101010
-31 callsubr
hintmask 10011100
10 callsubr
return
            </CharString>
            <CharString index="61">
                147 -144.5 61 callsubr
return
            </CharString>
            <CharString index="62">
                21 79 -343 -3 410 394 15 74 rlineto
-428 hlineto
-21 -78 331 2 -410 -392 91 callgsubr
            </CharString>
            <CharString index="63">
                -133 -686 rlineto
92 hlineto
118 613 rlineto
149 17 74 -39 -76 vvcurveto
-77 -63 -57 -157 -70 vhcurveto
-3 vlineto
return
            </CharString>
            <CharString index="64">
                -233 -72 -100 42 141 vvcurveto
143 97 126 118 58 26 -28 -82 1 vhcurveto
return
            </CharString>
            <CharString index="65">
                -13 -114 45 -46 162 97 rrcurveto
endchar
            </CharString>
            <CharString index="66">
                79 403 rlineto
-86 hlineto
-70 -354 rlineto
return
            </CharString>
            <CharString index="67">
                -22 callsubr
hintmask 10110000
-86 callsubr
            </CharString>
            <CharString index="68">
                -19 230 -22 228 -25 228 return
            </CharString>
            <CharString index="69">
                89.5 -46 callgsubr
return
            </CharString>
            <CharString index="70">
                -24 callsubr
-454 -303 -65 callsubr
return
            </CharString>
            <CharString index="71">
                17 79 rlineto
-336 hlineto
118 609 rlineto
-93 -34 callgsubr
return
            </CharString>
            <CharString index="72">
                154 -283 67 128 vvcurveto
61 53 52 74 73 43 -38 -91 15 vhcurveto
return
            </CharString>
            <CharString index="73">
                hlineto
-133 -688 rlineto
return
            </CharString>
            <CharString index="74">
                -28 callsubr
301 -15 82 81 88 vvcurveto
return
            </CharString>
            <CharString index="75">
                -10 45 -97 -40 -6 19 15 75 rlinecurve
return
            </CharString>
            <CharString index="76">
                100 14 -170 288 rlineto
127 64 77 74 101 vvcurveto
110 -104 80 -288 -38 vhcurveto
return
            </CharString>
            <CharString index="77">
                -14 callsubr
-68 -78 -41 -80 -78 vhcurveto
return
            </CharString>
            <CharString index="78">
                -165 -127 -158 -191 return
            </CharString>
            <CharString index="79">
                -11 callsubr
57 callsubr
hintmask 10101110
return
            </CharString>
            <CharString index="80">
                -13 85 -82 77 477 -20 24 -20 return
            </CharString>
            <CharString index="81">
                795 -89 callsubr
return
            </CharString>
            <CharString index="82">
                621 246 hstem
152 470 vstem
191 621 -81 callsubr
endchar
            </CharString>
            <CharString index="83">
                633.5 44 callgsubr
-145 148 hstemhm
141 377 hintmask 01100000
472 637 -66 callsubr
hintmask 10100000
-77 callsubr
endchar
            </CharString>
            <CharString index="84">
                rmoveto
-42 -34 38 82 144 87 147 106 26 40 -6 -13 41 hvcurveto
-58 -298 rlineto
-53 -51 -67 -41 -48 hhcurveto
return
            </CharString>
            <CharString index="85">
                -106 372 -95 -4 137 -453 -46 -233 rlineto
endchar
            </CharString>
            <CharString index="86">
                -52 callgsubr
hstemhm
3 return
            </CharString>
            <CharString index="87">
                0 161 -140 -21 537 153 -2 64 callgsubr
return
            </CharString>
            <CharString index="88">
                -11 77 139 52 227 74 return
            </CharString>
            <CharString index="89">
                78 vstem
503 472 -90 callsubr
return
            </CharString>
            <CharString index="90">
                -66 callsubr
hintmask 11101000
-77 callsubr
return
            </CharString>
            <CharString index="91">
                703 -20 95 71 callsubr
145 390 hintmask 10110000
306 616 rmoveto
hintmask 11010000
-65 callgsubr
rlineto
hintmask 10110000
-72 callsubr
endchar
            </CharString>
            <CharString index="92">
                -171 -21 143 66 hstem
331 79 vstem
170 -164 rmoveto
-23 callsubr
79 2 rlineto
143 9 -58 66 -75 hhcurveto
-63 -53 -53 -112 -47 hvcurveto
endchar
            </CharString>
            <CharString index="93">
                -27 callgsubr
13 callsubr
hintmask 01011100
return
            </CharString>
            <CharString index="94">
                29 -164 136 -16 206 123 rrcurveto
return
            </CharString>
            <CharString index="95">
                5 -71 6 -71 5 -71 rrcurveto
return
            </CharString>
            <CharString index="96">
                -150 529 -96 -3 -133 -687 rlineto
86 hlineto
return
            </CharString>
            <CharString index="97">
                -13 callsubr
5 callsubr
return
            </CharString>
            <CharString index="98">
                627 71 hstem
122 414 vstem
484 819 -101 callgsubr
endchar
            </CharString>
            <CharString index="99">
                -23 callgsubr
hintmask 01011111
30 callgsubr
return
            </CharString>
            <CharString index="100">
                vstem
502 hmoveto
-36 callgsubr
return
            </CharString>
            <CharString index="101">
                26 callgsubr
0 callgsubr
return
            </CharString>
            <CharString index="102">
                -10 callgsubr
hintmask 01111000
return
            </CharString>
            <CharString index="103">
                rmoveto
-8 48 -165 -54 -33 33 193 470 rlinecurve
-43 23 return
            </CharString>
            <CharString index="104">
                51 callgsubr
77 callsubr
hintmask 10110000
return
            </CharString>
            <CharString index="105">
                114 -134 45 -117 -85 return
            </CharString>
            <CharString index="106">
                -106 -120 -89 -126 -73 -124 return
            </CharString>
            <CharString index="107">
                hstem
73 95 333 95 vstem
return
            </CharString>
            <CharString index="108">
                -305 229 hstem
256 110 vstem
208 -37 callsubr
            </CharString>
            <CharString index="109">
                47 -16 rcurveline
hintmask 10011110
-23 callsubr
endchar
            </CharString>
            <CharString index="110">
                -203 120 -92 202 56 vhcurveto
-28 -126 rlineto
return
            </CharString>
            <CharString index="111">
                608 233 hstem
238 293 vstem
393 841 -61 callgsubr
endchar
            </CharString>
            <CharString index="112">
                -38 31 -34 37 -32 vhcurveto
return
            </CharString>
            <CharString index="113">
                69 -6 68 122 67 return
            </CharString>
            <CharString index="114">
                781 -20 hstem
169 269 vstem
438 651 -89 callsubr
endchar
            </CharString>
            <CharString index="115">
                609 282 hstem
320 102 vstem
320 -25 callsubr
endchar
            </CharString>
            <CharString index="116">
                0 77.5 389.5 77 return
            </CharString>
            <CharString index="117">
                -157 -192 -283 -302 return
            </CharString>
            <CharString index="118">
                rmoveto
75 47 -148 236 239 235 -58 56 -233 -241 -20 -92 rlineto
407 -241 rmoveto
74 45 -145 239 return
            </CharString>
            <CharString index="119">
                84 callsubr
-46 callgsubr
return
            </CharString>
            <CharString index="120">
                -11 77 -45 -21 473 84 -10 -20 return
            </CharString>
            <CharString index="121">
                -192 83 -80 80 136 81 375 74 return
            </CharString>
            <CharString index="122">
                -149 -774 rlineto
87 hlineto
68 348 rlineto
84 80 76 43 55 hhcurveto
33 20 -17 -29 -47 -52 -69 -178 -93 hvcurveto
return
            </CharString>
            <CharString index="123">
                -210 -55 rmoveto
235 237 21 92 -143 244 -74 -46 145 -239 -241 -230 rlineto
endchar
            </CharString>
            <CharString index="124">
                10 callsubr
endchar
            </CharString>
            <CharString index="125">
                rmoveto
-9 46 rlineto
-158 -75 -51 29 108 vvcurveto
12 0 12 1 12 vhcurveto
178 25 86 102 110 vvcurveto
return
            </CharString>
            <CharString index="126">
                rmoveto
345 hlineto
14 72 rlineto
-257 hlineto
160 824 rlineto
257 hlineto
15 72 rlineto
-346 hlineto
endchar
            </CharString>
            <CharString index="127">
                370 -48 163 222 252 vvcurveto
return
            </CharString>
            <CharString index="128">
                36 callgsubr
610 79 hstemhm
return
            </CharString>
            <CharString index="129">
                -194 -153 -220 -236 return
            </CharString>
            <CharString index="130">
                0 111 -90 -21 543 -20 return
            </CharString>
            <CharString index="131">
                hstemhm
73 6 callgsubr
return
            </CharString>
            <CharString index="132">
                101 72 53 66 hvcurveto
return
            </CharString>
            <CharString index="133">
                -14 80 556 80 return
            </CharString>
            <CharString index="134">
                -133 -166 -137 -163 -238 vhcurveto
55 10 rmoveto
196 108 145 132 103 79 return
            </CharString>
            <CharString index="135">
                rmoveto
309 241 23 93 -213 251 -66 -61 200 -229 -304 -226 rlineto
endchar
            </CharString>
            <CharString index="136">
                4 callsubr
544 vstem
return
            </CharString>
            <CharString index="137">
                355 -30 rmoveto
-9 45 -106 -40 -6 18 15 79 rlinecurve
return
            </CharString>
            <CharString index="138">
                hlineto
-14 -74 rlineto
return
            </CharString>
            <CharString index="139">
                rlineto
151 16 79 -64 -152 vvcurveto
return
            </CharString>
            <CharString index="140">
                0 74 541 73 return
            </CharString>
            <CharString index="141">
                rmoveto
233 241 20 92 -145 241 -74 -48 148 -235 -239 -235 rlineto
return
            </CharString>
            <CharString index="142">
                -15 84 552 82 hstem
79 92 324 87 vstem
return
            </CharString>
            <CharString index="143">
                14 -21 28 79 callsubr
return
            </CharString>
            <CharString index="144">
                rmoveto
-36 18 -78 -69 -40 -83 -4 -78 rlinecurve
116 3 -11 64 4 70 49 75 rlinecurve
return
            </CharString>
            <CharString index="145">
                hhcurveto
67 10 -73 -101 -83 hvcurveto
37 -19 rlineto
152 145 -21 134 -122 hhcurveto
return
            </CharString>
            <CharString index="146">
                -8 77 hstemhm
267 169 -2 88 hintmask 10100000
return
            </CharString>
            <CharString index="147">
                0 -9 -7 -7 -9 -9 -7 6 44 callsubr
return
            </CharString>
            <CharString index="148">
                13 callsubr
hintmask 01011110
return
            </CharString>
            <CharString index="149">
                17 callsubr
hstem
return
            </CharString>
            <CharString index="150">
                -45 166 84 vhcurveto
return
            </CharString>
            <CharString index="151">
                147.5 return
            </CharString>
            <CharString index="152">
                -5 30 27 -2 25 hhcurveto
196 134 188 200 121 -54 60 -69 return
            </CharString>
            <CharString index="153">
                50 hstem
55 55 422 55 vstem
55 279 rmoveto
-171 95 -100 131 return
            </CharString>
            <CharString index="154">
                33 callgsubr
hstem
47 548 vstem
return
            </CharString>
            <CharString index="155">
                -15 79 -48 -21 629 79 -9 -20 hstemhm
75 95 329 95 hintmask 10101100
return
            </CharString>
            <CharString index="156">
                13 callgsubr
83 callgsubr
hintmask 10011000
return
            </CharString>
            <CharString index="157">
                63 184 -20 154 61 return
            </CharString>
            <CharString index="158">
                21 -21 688 64 callgsubr
return
            </CharString>
            <CharString index="159">
                -234 62 186 -21 151 61 return
            </CharString>
            <CharString index="160">
                hlineto
-15 -76 rlineto
return
            </CharString>
            <CharString index="161">
                23 callgsubr
97 callgsubr
hintmask 01110000
return
            </CharString>
            <CharString index="162">
                -186 88 callgsubr
36 vvcurveto
39 return
            </CharString>
            <CharString index="163">
                56 callsubr
-26 -131 rlineto
endchar
            </CharString>
            <CharString index="164">
                -13 78 407 70 159 -20 return
            </CharString>
            <CharString index="165">
                0 120 568 -20 return
            </CharString>
            <CharString index="166">
                0 79 609 -20 return
            </CharString>
            <CharString index="167">
                72 223 71 vstem
return
            </CharString>
            <CharString index="168">
                56 171 48 return
            </CharString>
            <CharString index="169">
                -86 8 -35 -174 -174 18 -15 -73 174 -17 return
            </CharString>
            <CharString index="170">
                10 hlineto
0 6 -1 3 -4 -3 -2 -2 44 callsubr
return
            </CharString>
            <CharString index="171">
                -20 22 -20 return
            </CharString>
            <CharString index="172">
                71 365 rlineto
-73 hlineto
-104 -222 rlineto
-2 hlineto
return
            </CharString>
            <CharString index="173">
                -6 2 -3 5 4 2 2 4 1 vhcurveto
5 hlineto
return
            </CharString>
            <CharString index="174">
                781 -66 callsubr
return
            </CharString>
            <CharString index="175">
                rmoveto
-443 hlineto
-14 -76 rlineto
443 hlineto
endchar
            </CharString>
            <CharString index="176">
                hintmask 010000000000000000000000000000000000000000000000
return
            </CharString>
            <CharString index="177">
                0 80 528 80 hstem
32 return
            </CharString>
            <CharString index="178">
                62 165 -20 171 61 return
            </CharString>
            <CharString index="179">
                rlineto
-109 return
            </CharString>
            <CharString index="180">
                rlineto
-92 hlineto
return
            </CharString>
            <CharString index="181">
                -21 223 -72 -2 -71 -364 rlineto
56 hlineto
return
            </CharString>
            <CharString index="182">
                15 98 callgsubr
696 -20 hstemhm
495 92 return
            </CharString>
            <CharString index="183">
                -18 -79 -87 -96 rlinecurve
endchar
            </CharString>
            <CharString index="184">
                72 824 72 hstem
return
            </CharString>
            <CharString index="185">
                48 171 56 hstem
return
            </CharString>
            <CharString index="186">
                67 195 69 vstem
return
            </CharString>
            <CharString index="187">
                hstemhm
61 90 return
            </CharString>
            <CharString index="188">
                276 62 rmoveto
-28 -40 6 14 -42 hvcurveto
return
            </CharString>
            <CharString index="189">
                66 -36 44 -65 -38 -35 -15 -26 -32 vhcurveto
return
            </CharString>
            <CharString index="190">
                hstemhm
380 93 -22 95 return
            </CharString>
            <CharString index="191">
                64 callsubr
-123 -4 return
            </CharString>
            <CharString index="192">
                224 -20 hstemhm
return
            </CharString>
            <CharString index="193">
                90 14 84 -55 86 -41 83 hintmask 11010000
return
            </CharString>
            <CharString index="194">
                vvcurveto
-70 -39 -74 -89 -90 vhcurveto
-2 vlineto
return
            </CharString>
            <CharString index="195">
                rmoveto
23 callsubr
return
            </CharString>
            <CharString index="196">
                25 -105 92 -39 178 117 rrcurveto
return
            </CharString>
            <CharString index="197">
                61 24 callgsubr
return
            </CharString>
            <CharString index="198">
                -15 -76 rlineto
endchar
            </CharString>
            <CharString index="199">
                -232 64 return
            </CharString>
            <CharString index="200">
                69 44 69 return
            </CharString>
            <CharString index="201">
                -19 -79 -87 -96 rlinecurve
-238 hmoveto
return
            </CharString>
            <CharString index="202">
                -48 -36 -36 -37 -32 hhcurveto
endchar
            </CharString>
            <CharString index="203">
                62 316 61 hstem
return
            </CharString>
            <CharString index="204">
                hstemhm
80 539 return
            </CharString>
            <CharString index="205">
                -21 27 -21 return
            </CharString>
</ttFont>
